<?xml version="1.0" encoding="UTF-8" standalone="no"?>
<svg
   xmlns:dc="http://purl.org/dc/elements/1.1/"
   xmlns:cc="http://creativecommons.org/ns#"
   xmlns:rdf="http://www.w3.org/1999/02/22-rdf-syntax-ns#"
   xmlns:svg="http://www.w3.org/2000/svg"
   xmlns="http://www.w3.org/2000/svg"
   xmlns:sodipodi="http://sodipodi.sourceforge.net/DTD/sodipodi-0.dtd"
   xmlns:inkscape="http://www.inkscape.org/namespaces/inkscape"
   inkscape:version="1.0beta1 (1:0.92.0+devel+201911251127+a87f16c)"
   sodipodi:docname="logohover.svg"
   viewBox="0 0 734.40002 64.959999"
   height="64.959999"
   width="734.40002"
   id="svg2"
   version="1.1">
  <sodipodi:namedview
     inkscape:current-layer="svg2"
     inkscape:window-maximized="0"
     inkscape:window-y="388"
     inkscape:window-x="106"
     inkscape:cy="32.48"
     inkscape:cx="367.20001"
     inkscape:zoom="1.9131263"
     showgrid="false"
     id="namedview45"
     inkscape:window-height="480"
     inkscape:window-width="792"
     inkscape:pageshadow="2"
     inkscape:pageopacity="0"
     guidetolerance="10"
     gridtolerance="10"
     objecttolerance="10"
     borderopacity="1"
     inkscape:document-rotation="0"
     bordercolor="#666666"
     pagecolor="#ffffff" />
  <metadata
     id="metadata8">
    <rdf:RDF>
      <cc:Work
         rdf:about="">
        <dc:format>image/svg+xml</dc:format>
        <dc:type
           rdf:resource="http://purl.org/dc/dcmitype/StillImage" />
        <dc:title />
      </cc:Work>
    </rdf:RDF>
  </metadata>
  <defs
     id="defs6" />
  <g
     style="font-style:normal;font-variant:normal;font-weight:900;font-stretch:normal;font-size:8.16827px;line-height:1.25;font-family:'Besley*';-inkscape-font-specification:'Besley* Heavy';text-align:center;letter-spacing:2.69353px;word-spacing:0px;text-anchor:middle;fill:#502d16;fill-opacity:1;stroke:none;stroke-width:0.437586"
     id="text882-7"
     aria-label="I WANT TO GO HOME"
     transform="matrix(3.7795276,0,0,3.7795276,-784.90845,-77.36713)">
    <path
       id="path2106"
       style="fill:#502d16;stroke-width:0.437586"
       d="m 232.83352,27.466703 0.38597,3.474648 q 0.0271,0.24355 0.0731,0.287751 0.046,0.0442 0.24084,0.02256 l 0.56017,-0.06223 q 0.14613,-0.01623 0.18221,0.01263 0.0433,0.01985 0.055,0.125385 l 0.0667,0.600756 q 0.018,0.162367 -0.009,0.214684 -0.028,0.0442 -0.14974,0.05773 l -3.51524,0.390484 q -0.16237,0.01804 -0.20567,-0.0018 -0.0361,-0.02887 -0.0496,-0.150641 l -0.0712,-0.641348 q -0.0135,-0.121775 0.0144,-0.165974 0.0361,-0.0451 0.11726,-0.05412 0.0244,-0.0027 0.0902,-0.0018 0.065,-0.0072 0.10554,-0.01172 l 0.38968,-0.04329 q 0.17048,-0.01894 0.19935,-0.05502 0.028,-0.0442 0.005,-0.247157 l -0.3968,-3.572068 q -0.0162,-0.14613 -0.0442,-0.175898 -0.028,-0.02977 -0.14162,-0.01714 l -0.58452,0.06493 q -0.15425,0.01713 -0.19755,-0.0027 -0.0361,-0.02887 -0.0487,-0.142523 l -0.0776,-0.698177 q -0.0108,-0.09742 0.0108,-0.124481 0.0208,-0.03518 0.0857,-0.04239 0.0162,-0.0018 0.0659,9.04e-4 0.0487,-0.0054 0.0812,-0.009 l 3.38535,-0.376055 q 0.0325,-0.0036 0.0893,-0.0099 0.0559,-0.01443 0.0803,-0.01714 0.12178,-0.01353 0.1344,0.100129 l 0.0857,0.771242 q 0.0108,0.09742 -0.0189,0.125383 -0.0225,0.01894 -0.15245,0.03337 l -0.6657,0.07395 q -0.14613,0.01623 -0.175,0.05231 -0.0207,0.03518 -9e-4,0.213782 z" />
    <path
       id="path2108"
       style="fill:#502d16;stroke-width:0.437586"
       d="m 246.28917,28.384408 q 0.04,-0.200252 0.10441,-0.402625 0.0644,-0.202373 0.10404,-0.312404 0.0471,-0.118875 0.13306,-0.35592 0.0941,-0.237751 0.12774,-0.322663 l 0.23321,-0.618791 q 0.0464,-0.127013 -0.004,-0.237405 l -0.0499,-0.102254 q -0.0396,-0.07855 -0.0647,-0.08456 -0.0258,-0.01415 -0.13975,-0.0043 l -0.37433,0.03252 q -0.13021,0.01131 -0.18257,-0.02513 -0.0442,-0.03715 -0.0527,-0.134805 -0.003,-0.03255 -0.009,-0.105789 0.001,-0.08208 -0.003,-0.130908 l -0.0368,-0.423156 q -0.0148,-0.17089 0.0142,-0.214406 0.0365,-0.05236 0.15851,-0.06297 l 2.85631,-0.248164 q 0.14647,-0.01273 0.17371,0.0177 0.0354,0.02972 0.0495,0.192475 l 0.0551,0.634734 q 0.0134,0.154615 -0.0156,0.198131 -0.0209,0.04281 -0.13481,0.05271 l -0.21971,0.01909 q -0.18717,0.01626 -0.1808,0.0895 0.001,0.01628 0.0219,0.06369 l 0.33853,0.782293 q 0.30918,0.72745 0.50303,1.259943 0.16448,0.477652 0.20517,0.474117 0.0407,-0.0035 0.12245,-0.477985 0.0871,-0.507706 0.27642,-1.253871 l 0.23747,-0.947125 q 0.0188,-0.06722 0.0166,-0.09163 -0.003,-0.03255 -0.13303,-0.02124 l -0.37433,0.03252 q -0.15462,0.01343 -0.20026,-0.04 -0.0456,-0.05343 -0.0605,-0.224318 l -0.0523,-0.602183 q -0.0106,-0.122064 0.0103,-0.164873 0.0283,-0.05165 0.12596,-0.06014 l 2.44129,-0.212106 q 0.11392,-0.0099 0.14187,0.02867 0.0354,0.02972 0.0488,0.184337 l 0.041,0.471982 q 0.004,0.04069 0.0187,0.121357 0.0145,0.07253 0.0173,0.105082 0.0148,0.17089 -0.15604,0.185737 l -0.58591,0.05091 q -0.10579,0.0092 -0.15249,0.03785 -0.0393,0.01981 -0.0534,0.04564 -0.006,0.02512 -0.0301,0.125599 l -1.20684,4.794705 q -0.0488,0.192821 -0.0955,0.221476 -0.0541,0.0375 -0.21689,0.05164 l -0.61846,0.05373 q -0.0814,0.0071 -0.13904,0.0039 -0.0495,-0.0039 -0.0856,-0.04176 -0.0354,-0.02972 -0.0524,-0.03645 -0.01,-0.01557 -0.0403,-0.08669 -0.0315,-0.07925 -0.0417,-0.102961 l -0.77224,-1.621908 q -0.32935,-0.676503 -0.5087,-1.136466 -0.1705,-0.452531 -0.21932,-0.448289 -0.008,7.07e-4 -0.0156,0.0096 -0.008,7.07e-4 -0.0149,0.01769 -0.007,0.01698 -0.0135,0.03396 -0.007,0.0088 -0.0209,0.04281 -0.006,0.02512 -0.0202,0.05095 -0.006,0.02512 -0.0188,0.06722 -0.005,0.0414 -0.018,0.07536 -0.005,0.03326 -0.0248,0.09234 -0.012,0.05024 -0.0248,0.09234 -0.13519,0.520087 -0.40874,1.240772 l -0.66599,1.771463 q -0.0665,0.17796 -0.12067,0.215459 -0.0534,0.04564 -0.28942,0.06614 l -0.50453,0.04384 q -0.0732,0.0064 -0.12206,0.01061 -0.0407,0.0035 -0.0828,-0.0092 -0.034,-0.01345 -0.0591,-0.01946 -0.0163,0.0014 -0.0442,-0.03715 -0.0191,-0.03114 -0.028,-0.03857 -0.001,-0.01628 -0.0308,-0.07112 -0.0212,-0.05555 -0.0315,-0.07925 l -2.05883,-4.445382 q -0.0711,-0.157804 -0.13832,-0.17656 -0.0598,-0.0276 -0.28765,-0.0078 l -0.26854,0.02333 q -0.1953,0.01697 -0.24696,-0.01134 -0.0524,-0.03645 -0.0651,-0.182923 l -0.058,-0.667285 q -0.0127,-0.146477 0.017,-0.181855 0.0216,-0.03467 0.11923,-0.04316 l 3.25505,-0.282807 q 0.17903,-0.01555 0.21511,0.0223 0.0442,0.03715 0.0612,0.232456 l 0.041,0.471982 q 0.004,0.04883 0.01,0.113926 0.0138,0.06439 0.0152,0.08067 0.007,0.08138 -0.0301,0.1256 -0.0379,0.03608 -0.15992,0.04669 l -0.17089,0.01485 q -0.23599,0.0205 -0.22892,0.10188 0.002,0.02441 0.0131,0.05626 0.0191,0.03114 0.0403,0.08668 0.0287,0.0467 0.0485,0.08598 l 0.29078,0.704451 q 0.19774,0.482961 0.50726,1.30877 0.0966,0.262178 0.17795,0.255108 0.0814,-0.0071 0.14755,-0.283389 z" />
    <path
       id="path2110"
       style="fill:#502d16;stroke-width:0.437586"
       d="m 257.14586,26.364854 -0.27759,0.838037 -0.0528,0.183792 q 0.004,0.05704 0.26471,0.03896 l 0.73339,-0.05086 q 0.23631,-0.01639 0.23235,-0.07343 -0.002,-0.02445 -0.0695,-0.175316 l -0.33945,-0.762499 q -0.0295,-0.07164 -0.0804,-0.215494 -0.0428,-0.144417 -0.0526,-0.168298 -0.10127,-0.279554 -0.15016,-0.276163 -0.0489,0.0034 -0.11762,0.311108 -0.007,0.01686 -0.0194,0.07503 -0.0123,0.05817 -0.0317,0.133205 -0.0118,0.06632 -0.0393,0.141918 z m -0.28378,3.818857 -2.46091,0.170647 q -0.15482,0.01074 -0.19024,-0.02775 -0.0273,-0.03905 -0.0386,-0.202022 l -0.0435,-0.62745 q -0.01,-0.138528 0.0283,-0.182097 0.0455,-0.05228 0.18403,-0.06189 l 0.45633,-0.03164 q 0.0652,-0.0045 0.11408,-0.0079 0.0489,-0.0034 0.0804,-0.02195 0.0396,-0.01912 0.0559,-0.02025 0.0239,-0.0098 0.0461,-0.04413 0.0216,-0.04244 0.0211,-0.05059 0.008,-0.0087 0.0281,-0.06745 0.0199,-0.06688 0.0269,-0.08375 l 1.61594,-4.680895 q 0.006,-0.02501 0.0264,-0.0919 0.0275,-0.0756 0.0351,-0.08431 0.008,-0.0087 0.0292,-0.05115 0.0211,-0.05059 0.0455,-0.05228 0.0239,-0.0098 0.0635,-0.02897 0.0396,-0.01912 0.0885,-0.02251 0.0565,-0.0121 0.13796,-0.01776 l 1.02674,-0.0712 q 0.10593,-0.0073 0.17168,-0.0037 0.0739,0.0031 0.11804,0.04913 0.0523,0.0455 0.0621,0.06938 0.0174,0.01517 0.0568,0.110692 0.0475,0.09496 0.0579,0.126989 l 2.1336,4.437266 q 0.0579,0.126988 0.10093,0.156758 0.0506,0.02106 0.22986,0.0086 l 0.45633,-0.03164 q 0.13853,-0.0096 0.18266,0.03646 0.0517,0.03735 0.0613,0.175881 l 0.0424,0.611153 q 0.013,0.18742 -0.0249,0.230989 -0.0385,0.03542 -0.25035,0.05011 l -3.4632,0.240149 q -0.16297,0.0113 -0.20654,-0.02662 -0.036,-0.04663 -0.0501,-0.250349 l -0.0396,-0.570409 q -0.0102,-0.146677 0.0359,-0.190811 0.0455,-0.05228 0.19218,-0.06245 l 0.52152,-0.03616 q 0.11408,-0.0079 0.11069,-0.0568 -0.003,-0.04889 -0.0411,-0.11997 l -0.117,-0.270275 q -0.0492,-0.119406 -0.0911,-0.132878 -0.0424,-0.02162 -0.21356,-0.0098 l -1.62974,0.113011 q -0.14668,0.01017 -0.18573,0.03744 -0.0315,0.01856 -0.0649,0.127316 l -0.0679,0.20122 q -0.0679,0.201219 -0.0674,0.209368 0.005,0.06519 0.24898,0.04824 l 0.19557,-0.01356 q 0.17113,-0.01187 0.21413,0.0179 0.0512,0.0292 0.0625,0.192178 l 0.0446,0.643748 q 0.0107,0.154825 -0.019,0.197829 -0.0222,0.03429 -0.14442,0.04277 z" />
    <path
       id="path2112"
       style="fill:#502d16;stroke-width:0.437586"
       d="m 265.15384,24.606897 -0.12235,0.0065 q -0.1876,0.01 -0.23099,-0.03678 -0.0438,-0.05493 -0.0564,-0.29147 l -0.0195,-0.367053 q -0.0143,-0.269171 0.0316,-0.328874 0.0455,-0.06786 0.24938,-0.07872 l 1.68029,-0.08947 q 0.39968,-0.02128 0.54954,0.028 0.14986,0.04928 0.34832,0.243208 l 2.3287,2.256337 q 0.0606,0.06221 0.14779,0.163907 0.0954,0.10126 0.14691,0.147594 0.0516,0.04633 0.0842,0.0446 0.0816,-0.0043 0.0551,-0.501902 l -0.066,-1.239821 q -0.009,-0.163134 -0.0512,-0.19359 -0.0344,-0.03089 -0.23013,-0.02047 l -0.34258,0.01824 q -0.21208,0.01129 -0.25503,-0.02732 -0.0352,-0.0472 -0.0474,-0.275591 l -0.0278,-0.52203 q -0.009,-0.171291 0.0458,-0.215115 0.0626,-0.05241 0.2992,-0.06501 L 271.8736,23.1448 q 0.22023,-0.01173 0.25503,0.02732 0.0425,0.03045 0.0543,0.250687 l 0.0182,0.342582 q 0.003,0.0571 0.016,0.146386 0.0129,0.08929 0.0147,0.121917 0.005,0.09788 -0.0411,0.149427 -0.0463,0.05155 -0.185,0.05893 l -0.39152,0.02085 q -0.15498,0.0083 -0.20175,0.05164 -0.0472,0.03523 -0.0416,0.14127 0.001,0.02447 0.005,0.09788 0.0121,0.07298 0.0142,0.11376 l 0.21238,3.988633 q 0.004,0.07341 0.0199,0.219797 0.0241,0.145953 0.0276,0.211206 0.0174,0.326269 -0.2518,0.340602 l -0.31811,0.01694 q -0.0897,0.0048 -0.15541,9.6e-5 -0.0653,0.0035 -0.13138,-0.0094 -0.0575,-0.0051 -0.0987,-0.0111 -0.0326,0.0017 -0.0833,-0.02828 -0.0503,-0.02186 -0.067,-0.02915 -0.0168,-0.0073 -0.0679,-0.04547 -0.0434,-0.04677 -0.0601,-0.05406 -0.009,-0.01588 -0.0692,-0.06994 -0.0524,-0.06265 -0.0696,-0.07809 l -3.08785,-3.148417 q -0.0515,-0.04633 -0.13017,-0.140306 -0.0709,-0.102562 -0.12244,-0.148897 -0.052,-0.05449 -0.0846,-0.05275 -0.0734,0.0039 -0.0543,0.362804 l 0.11075,2.079962 q 0.0143,0.269172 0.0577,0.315941 0.0515,0.04633 0.29625,0.0333 l 0.37521,-0.01998 q 0.14682,-0.0078 0.18978,0.0308 0.0507,0.03002 0.0559,0.127901 8.6e-4,0.01631 -0.004,0.082 0.003,0.06525 0.006,0.114194 l 0.0196,0.367052 q 0.0135,0.252858 -0.0324,0.312561 -0.0377,0.05927 -0.2335,0.06969 l -2.39808,0.127691 q -0.13051,0.0069 -0.17389,-0.03982 -0.0438,-0.05493 -0.0538,-0.24253 l -0.0313,-0.587284 q -0.009,-0.163134 0.0145,-0.188907 0.0309,-0.03436 0.19403,-0.04305 l 0.31811,-0.01694 q 0.21207,-0.01129 0.25884,-0.05468 0.0549,-0.04382 0.0467,-0.198802 l -0.17329,-3.254529 q -0.0165,-0.309955 -0.0848,-0.363578 -0.0601,-0.05406 -0.40272,-0.03581 z" />
    <path
       id="path2114"
       style="fill:#502d16;stroke-width:0.437586"
       d="m 280.1922,28.930518 -2.88122,0.112029 q -0.0653,0.0025 -0.16324,0.0063 -0.0895,0.01165 -0.12212,0.01292 -0.14691,0.0057 -0.20659,-0.05736 -0.0518,-0.07156 -0.0601,-0.283769 l -0.02,-0.514213 q -0.006,-0.163242 0.0247,-0.205322 0.0311,-0.04208 0.14533,-0.04652 l 0.35914,-0.01396 q 0.30199,-0.01174 0.36539,-0.06325 0.0712,-0.05999 0.0627,-0.280367 l -0.13297,-3.419921 q -0.006,-0.15508 -0.0315,-0.178615 -0.0258,-0.0317 -0.18083,-0.02567 -0.52238,0.02031 -0.74394,0.208764 -0.21339,0.188135 -0.25148,0.680082 -0.006,0.04929 -0.002,0.147236 l 0.006,0.15508 q 0.004,0.114269 -0.009,0.188363 -0.0138,0.06593 -0.0932,0.12624 -0.0716,0.05183 -0.21031,0.05722 l -0.44076,0.01714 q -0.15508,0.006 -0.20532,-0.02471 -0.0424,-0.03922 -0.0465,-0.145331 -9.5e-4,-0.02449 -0.003,-0.08978 0.005,-0.07378 0.003,-0.122749 l -0.0733,-1.885446 q -0.007,-0.187728 0.0316,-0.238288 0.0386,-0.05872 0.16919,-0.0638 l 5.68082,-0.220885 q 0.26119,-0.01015 0.3039,0.03723 0.0509,0.04707 0.0614,0.316418 l 0.0647,1.665069 q 0.003,0.0653 0.006,0.163242 0.012,0.09763 0.0132,0.130276 0.005,0.138756 -0.0577,0.19843 -0.0552,0.05119 -0.26744,0.05945 l -0.31833,0.01238 q -0.13059,0.0051 -0.20468,-0.0084 -0.0659,-0.01379 -0.1008,-0.06965 -0.0349,-0.05587 -0.0446,-0.09636 -0.002,-0.04897 -0.006,-0.163242 -0.004,-0.114269 -0.0155,-0.187411 -0.0709,-0.56128 -0.30735,-0.756447 -0.22831,-0.195484 -0.77517,-0.17422 -0.13059,0.0051 -0.1695,0.05564 -0.0307,0.05024 -0.026,0.172674 l 0.12536,3.22403 q 0.003,0.0653 -0.002,0.163559 0.003,0.08978 0.005,0.122432 0.005,0.122432 0.0641,0.177345 0.059,0.04675 0.23044,0.04009 l 0.43259,-0.01682 q 0.18773,-0.0073 0.23045,0.04009 0.0427,0.04739 0.0522,0.292249 l 0.0143,0.367295 q 0.0102,0.261187 -0.0363,0.328388 -0.0464,0.0672 -0.24233,0.07482 z" />
    <path
       id="path2116"
       style="fill:#502d16;stroke-width:0.437586"
       d="m 294.44377,28.551966 -2.88289,0.05411 q -0.0653,0.0012 -0.16333,0.0031 -0.0897,0.0099 -0.12235,0.01047 -0.14701,0.0028 -0.2054,-0.0615 -0.0504,-0.07258 -0.0544,-0.284919 l -0.01,-0.51451 q -0.003,-0.163337 0.0288,-0.204784 0.0319,-0.04145 0.14624,-0.04359 l 0.35934,-0.0067 q 0.30217,-0.0057 0.36659,-0.0559 0.0724,-0.05855 0.0683,-0.279052 l -0.0642,-3.421902 q -0.003,-0.15517 -0.0279,-0.179211 -0.0251,-0.03221 -0.18028,-0.0293 -0.52268,0.0098 -0.74798,0.193772 -0.21713,0.183808 -0.2651,0.674891 -0.007,0.04915 -0.005,0.147156 l 0.003,0.15517 q 0.002,0.114336 -0.0128,0.188144 -0.0151,0.06564 -0.0957,0.124342 -0.0726,0.05038 -0.21142,0.05299 l -0.441,0.0083 q -0.15517,0.0029 -0.20479,-0.02884 -0.0416,-0.04007 -0.0436,-0.146236 -4.6e-4,-0.0245 -0.002,-0.08984 0.007,-0.07365 0.006,-0.122656 l -0.0354,-1.886538 q -0.004,-0.187837 0.0364,-0.237605 0.0398,-0.05793 0.17043,-0.06039 l 5.68412,-0.106681 q 0.26134,-0.0049 0.30309,0.04333 0.0499,0.04808 0.055,0.317587 l 0.0313,1.666034 q 10e-4,0.06533 0.003,0.163336 0.01,0.09785 0.0106,0.130516 0.003,0.138836 -0.0617,0.19723 -0.0562,0.05007 -0.26859,0.05406 l -0.31851,0.006 q -0.13067,0.0025 -0.20447,-0.0125 -0.0656,-0.01511 -0.0994,-0.07166 -0.0337,-0.05655 -0.0427,-0.09724 -9.2e-4,-0.049 -0.003,-0.163337 -0.002,-0.114336 -0.0117,-0.187684 -0.0596,-0.562591 -0.29208,-0.762471 -0.22433,-0.200032 -0.77151,-0.189762 -0.13067,0.0025 -0.17058,0.05222 -0.0317,0.04961 -0.0294,0.172117 l 0.0605,3.225899 q 10e-4,0.06533 -0.005,0.16349 0.002,0.08984 0.002,0.122502 0.002,0.122502 0.0605,0.178597 0.0581,0.04793 0.22959,0.04471 l 0.43284,-0.0081 q 0.18784,-0.0035 0.22959,0.04471 0.0418,0.04823 0.0464,0.29324 l 0.007,0.367507 q 0.005,0.261339 -0.0429,0.327593 -0.0478,0.06625 -0.24378,0.06993 z" />
    <path
       id="path2118"
       style="fill:#502d16;stroke-width:0.437586"
       d="m 300.05833,27.750969 q -0.91963,-0.885399 -0.92742,-2.331162 -0.008,-1.445763 0.90224,-2.341021 0.9182,-0.895302 2.51099,-0.903884 1.59279,-0.0086 2.51242,0.876817 0.9278,0.885355 0.93559,2.331117 0.008,1.437595 -0.93492,2.341197 -0.93454,0.89539 -2.47832,0.903709 -1.59279,0.0086 -2.52058,-0.876773 z m 2.49154,-4.514208 q -1.30691,0.007 -1.29525,2.171603 0.0117,2.16456 1.31857,2.157518 0.7188,-0.0039 1.0099,-0.552724 0.29107,-0.557019 0.28534,-1.618878 -0.0117,-2.16456 -1.31856,-2.157519 z" />
    <path
       id="path2120"
       style="fill:#502d16;stroke-width:0.437586"
       d="m 318.44038,25.038273 3.41391,0.05387 q 0.0817,0.0013 0.10566,0.03434 0.0322,0.03318 0.0301,0.16386 l -0.0103,0.65338 q -0.003,0.171513 -0.036,0.211833 -0.0333,0.04032 -0.15582,0.03839 l -0.37569,-0.0059 q -0.0327,-5.16e-4 -0.0817,-0.0013 -0.0407,-0.0088 -0.057,-0.0091 -0.11434,-0.0018 -0.11666,0.145206 l -0.004,0.261352 q -0.005,0.285854 -0.11417,0.504694 -0.35424,0.705139 -1.12139,1.175021 -0.75887,0.461844 -1.86145,0.444446 -1.53544,-0.02423 -2.49355,-0.913462 -0.94982,-0.89727 -0.92662,-2.367376 0.0218,-1.380266 0.97558,-2.288345 0.95379,-0.908078 2.4239,-0.884881 0.87389,0.01379 1.47196,0.423522 0.0323,0.02502 0.0644,0.0582 0.0404,0.02515 0.0646,0.05003 0.0242,0.01672 0.0485,0.03344 0.0244,0.0086 0.0407,0.0088 0.0572,9.02e-4 0.12393,-0.08791 l 0.13325,-0.161283 q 0.10007,-0.12913 0.14933,-0.144691 0.0576,-0.0236 0.18007,-0.02167 l 0.53087,0.0084 q 0.15518,0.0024 0.17916,0.0355 0.0322,0.03318 0.0295,0.204697 l -0.0266,1.682454 q -0.003,0.204181 -0.0447,0.244373 -0.0333,0.04032 -0.22116,0.03736 l -0.59621,-0.0094 q -0.17151,-0.0027 -0.24463,-0.02837 -0.0731,-0.02566 -0.0971,-0.05872 -0.024,-0.03306 -0.0871,-0.17293 -0.23677,-0.526571 -0.6003,-0.785555 -0.35536,-0.258856 -0.91074,-0.267619 -0.65338,-0.01031 -1.05443,0.555211 -0.39288,0.565651 -0.40925,1.602892 -0.0165,1.045408 0.31738,1.630696 0.34204,0.585417 0.95459,0.595083 0.77589,0.01224 1.0797,-0.603829 0.11834,-0.25138 0.12246,-0.512732 l 0.003,-0.212349 q 0.002,-0.138843 -0.03,-0.172028 -0.024,-0.03306 -0.11382,-0.03447 l -0.75139,-0.01186 q -0.20418,-0.0032 -0.2445,-0.03654 -0.0402,-0.04148 -0.0372,-0.229328 l 6.4e-4,-0.04084 0.009,-0.571708 q 0.002,-0.14701 0.0356,-0.187331 0.0416,-0.04836 0.13961,-0.04681 0.0163,2.58e-4 0.0815,0.0095 0.0653,0.001 0.11434,0.0018 z" />
    <path
       id="path2122"
       style="fill:#502d16;stroke-width:0.437586"
       d="m 325.77752,27.977209 q -0.8876,-0.917504 -0.84403,-2.362631 0.0436,-1.445127 0.98482,-2.307498 0.94942,-0.862125 2.54151,-0.81413 1.59209,0.048 2.47969,0.965498 0.89577,0.91775 0.85221,2.362877 -0.0433,1.436963 -1.01748,2.306514 -0.96576,0.861632 -2.50886,0.815114 -1.59209,-0.048 -2.48786,-0.965744 z m 2.6503,-4.422866 q -1.30632,-0.03938 -1.37155,2.124228 -0.0652,2.163609 1.24111,2.202989 0.71848,0.02166 1.02889,-0.516506 0.31066,-0.546329 0.34266,-1.607722 0.0652,-2.163609 -1.24111,-2.202989 z" />
    <path
       id="path2124"
       style="fill:#502d16;stroke-width:0.437586"
       d="m 343.21423,24.579694 -0.0501,0.946195 q -0.006,0.114195 0.033,0.148982 0.0391,0.03479 0.21036,0.04385 l 1.71293,0.09067 q 0.15498,0.0082 0.19836,-0.03858 0.0434,-0.04678 0.0546,-0.258861 l 0.0432,-0.815685 q 0.007,-0.138666 -0.0231,-0.181178 -0.0305,-0.04251 -0.12835,-0.04769 l -0.416,-0.02202 q -0.16313,-0.0086 -0.20262,-0.03526 -0.0309,-0.03435 -0.0244,-0.156707 l 0.0376,-0.709646 q 0.007,-0.13051 0.0417,-0.169567 0.0348,-0.03906 0.12451,-0.03431 l 3.31168,0.175289 q 0.0979,0.0052 0.12835,0.04769 0.0305,0.04251 0.0227,0.189334 l -0.0376,0.709646 q -0.005,0.09788 -0.0477,0.128351 -0.0425,0.03047 -0.18934,0.0227 l -0.49757,-0.02634 q -0.11419,-0.006 -0.14898,0.03301 -0.0262,0.03133 -0.0348,0.194469 l -0.1822,3.442192 q -0.009,0.17945 0.0214,0.213805 0.0313,0.0262 0.19446,0.03483 l 0.48942,0.02591 q 0.11419,0.006 0.14466,0.04856 0.0305,0.04251 0.0214,0.213805 l -0.0259,0.489411 q -0.003,0.04894 -0.006,0.114196 0.005,0.05753 0.004,0.07384 -0.005,0.09788 -0.0563,0.136076 -0.0425,0.03047 -0.18933,0.0227 l -3.1567,-0.167086 q -0.17945,-0.0095 -0.21035,-0.04385 -0.0309,-0.03435 -0.0205,-0.230119 l 0.0337,-0.636234 q 0.007,-0.138667 0.0335,-0.169999 0.0344,-0.0309 0.13224,-0.02572 l 0.42415,0.02245 q 0.16314,0.0086 0.19706,-0.01411 0.0425,-0.03047 0.0494,-0.160979 l 0.0613,-1.158273 q 0.007,-0.130509 -0.0317,-0.173452 -0.0305,-0.04251 -0.11203,-0.04683 -0.0245,-0.0013 -0.082,0.0038 -0.0571,-0.003 -0.0979,-0.0052 l -1.59874,-0.08462 q -0.18761,-0.0099 -0.23012,0.02054 -0.0425,0.03047 -0.0498,0.169135 l -0.0583,1.101175 q -0.009,0.171294 0.0296,0.214237 0.0472,0.03522 0.2593,0.04644 l 0.30996,0.01641 q 0.13866,0.0073 0.17,0.03354 0.0313,0.0262 0.0257,0.132236 l -0.0406,0.766744 q -0.006,0.122353 -0.0408,0.153254 -0.0339,0.02274 -0.1889,0.01454 l -3.17302,-0.167949 q -0.16314,-0.0086 -0.20176,-0.05158 -0.03,-0.05067 -0.0192,-0.254589 l 0.0341,-0.644392 q 0.006,-0.106039 0.0477,-0.128351 0.0425,-0.03047 0.18933,-0.0227 l 0.40784,0.02159 q 0.1713,0.0091 0.21381,-0.0214 0.0511,-0.03819 0.0571,-0.152389 l 0.18652,-3.52376 q 0.007,-0.138667 -0.0236,-0.173021 -0.0227,-0.03392 -0.11247,-0.03867 l -0.52204,-0.02763 q -0.16314,-0.0086 -0.19404,-0.04299 -0.0305,-0.04251 -0.0201,-0.238276 l 0.0294,-0.554666 q 0.01,-0.187607 0.0447,-0.226665 0.0352,-0.04721 0.17388,-0.03987 l 3.23827,0.171403 q 0.12236,0.0065 0.15239,0.05714 0.0305,0.04251 0.0214,0.213806 l -0.0354,0.668861 q -0.006,0.114196 -0.0404,0.145097 -0.0339,0.02274 -0.1889,0.01454 l -0.43231,-0.02288 q -0.10604,-0.0056 -0.14083,0.03344 -0.0262,0.03133 -0.034,0.178156 z" />
    <path
       id="path2126"
       style="fill:#502d16;stroke-width:0.437586"
       d="m 352.23516,29.183596 q -0.85164,-0.950976 -0.75251,-2.393357 0.0991,-1.442381 1.07288,-2.267897 0.98189,-0.824955 2.57096,-0.715737 1.58906,0.109218 2.44071,1.060194 0.85979,0.951537 0.76065,2.393917 -0.0986,1.434232 -1.10547,2.265657 -0.99819,0.823835 -2.53836,0.717977 -1.58907,-0.109218 -2.44886,-1.060754 z m 2.81852,-4.317615 q -1.30385,-0.08962 -1.45228,2.069882 -0.14842,2.159497 1.15543,2.249112 0.71711,0.04929 1.04801,-0.476535 0.33145,-0.533972 0.40426,-1.593348 0.14842,-2.159496 -1.15542,-2.249111 z" />
    <path
       id="path2128"
       style="fill:#502d16;stroke-width:0.437586"
       d="m 362.49387,25.614604 -0.41504,-0.03587 q -0.14648,-0.01266 -0.19109,-0.0657 -0.0439,-0.06119 -0.0348,-0.166979 0.003,-0.03255 0.0187,-0.121365 0.0166,-0.09695 0.0215,-0.153918 l 0.0295,-0.341794 q 0.0148,-0.170896 0.0597,-0.216208 0.0449,-0.04531 0.15884,-0.03547 l 2.7669,0.2391 q 0.0895,0.0077 0.15462,0.01336 0.0732,0.0063 0.1288,0.02753 0.0637,0.0219 0.0955,0.03285 0.0326,0.0028 0.0616,0.04631 0.0379,0.03607 0.0534,0.04561 0.0163,0.0014 0.0351,0.06862 0.0188,0.06721 0.0255,0.08419 0.007,0.0088 0.0234,0.108606 0.0248,0.09233 0.0308,0.117447 l 0.30674,1.289108 q 0.18155,0.745374 0.24836,1.300462 0.0714,0.59648 0.15282,0.603512 0.0732,0.0063 0.26754,-0.534392 0.21831,-0.628833 0.50846,-1.235061 l 0.65274,-1.386567 q 0.11061,-0.236403 0.19621,-0.278198 0.0937,-0.04109 0.4274,-0.01226 l 2.09958,0.181435 q 0.057,0.0049 0.14649,0.01266 0.0984,3.01e-4 0.13091,0.0031 0.10579,0.0091 0.1504,0.06219 0.0446,0.05305 0.0312,0.207668 l -0.038,0.439449 q -0.004,0.04883 -0.0106,0.122069 0.003,0.06581 4e-4,0.09022 -0.0105,0.122069 -0.071,0.157836 -0.0523,0.03647 -0.23951,0.0203 l -0.19531,-0.01688 q -0.24414,-0.0211 -0.31206,0.0058 -0.0598,0.02763 -0.0724,0.174112 -0.002,0.02441 -0.008,0.09765 0.003,0.06581 -10e-4,0.106497 l -0.16816,3.084581 q -0.0111,0.318786 0.026,0.362992 0.0602,0.06259 0.32059,0.08509 l 0.1709,0.01477 q 0.0488,0.0042 0.12207,0.01055 0.0739,-0.0018 0.0984,3.01e-4 0.17089,0.01477 0.15331,0.218217 l -0.0542,0.626621 q -0.0162,0.187173 -0.0773,0.231078 -0.0605,0.03577 -0.31276,0.01397 l -2.88083,-0.248946 q -0.21973,-0.01899 -0.25761,-0.05505 -0.029,-0.0435 -0.01,-0.263227 l 0.0295,-0.341794 q 0.004,-0.04883 0.003,-0.13091 0.007,-0.08138 0.01,-0.113931 0.0105,-0.122069 0.0717,-0.165974 0.0612,-0.0439 0.24835,-0.02773 l 0.38249,0.03305 q 0.11393,0.0098 0.14929,-0.01989 0.0354,-0.02974 0.0459,-0.151808 l 0.005,-0.05697 0.0964,-1.590415 q 0.0158,-0.277393 0.0643,-0.838911 l 0.0317,-0.366207 q 0.0387,-0.447587 -0.0183,-0.45251 -0.057,-0.0049 -0.21379,0.481647 -0.2151,0.686501 -0.39815,1.097016 l -1.13187,2.566772 q -0.13251,0.3001 -0.20183,0.343301 -0.10469,0.07294 -0.47904,0.04059 l -0.3662,-0.03165 q -0.29297,-0.02532 -0.35385,-0.07977 -0.0616,-0.04632 -0.11514,-0.280507 l -0.78146,-3.101053 q -0.0603,-0.251171 -0.18949,-1.033015 -0.0813,-0.482549 -0.12197,-0.486065 -0.0244,-0.0021 -0.0615,0.142263 -0.0289,0.145077 -0.0656,0.379671 -0.0278,0.227159 -0.0542,0.438042 -0.0176,0.203449 -0.0447,0.42247 -0.0264,0.210883 -0.0285,0.235297 l -0.21952,1.686363 q -0.001,0.01628 -0.0117,0.03999 -0.002,0.02441 -0.003,0.03255 -0.0112,0.130207 0.0266,0.166275 0.0379,0.03607 0.15181,0.04591 l 0.48828,0.04219 q 0.15462,0.01336 0.19249,0.04943 0.0379,0.03607 0.0287,0.141861 l -0.0612,0.708001 q -0.012,0.138345 -0.0731,0.18225 -0.053,0.04461 -0.15884,0.03547 -0.0407,-0.0035 -0.13764,-0.02009 -0.097,-0.01658 -0.15392,-0.0215 l -1.95311,-0.168777 q -0.0651,-0.0056 -0.16276,-0.01407 -0.0902,4.03e-4 -0.12277,-0.0024 -0.12207,-0.01055 -0.17411,-0.07244 -0.0439,-0.06119 -0.0277,-0.248358 l 0.0443,-0.51269 q 0.0183,-0.211586 0.0543,-0.249463 0.0442,-0.03717 0.23138,-0.021 l 0.42318,0.03657 q 0.20344,0.01758 0.23881,-0.01216 0.0435,-0.02904 0.0692,-0.231781 l 0.44727,-3.183443 q 0.004,-0.04883 0.0201,-0.137642 0.0247,-0.09625 0.0282,-0.136938 0.0141,-0.162759 -0.22193,-0.183153 z" />
    <path
       id="path2130"
       style="fill:#502d16;stroke-width:0.437586"
       d="m 374.8582,26.737607 -0.38183,-0.03991 q -0.19498,-0.02038 -0.24033,-0.05797 -0.0445,-0.04571 -0.0292,-0.191947 l 0.0679,-0.649922 q 0.0153,-0.146232 0.052,-0.183456 0.0367,-0.03722 0.13423,-0.02704 l 5.80056,0.60621 q 0.18685,0.01953 0.2151,0.06354 0.0283,0.04402 0.006,0.255241 l -0.19019,1.819781 q -0.003,0.0325 -0.009,0.08937 0.003,0.04959 0.001,0.06584 -0.008,0.07312 -0.0435,0.102216 -0.035,0.02098 -0.14878,0.0091 l -0.61742,-0.06453 q -0.0812,-0.0085 -0.12914,-0.02171 -0.0398,-0.01237 -0.0723,-0.01577 -0.0316,-0.01152 -0.0437,-0.05384 -0.004,-0.04147 -0.0111,-0.05044 0.002,-0.01625 0.002,-0.09834 0.009,-0.08936 0.0127,-0.12186 0.0154,-0.540431 -0.20623,-0.777127 -0.21267,-0.24397 -0.82197,-0.307648 l -0.98301,-0.102733 q -0.2356,-0.02462 -0.25852,0.194727 l -0.11207,1.072371 q -0.0127,0.121861 -0.002,0.172303 0.0193,0.05129 0.0924,0.05893 0.0569,0.0059 0.14065,-0.0099 0.49933,-0.06279 0.69311,-0.502457 0.0222,-0.05517 0.038,-0.127437 0.0166,-0.08039 0.0281,-0.112039 0.0115,-0.03165 0.0628,-0.05092 0.0521,-0.0274 0.14963,-0.01721 l 0.28434,0.02972 q 0.18685,0.01953 0.23135,0.06524 0.0535,0.03844 0.0365,0.20092 l -0.23348,2.234107 q -0.0178,0.170604 -0.0789,0.205281 -0.0611,0.03468 -0.29671,0.01006 l -0.24372,-0.02547 q -0.0894,-0.0093 -0.13556,-0.03881 -0.0381,-0.02862 -0.0428,-0.06196 -0.005,-0.03335 -0.005,-0.10731 0.008,-0.07312 -0.004,-0.123559 -0.0769,-0.443309 -0.44983,-0.646543 -0.17109,-0.09179 -0.24421,-0.09944 -0.12998,-0.01358 -0.15375,0.213888 l -0.11887,1.137364 q -0.0136,0.129984 0.0228,0.174849 0.0364,0.04487 0.12574,0.05421 0.0244,0.0025 0.0894,0.0093 0.074,-4.82e-4 0.1227,0.0046 l 0.75554,0.07896 q 0.73929,0.07726 1.02812,-0.171786 0.29781,-0.256323 0.3952,-0.952442 0.0285,-0.194127 0.0734,-0.230502 0.0457,-0.0445 0.19194,-0.02922 l 0.62555,0.06538 q 0.12999,0.01358 0.16636,0.05845 0.0372,0.03674 0.0287,0.117981 -0.003,0.02437 -0.0166,0.08039 -0.006,0.05687 -0.0102,0.09749 l -0.20546,1.966014 q -0.0255,0.243721 -0.0793,0.28737 -0.0457,0.0445 -0.26507,0.02158 l -5.80867,-0.607059 q -0.11374,-0.01189 -0.14199,-0.0559 -0.0283,-0.04402 -0.0113,-0.206496 l 0.0679,-0.649922 q 0.0144,-0.138109 0.0422,-0.168058 0.0278,-0.02995 0.12526,-0.01976 l 0.48744,0.05094 q 0.18685,0.01953 0.22275,-0.0096 0.044,-0.02825 0.061,-0.190731 l 0.35745,-3.420215 q 0.0187,-0.178728 -0.0104,-0.21462 -0.0283,-0.04402 -0.1826,-0.06015 z" />
  </g>
</svg>
