<?xml version="1.0" encoding="UTF-8" standalone="no"?>
<svg
   xmlns:dc="http://purl.org/dc/elements/1.1/"
   xmlns:cc="http://creativecommons.org/ns#"
   xmlns:rdf="http://www.w3.org/1999/02/22-rdf-syntax-ns#"
   xmlns:svg="http://www.w3.org/2000/svg"
   xmlns="http://www.w3.org/2000/svg"
   xmlns:sodipodi="http://sodipodi.sourceforge.net/DTD/sodipodi-0.dtd"
   xmlns:inkscape="http://www.inkscape.org/namespaces/inkscape"
   inkscape:version="1.0beta1 (1:0.92.0+devel+201911251127+a87f16c)"
   sodipodi:docname="logo.svg"
   version="1.1"
   id="svg2"
   width="734.40002"
   height="64.959999"
   viewBox="0 0 734.40002 64.959999">
  <sodipodi:namedview
     inkscape:current-layer="svg2"
     inkscape:window-maximized="0"
     inkscape:window-y="30"
     inkscape:window-x="0"
     inkscape:cy="32.48"
     inkscape:cx="367.20001"
     inkscape:zoom="1.9131263"
     showgrid="false"
     id="namedview26"
     inkscape:window-height="480"
     inkscape:window-width="792"
     inkscape:pageshadow="2"
     inkscape:pageopacity="0"
     guidetolerance="10"
     gridtolerance="10"
     objecttolerance="10"
     borderopacity="1"
     inkscape:document-rotation="0"
     bordercolor="#666666"
     pagecolor="#ffffff" />
  <metadata
     id="metadata8">
    <rdf:RDF>
      <cc:Work
         rdf:about="">
        <dc:format>image/svg+xml</dc:format>
        <dc:type
           rdf:resource="http://purl.org/dc/dcmitype/StillImage" />
        <dc:title />
      </cc:Work>
    </rdf:RDF>
  </metadata>
  <defs
     id="defs6" />
  <g
     style="fill:#502d16"
     id="g10">
    <g
       style="font-style:normal;font-variant:normal;font-weight:900;font-stretch:normal;font-size:12.0263px;line-height:1.25;font-family:'Besley*';-inkscape-font-specification:'Besley* Heavy';text-align:center;letter-spacing:3.96574px;word-spacing:0px;text-anchor:middle;fill:#502d16;fill-opacity:1;stroke:none;stroke-width:0.644267"
       id="text882"
       transform="matrix(2.5670561,0,0,2.5670561,-414.0106,-49.508801)"
       aria-label="THE COWBOY COLLECTIVE">
      <path
         id="path878"
         style="font-style:normal;letter-spacing:3.96574px;fill:#502d16;stroke-width:0.644267"
         d="m 170.20623,43.369461 -4.10203,1.093524 q -0.093,0.02478 -0.23241,0.06196 -0.12473,0.0457 -0.17121,0.05809 -0.20917,0.05576 -0.31529,-0.01552 -0.0976,-0.086 -0.17815,-0.38813 l -0.19516,-0.73209 q -0.062,-0.23241 -0.031,-0.302903 0.031,-0.07049 0.19368,-0.113863 l 0.5113,-0.136303 q 0.42996,-0.114619 0.50433,-0.209124 0.0829,-0.109224 -7.4e-4,-0.422977 l -1.29798,-4.86898 q -0.0589,-0.220789 -0.10301,-0.246358 -0.0472,-0.03719 -0.26804,0.02167 -0.74371,0.198259 -1.00093,0.540648 -0.24561,0.339292 -0.14108,1.058205 0.007,0.07282 0.0441,0.212266 l 0.0589,0.220789 q 0.0434,0.162687 0.048,0.273467 0.002,0.09916 -0.093,0.211481 -0.086,0.0976 -0.28355,0.150266 l -0.6275,0.167281 q -0.22079,0.05886 -0.30291,0.03096 -0.0736,-0.04261 -0.11386,-0.19368 -0.009,-0.03486 -0.0341,-0.127825 -0.0163,-0.107682 -0.0348,-0.177405 l -0.71559,-2.684331 q -0.0713,-0.267271 -0.0317,-0.352482 0.0364,-0.09683 0.22235,-0.146398 l 8.08785,-2.156069 q 0.37186,-0.09913 0.44854,-0.0449 0.0883,0.05114 0.19054,0.434612 l 0.63195,2.370578 q 0.0248,0.09296 0.062,0.232409 0.0488,0.136348 0.0612,0.18283 0.0527,0.197548 -0.0186,0.303674 -0.0628,0.09141 -0.36489,0.17195 l -0.4532,0.120814 q -0.18593,0.04957 -0.29671,0.0542 -0.0992,0.0015 -0.16732,-0.06741 -0.0682,-0.06895 -0.0953,-0.123957 -0.0186,-0.06972 -0.062,-0.23241 -0.0434,-0.162686 -0.0829,-0.264173 -0.28347,-0.783226 -0.68628,-0.987 -0.3912,-0.206871 -1.16977,6.82e-4 -0.18593,0.04957 -0.22545,0.134777 -0.0279,0.08211 0.0186,0.256421 l 1.22364,4.590089 q 0.0248,0.09296 0.0503,0.235507 0.0341,0.127826 0.0465,0.174308 0.0465,0.174307 0.14949,0.233965 0.0999,0.04804 0.34396,-0.01702 l 0.61589,-0.164184 q 0.26727,-0.07125 0.34396,-0.01702 0.0767,0.05423 0.16962,0.402848 l 0.1394,0.522922 q 0.0991,0.371855 0.0542,0.483406 -0.0449,0.11155 -0.32383,0.185897 z" />
      <path
         id="path880"
         style="font-style:normal;letter-spacing:3.96574px;fill:#502d16;stroke-width:0.644267"
         d="m 179.39308,33.888045 0.29993,1.362426 q 0.0362,0.164431 0.10527,0.198483 0.0691,0.03405 0.31571,-0.02025 l 2.46646,-0.542986 q 0.22316,-0.04913 0.26637,-0.132526 0.0432,-0.0834 -0.024,-0.38877 l -0.25857,-1.174505 q -0.044,-0.199666 -0.10386,-0.248049 -0.0599,-0.04838 -0.20085,-0.01736 l -0.599,0.131868 q -0.2349,0.05171 -0.30138,0.02941 -0.0573,-0.03664 -0.0961,-0.212813 l -0.22495,-1.02182 q -0.0414,-0.187921 -0.007,-0.256989 0.0341,-0.06907 0.16325,-0.09751 l 4.76849,-1.049773 q 0.14094,-0.03103 0.20085,0.01735 0.0599,0.04838 0.10645,0.259794 l 0.22495,1.02182 q 0.031,0.140941 -0.0174,0.200849 -0.0484,0.05991 -0.2598,0.10645 l -0.71645,0.157725 q -0.16443,0.0362 -0.19848,0.105267 -0.0249,0.05474 0.0268,0.289638 l 1.09114,4.956413 q 0.0569,0.258391 0.11421,0.295029 0.0547,0.02489 0.28964,-0.02682 l 0.7047,-0.155139 q 0.16443,-0.0362 0.22434,0.01218 0.0599,0.04838 0.11421,0.295029 l 0.15514,0.704703 q 0.0155,0.07047 0.0362,0.164431 0.0298,0.07963 0.035,0.10312 0.031,0.140941 -0.0265,0.21518 -0.0484,0.05991 -0.25979,0.10645 l -4.54534,1.000646 q -0.25839,0.05689 -0.31571,0.02025 -0.0573,-0.03664 -0.11938,-0.318519 l -0.20168,-0.916114 q -0.044,-0.199666 -0.0191,-0.254403 0.0366,-0.05732 0.17758,-0.08835 l 0.61074,-0.134454 q 0.23491,-0.05171 0.27413,-0.09729 0.0484,-0.05991 0.007,-0.24783 l -0.36716,-1.667798 q -0.0414,-0.18792 -0.11303,-0.233718 -0.0599,-0.04838 -0.17735,-0.02253 -0.0352,0.0078 -0.11487,0.0376 -0.0822,0.0181 -0.14094,0.03103 l -2.30203,0.506787 q -0.27014,0.05947 -0.31852,0.119378 -0.0484,0.05991 -0.004,0.259575 l 0.34907,1.585582 q 0.0543,0.246646 0.12595,0.292443 0.0808,0.03147 0.38618,-0.03576 l 0.44631,-0.09826 q 0.19967,-0.04396 0.25441,-0.01906 0.0547,0.02489 0.0884,0.177578 l 0.24305,1.104035 q 0.0388,0.176176 0.002,0.233499 -0.0392,0.04558 -0.26238,0.0947 l -4.56883,1.005817 q -0.2349,0.05171 -0.30655,0.0059 -0.0625,-0.06013 -0.12714,-0.353754 l -0.20427,-0.927859 q -0.0336,-0.152686 0.0174,-0.200849 0.0484,-0.05991 0.25979,-0.10645 l 0.58726,-0.129283 q 0.24664,-0.0543 0.29502,-0.114207 0.0576,-0.07424 0.0214,-0.23867 l -1.117,-5.073864 q -0.044,-0.199666 -0.10128,-0.236303 -0.0456,-0.03922 -0.17477,-0.01078 l -0.75169,0.165481 q -0.2349,0.05171 -0.29222,0.01508 -0.0599,-0.04838 -0.12197,-0.330264 l -0.17582,-0.798664 q -0.0595,-0.270136 -0.0254,-0.339204 0.0315,-0.08081 0.23113,-0.124769 l 4.66279,-1.026503 q 0.17618,-0.03879 0.23867,0.02134 0.0599,0.04838 0.11421,0.295029 l 0.21202,0.963094 q 0.0362,0.164431 -4.4e-4,0.221754 -0.0392,0.04558 -0.26238,0.09471 l -0.62248,0.137039 q -0.15269,0.03361 -0.18674,0.102682 -0.0249,0.05474 0.0216,0.266148 z" />
      <path
         id="path882"
         style="font-style:normal;letter-spacing:3.96574px;fill:#502d16;stroke-width:0.644267"
         d="m 192.39088,30.857528 -0.55611,0.101128 q -0.28398,0.05164 -0.36358,0.01722 -0.0817,-0.04625 -0.12048,-0.259232 l -0.17213,-0.94658 q -0.0387,-0.21298 -0.002,-0.280748 0.0366,-0.06777 0.17856,-0.09359 l 8.44823,-1.536291 q 0.27214,-0.04949 0.33023,0.0011 0.0581,0.05055 0.11403,0.358193 l 0.48197,2.650425 q 0.009,0.04733 0.0237,0.130154 0.0247,0.06884 0.029,0.09251 0.0194,0.10649 -0.0194,0.162426 -0.0409,0.0441 -0.20653,0.07423 L 199.65712,31.492 q -0.11832,0.02152 -0.19147,0.0226 -0.0613,-0.0011 -0.10864,0.0075 -0.0495,-0.0032 -0.0839,-0.05808 -0.0226,-0.05701 -0.0366,-0.06669 -0.004,-0.02367 -0.0377,-0.139836 -0.0237,-0.130155 -0.0323,-0.177484 -0.20117,-0.77017 -0.61208,-1.013259 -0.40123,-0.257072 -1.28865,-0.0957 l -1.4317,0.260352 q -0.34313,0.0624 -0.28504,0.381869 l 0.28402,1.561857 q 0.0323,0.177484 0.0689,0.244174 0.0484,0.06454 0.1549,0.04517 0.0828,-0.01506 0.19469,-0.07207 0.67981,-0.294752 0.7723,-0.996088 0.009,-0.08713 10e-4,-0.195771 -0.01,-0.120474 -0.006,-0.169955 0.003,-0.04948 0.0678,-0.09789 0.0624,-0.06024 0.20438,-0.08606 l 0.41413,-0.07531 q 0.27214,-0.04949 0.35389,-0.0032 0.0914,0.03227 0.13447,0.268913 l 0.59171,3.253869 q 0.0452,0.248478 -0.0269,0.322701 -0.0721,0.07422 -0.4152,0.136621 l -0.35497,0.06455 q -0.13015,0.02367 -0.2076,0.0011 -0.0656,-0.02474 -0.0861,-0.06992 -0.0204,-0.04518 -0.0516,-0.149516 -0.0194,-0.10649 -0.0559,-0.173181 -0.29152,-0.594834 -0.90251,-0.728199 -0.27967,-0.05915 -0.38616,-0.03979 -0.18932,0.03443 -0.12907,0.36573 l 0.30123,1.656516 q 0.0344,0.189316 0.10435,0.237719 0.0699,0.0484 0.20007,0.02473 0.0355,-0.0065 0.13016,-0.02367 0.10434,-0.0312 0.17533,-0.04411 l 1.1004,-0.200105 q 1.07674,-0.195802 1.38221,-0.666952 0.31516,-0.485134 0.16561,-1.509163 -0.0398,-0.286126 0.009,-0.356045 0.0462,-0.08175 0.25923,-0.120482 l 0.91108,-0.165679 q 0.18932,-0.03443 0.25924,0.01398 0.0678,0.03657 0.0893,0.154893 0.006,0.0355 0.01,0.120474 0.0151,0.08283 0.0258,0.141987 l 0.5207,2.863406 q 0.0645,0.354967 0.006,0.438871 -0.0463,0.08175 -0.36573,0.139847 l -8.46006,1.538442 q -0.16565,0.03012 -0.22374,-0.02043 -0.0581,-0.05055 -0.10112,-0.287199 l -0.17213,-0.94658 q -0.0366,-0.201149 -0.01,-0.254933 0.0269,-0.05378 0.16888,-0.0796 l 0.70993,-0.1291 q 0.27215,-0.04949 0.31087,-0.105424 0.0506,-0.05809 0.008,-0.294732 l -0.90585,-4.981379 q -0.0473,-0.26031 -0.10328,-0.299032 -0.0581,-0.05056 -0.2829,-0.0097 z" />
      <path
         id="path884"
         style="font-style:normal;letter-spacing:3.96574px;fill:#502d16;stroke-width:0.644267"
         d="m 223.02491,30.325748 q 0.008,1.564788 -0.97524,2.633733 -0.98438,1.05703 -2.87895,1.315959 -2.27586,0.31104 -3.84423,-0.773389 -1.56837,-1.084429 -1.86312,-3.241141 -0.27359,-2.00181 0.96034,-3.542055 1.24422,-1.553789 3.40093,-1.848544 1.06048,-0.144935 1.92019,0.283784 0.078,0.03789 0.15927,0.09961 0.0932,0.06009 0.14573,0.08933 0.0526,0.02923 0.10021,0.02272 0.0715,-0.0098 0.17273,-0.157126 l 0.20789,-0.344002 q 0.11856,-0.198275 0.51177,-0.252015 l 0.63152,-0.08631 q 0.2264,-0.03094 0.29738,0.04433 0.0694,0.06335 0.10029,0.289746 l 0.37292,2.728657 q 0.0309,0.226395 -0.0682,0.30063 -0.0991,0.07423 -0.34932,0.108432 l -1.02474,0.140049 q -0.17873,0.02443 -0.28057,-0.01021 -0.10184,-0.03463 -0.13218,-0.07904 -0.0303,-0.04441 -0.0856,-0.182506 -0.045,-0.151645 -0.0786,-0.219881 -0.71215,-1.480623 -2.21351,-1.275434 -0.95324,0.130279 -1.41119,1.042533 -0.44604,0.910626 -0.23922,2.423899 0.20681,1.513273 0.89978,2.231818 0.69297,0.718545 1.72963,0.576867 0.82217,-0.112366 1.34415,-0.644952 0.53389,-0.534214 0.61706,-1.346695 0.002,-0.07312 0.003,-0.158159 0.0108,-0.09858 0.006,-0.134328 0.007,-0.03738 0.026,-0.07638 0.0173,-0.05092 0.0514,-0.06772 0.0444,-0.03035 0.11427,-0.05203 0.0699,-0.02169 0.18902,-0.03797 l 1.12006,-0.153077 q 0.20256,-0.02768 0.26703,-8e-5 0.0747,0.01406 0.0878,0.109384 0.003,0.02383 0.009,0.241568 z" />
      <path
         id="path886"
         style="font-style:normal;letter-spacing:3.96574px;fill:#502d16;stroke-width:0.644267"
         d="m 229.19535,31.681988 q -1.48276,-1.155007 -1.71655,-3.270785 -0.23378,-2.115779 0.96105,-3.566646 1.20678,-1.452188 3.53773,-1.709746 2.33094,-0.257557 3.81371,0.89745 1.49471,1.153686 1.7285,3.269464 0.23246,2.103825 -1.00886,3.571929 -1.23069,1.45483 -3.48992,1.704462 -2.33094,0.257558 -3.82566,-0.896128 z m 2.95393,-6.993215 q -1.91257,0.211329 -1.56255,3.37902 0.35001,3.167691 2.26258,2.956362 1.05191,-0.116231 1.39375,-0.964668 0.34051,-0.860391 0.1688,-2.414352 -0.35001,-3.167691 -2.26258,-2.956362 z" />
      <path
         id="path888"
         style="font-style:normal;letter-spacing:3.96574px;fill:#502d16;stroke-width:0.644267"
         d="m 247.78435,27.005708 q 0.0604,-0.294535 0.15669,-0.592011 0.0963,-0.297477 0.1555,-0.459182 0.0702,-0.174673 0.19853,-0.523036 0.14035,-0.349344 0.19048,-0.47411 l 0.34793,-0.90932 q 0.0692,-0.186658 -0.004,-0.349562 l -0.0727,-0.150918 q -0.0577,-0.11594 -0.0947,-0.124984 -0.0379,-0.02103 -0.20573,-0.0073 l -0.55137,0.04511 q -0.19178,0.01569 -0.2686,-0.03836 -0.0648,-0.05503 -0.0766,-0.198863 -0.004,-0.04794 -0.0127,-0.155821 0.002,-0.120843 -0.004,-0.192761 l -0.051,-0.623285 q -0.0206,-0.251711 0.0224,-0.315565 0.054,-0.07682 0.23384,-0.09153 l 4.20718,-0.344213 q 0.21575,-0.01765 0.25563,0.02735 0.0519,0.04402 0.0715,0.283748 l 0.0765,0.934927 q 0.0186,0.227739 -0.0244,0.291593 -0.031,0.06287 -0.19886,0.0766 l -0.32363,0.02648 q -0.27568,0.02256 -0.26686,0.130432 0.002,0.02397 0.0318,0.09393 l 0.49263,1.154276 q 0.44981,1.073316 0.73127,1.858742 0.23863,0.704465 0.29856,0.699562 0.0599,-0.0049 0.18383,-0.702829 0.13196,-0.746852 0.41626,-1.844029 l 0.35664,-1.392692 q 0.0281,-0.09883 0.0252,-0.134791 -0.004,-0.04794 -0.19571,-0.03225 l -0.55136,0.04511 q -0.22774,0.01863 -0.29454,-0.06037 -0.0668,-0.079 -0.0874,-0.330712 l -0.0726,-0.886982 q -0.0147,-0.179794 0.0164,-0.242667 0.0421,-0.07584 0.18589,-0.08761 l 3.59588,-0.2942 q 0.16781,-0.01373 0.20867,0.04326 0.0519,0.04402 0.0705,0.271762 l 0.0569,0.695202 q 0.005,0.05993 0.0267,0.178813 0.0208,0.106896 0.0247,0.154841 0.0206,0.251711 -0.23112,0.272305 l -0.86301,0.07061 q -0.15582,0.01275 -0.2248,0.05459 -0.058,0.02888 -0.079,0.0668 -0.009,0.03694 -0.0452,0.184697 l -1.81234,7.050307 q -0.0733,0.283529 -0.14231,0.325372 -0.08,0.05481 -0.3197,0.07442 l -0.91096,0.07453 q -0.11986,0.0098 -0.20474,0.0047 -0.0729,-0.0061 -0.12575,-0.06211 -0.0519,-0.04402 -0.0768,-0.05405 -0.0139,-0.02299 -0.0587,-0.127926 -0.0458,-0.116921 -0.0607,-0.151899 l -1.12495,-2.393656 q -0.47989,-0.998456 -0.74053,-1.676987 -0.24768,-0.667526 -0.3196,-0.661642 -0.012,9.81e-4 -0.023,0.01395 -0.012,9.81e-4 -0.022,0.02593 -0.01,0.02495 -0.02,0.04991 -0.011,0.01297 -0.0311,0.06287 -0.009,0.03694 -0.0301,0.07486 -0.009,0.03694 -0.0281,0.09883 -0.007,0.06091 -0.0271,0.110818 -0.008,0.04893 -0.0372,0.135772 -0.0181,0.07388 -0.0371,0.135771 -0.2029,0.764722 -0.61098,1.823761 l -0.99367,2.603192 q -0.0993,0.261518 -0.17924,0.316328 -0.079,0.0668 -0.42661,0.09524 l -0.74314,0.0608 q -0.10788,0.0088 -0.1798,0.01471 -0.0599,0.0049 -0.12182,-0.01417 -0.0499,-0.02005 -0.0868,-0.02909 -0.024,0.002 -0.0648,-0.05503 -0.0279,-0.04598 -0.0409,-0.05699 -0.002,-0.02397 -0.0448,-0.104934 -0.0308,-0.08194 -0.0458,-0.116921 l -2.99829,-6.560189 q -0.10352,-0.232861 -0.20235,-0.260974 -0.0878,-0.04108 -0.42344,-0.01362 l -0.39555,0.03236 q -0.28767,0.02354 -0.36351,-0.01853 -0.0768,-0.05405 -0.0945,-0.2698 l -0.0804,-0.982872 q -0.0177,-0.215753 0.0264,-0.26762 0.032,-0.05089 0.17587,-0.06266 l 4.7945,-0.392266 q 0.2637,-0.02157 0.31655,0.03443 0.0648,0.05503 0.0884,0.342698 l 0.0569,0.695202 q 0.006,0.07192 0.0137,0.167808 0.0198,0.09491 0.0218,0.118882 0.01,0.119862 -0.0452,0.184697 -0.056,0.05285 -0.2358,0.06756 l -0.25171,0.02059 q -0.34761,0.02844 -0.3378,0.148302 0.003,0.03596 0.0188,0.08292 0.0279,0.04598 0.0587,0.127926 0.0419,0.06898 0.0707,0.126945 l 0.4229,1.039318 q 0.28756,0.712529 0.73715,1.930659 0.14023,0.386721 0.2601,0.376914 0.11986,-0.0098 0.21935,-0.41614 z" />
      <path
         id="path890"
         style="font-style:normal;letter-spacing:3.96574px;fill:#502d16;stroke-width:0.644267"
         d="m 267.90595,29.490784 -4.92309,0.275383 q -0.072,0.004 -0.18011,0.01008 -0.0954,0.01738 -0.13141,0.0194 -0.16811,0.0094 -0.23218,-0.05928 -0.0647,-0.08069 -0.0788,-0.332853 l -0.0477,-0.852535 q -0.0121,-0.216135 0.0319,-0.290867 0.0433,-0.08674 0.23545,-0.09749 l 0.74447,-0.04164 q 0.18011,-0.01008 0.22612,-0.04878 0.0573,-0.05139 0.0506,-0.171464 l -0.29083,-5.199261 q -0.0141,-0.252158 -0.0648,-0.297501 -0.0394,-0.05802 -0.21949,-0.04795 l -0.64841,0.03627 q -0.31219,0.01746 -0.36291,-0.02788 -0.0514,-0.05735 -0.0682,-0.357539 l -0.051,-0.912572 q -0.0108,-0.192121 0.0226,-0.242166 0.0447,-0.06272 0.17676,-0.07011 l 4.9471,-0.276726 q 2.12533,-0.118885 3.06544,0.322377 0.95212,0.440591 1.0213,1.677366 0.0766,1.368859 -1.45619,1.960491 -0.49492,0.196316 -0.49156,0.256353 0.003,0.06004 0.51372,0.139896 2.06345,0.282065 2.15278,1.879067 0.0793,1.416888 -0.82644,2.021624 -0.90569,0.604737 -3.11507,0.728323 z m -0.33083,-1.607583 q 0.73246,-0.04097 1.00318,-0.369287 0.28272,-0.328988 0.25048,-0.905349 -0.0571,-1.02064 -1.37792,-0.946757 l -0.67242,0.03761 q -0.31219,0.01746 -0.39222,0.09421 -0.068,0.07607 -0.0512,0.376263 l 0.0833,1.488934 q 0.0107,0.19212 0.0615,0.237464 0.0627,0.04467 0.20681,0.03661 z m -0.93538,-3.802109 0.4803,-0.02687 q 1.20075,-0.06717 1.14366,-1.087807 -0.0289,-0.516323 -0.3158,-0.692996 -0.27492,-0.177343 -0.93533,-0.140402 l -0.51632,0.02888 q -0.26417,0.01478 -0.32085,0.07817 -0.0574,0.05139 -0.0432,0.303547 l 0.0618,1.104693 q 0.0168,0.300188 0.0815,0.380882 0.0761,0.06802 0.36426,0.0519 z" />
      <path
         id="path892"
         style="font-style:normal;letter-spacing:3.96574px;fill:#502d16;stroke-width:0.644267"
         d="m 277.68403,27.949298 q -1.39239,-1.262485 -1.46756,-3.389813 -0.0752,-2.127327 1.22465,-3.484941 1.31183,-1.358038 3.6555,-1.44085 2.34366,-0.08281 3.73606,1.179673 1.40441,1.26206 1.47958,3.389388 0.0747,2.115309 -1.27272,3.486639 -1.33587,1.358888 -3.60743,1.439152 -2.34366,0.08281 -3.74808,-1.179248 z m 3.4678,-6.75316 q -1.92301,0.06795 -1.81047,3.252931 0.11254,3.184982 2.03555,3.117033 1.05765,-0.03737 1.46187,-0.85792 0.4038,-0.832567 0.34859,-2.395011 -0.11254,-3.184982 -2.03554,-3.117033 z" />
      <path
         id="path894"
         style="font-style:normal;letter-spacing:3.96574px;fill:#502d16;stroke-width:0.644267"
         d="m 290.97417,21.207278 -0.55315,0.0082 q -0.18037,0.0027 -0.22901,-0.03267 -0.0608,-0.0472 -0.0626,-0.167455 l -0.0163,-1.094272 q -0.003,-0.204424 0.11631,-0.266339 0.10733,-0.06174 0.3358,-0.06514 l 4.78594,-0.07125 q 0.2886,-0.0043 0.34962,0.05493 0.0608,0.0472 0.0646,0.29973 l 0.0156,1.046172 q 0.002,0.132274 -0.0574,0.181269 -0.0476,0.03679 -0.25199,0.03984 l -0.73352,0.01092 q -0.10823,0.0016 -0.10751,0.04971 5.3e-4,0.03608 0.0373,0.08364 0.0488,0.04738 0.12221,0.130484 0.0734,0.0831 0.11038,0.142689 l 0.44256,0.642903 q 0.33184,0.476165 0.55437,0.881792 0.19778,0.357884 0.24587,0.357168 0.0601,-8.95e-4 0.2249,-0.2439 0.14143,-0.194548 0.40079,-0.547211 0.25936,-0.352662 0.35377,-0.474344 l 0.53074,-0.705504 q 0.21251,-0.267772 0.21215,-0.291822 -10e-4,-0.07215 -0.32575,-0.06732 l -0.43289,0.0064 q -0.27658,0.0041 -0.34945,-0.04291 -0.073,-0.05905 -0.0761,-0.263475 l -0.0161,-1.082247 q -0.004,-0.240499 0.21287,-0.243722 0.0361,-5.37e-4 0.12043,0.01024 0.0962,-0.0014 0.15633,-0.0023 l 3.64356,-0.05424 q 0.12025,-0.0018 0.15704,0.04577 0.0368,0.04756 0.0395,0.227937 l 0.017,1.142372 q 0.002,0.12025 -0.0456,0.169066 -0.0476,0.03679 -0.22793,0.03948 l -0.36075,0.0054 q -0.22848,0.0034 -0.30009,0.04055 -0.0716,0.03715 -0.17769,0.18306 l -2.43131,3.11527 q -0.0117,0.02423 -0.0591,0.07305 -0.0354,0.04864 -0.047,0.07287 -0.0118,0.0122 -0.0472,0.06084 -0.0355,0.03661 -0.0472,0.06084 1.8e-4,0.01202 -0.0231,0.06048 -0.0233,0.04846 -0.0348,0.08471 3.6e-4,0.02405 -0.023,0.07251 -0.0113,0.04828 -0.0104,0.108403 7.2e-4,0.0481 -0.0102,0.120429 8.9e-4,0.06012 0.002,0.132275 l 0.02,1.346796 q 0.003,0.180375 0.0757,0.239425 0.0729,0.04703 0.33741,0.04309 l 0.69745,-0.01038 q 0.22848,-0.0034 0.27729,0.04398 0.0607,0.03518 0.0634,0.215554 l 0.0149,0.998072 q 0.004,0.2405 -0.0797,0.301878 -0.0713,0.0612 -0.39593,0.06603 l -4.80999,0.07161 q -0.1924,0.0029 -0.25359,-0.06839 -0.0492,-0.07143 -0.0533,-0.348008 l -0.015,-1.010098 q -0.002,-0.120249 0.0458,-0.15704 0.0476,-0.03679 0.22794,-0.03948 l 0.61327,-0.0091 q 0.32467,-0.0048 0.37188,-0.06567 0.0592,-0.06102 0.0542,-0.397719 l -0.01,-0.649349 q -10e-4,-0.0962 -0.0145,-0.16817 -10e-4,-0.08417 -0.0264,-0.155967 -0.0131,-0.07197 -0.0257,-0.107866 -0.0126,-0.0359 -0.0495,-0.09548 -0.0371,-0.07161 -0.0494,-0.08346 -0.0124,-0.02387 -0.0736,-0.09512 -0.0614,-0.08328 -0.0738,-0.107151 l -2.51882,-3.570791 q -0.11056,-0.154713 -0.19527,-0.189535 -0.0849,-0.04685 -0.34944,-0.04291 z" />
      <path
         id="path896"
         style="font-style:normal;letter-spacing:3.96574px;fill:#502d16;stroke-width:0.644267"
         d="m 322.6053,25.462748 q -0.228,1.548106 -1.36039,2.457025 -1.13221,0.896894 -3.04417,0.86783 -2.29676,-0.03491 -3.68412,-1.342965 -1.38735,-1.308052 -1.35427,-3.484561 0.0307,-2.020185 1.48233,-3.357248 1.46383,-1.348905 3.64034,-1.31582 1.07021,0.01627 1.85563,0.569454 0.0714,0.0492 0.14247,0.122442 0.0831,0.07343 0.13063,0.110235 0.0476,0.03681 0.0957,0.03754 0.0721,0.0011 0.19441,-0.129349 l 0.25728,-0.308809 q 0.14704,-0.17818 0.54386,-0.172148 l 0.63732,0.0097 q 0.22847,0.0035 0.28732,0.08856 0.059,0.07306 0.0555,0.301537 l -0.0419,2.753704 q -0.003,0.228474 -0.11261,0.286953 -0.10914,0.05848 -0.36166,0.05464 l -1.03414,-0.01572 q -0.18037,-0.0027 -0.27584,-0.0523 -0.0955,-0.04956 -0.11879,-0.09803 -0.0233,-0.04847 -0.0572,-0.193313 -0.0217,-0.156689 -0.0446,-0.229204 -0.48128,-1.570916 -1.99642,-1.593947 -0.96199,-0.01462 -1.55198,0.818346 -0.57797,0.833153 -0.60118,2.360317 -0.0232,1.527163 0.55376,2.341789 0.57697,0.814626 1.62314,0.830529 0.82972,0.01261 1.42588,-0.435378 0.60819,-0.447807 0.81266,-1.238526 0.0131,-0.07197 0.0264,-0.155958 0.0255,-0.09583 0.0261,-0.131909 0.0126,-0.03589 0.0372,-0.0716 0.0248,-0.04773 0.061,-0.05921 0.0485,-0.02332 0.1208,-0.03425 0.0723,-0.01093 0.19258,-0.0091 l 1.13034,0.01718 q 0.20443,0.0031 0.264,0.0401 0.0718,0.02515 0.0703,0.121346 -3.7e-4,0.02405 -0.0277,0.240132 z" />
      <path
         id="path898"
         style="font-style:normal;letter-spacing:3.96574px;fill:#502d16;stroke-width:0.644267"
         d="m 328.49385,27.706726 q -1.29969,-1.357731 -1.22433,-3.485051 0.0754,-2.127321 1.46786,-3.389681 1.40453,-1.261934 3.74819,-1.17891 2.34366,0.08302 3.64335,1.440754 1.31171,1.358156 1.23635,3.485477 -0.0749,2.115302 -1.51594,3.387977 -1.42857,1.261083 -3.70011,1.180614 -2.34366,-0.08302 -3.65537,-1.44118 z m 3.93637,-6.491203 q -1.923,-0.06812 -2.03583,3.11685 -0.11282,3.184972 1.81018,3.253094 1.05765,0.03747 1.51885,-0.752463 0.46163,-0.801948 0.51698,-2.364387 0.11282,-3.184972 -1.81018,-3.253094 z" />
      <path
         id="path900"
         style="font-style:normal;letter-spacing:3.96574px;fill:#502d16;stroke-width:0.644267"
         d="m 343.13518,21.971562 -0.60037,-0.03359 q -0.25216,-0.01411 -0.33218,-0.09085 -0.08,-0.07675 -0.0706,-0.244852 0.003,-0.04803 0.0101,-0.180113 0.0194,-0.131411 0.0241,-0.215464 l 0.0296,-0.528331 q 0.0154,-0.276173 0.0662,-0.321517 0.0514,-0.05735 0.30354,-0.04324 l 4.76699,0.266672 q 0.072,0.004 0.18011,0.01008 0.10874,-0.006 0.14477,-0.0039 0.14409,0.0081 0.20009,0.08347 0.0567,0.0634 0.0446,0.279531 l -0.0537,0.960603 q -0.0114,0.204128 -0.0868,0.260135 -0.0754,0.05601 -0.37559,0.03921 l -0.57636,-0.03224 q -0.37224,-0.02082 -0.46032,0.04652 -0.0874,0.05533 -0.1042,0.355523 l -0.24652,4.406763 q -0.006,0.108068 -0.0268,0.263494 -0.009,0.156098 -0.0121,0.216135 -0.0148,0.264166 0.0879,0.366271 0.11537,0.09077 0.51162,0.112937 l 0.40825,0.02284 q 0.9486,0.05307 1.47374,-0.290955 0.53715,-0.34335 0.72229,-1.284555 0.0181,-0.107396 0.0295,-0.311524 0.0241,-0.215464 0.0401,-0.286838 0.0287,-0.08271 0.14082,-0.148709 0.1241,-0.06533 0.35225,-0.05257 l 0.55234,0.0309 q 0.27618,0.01545 0.35687,0.08019 0.0807,0.06474 0.0699,0.25686 -0.002,0.03602 -0.0201,0.143419 -0.006,0.108068 -0.0101,0.180113 l -0.15987,2.857791 q -0.0269,0.480301 -0.11562,0.559652 -0.0888,0.07935 -0.56906,0.05248 l -7.80489,-0.436616 q -0.19212,-0.01075 -0.24813,-0.08615 -0.056,-0.0754 -0.0399,-0.363584 l 0.047,-0.840527 q 0.0134,-0.24015 0.0521,-0.286165 0.0514,-0.05735 0.2315,-0.04727 l 0.64841,0.03627 q 0.26417,0.01478 0.3389,-0.02922 0.0754,-0.05601 0.0855,-0.23612 l 0.29354,-5.247289 q 0.007,-0.132083 -0.05,-0.183472 -0.0574,-0.05139 -0.24948,-0.06214 z" />
      <path
         id="path902"
         style="font-style:normal;letter-spacing:3.96574px;fill:#502d16;stroke-width:0.644267"
         d="m 356.71524,22.799805 -0.59957,-0.0458 q -0.25181,-0.01924 -0.33026,-0.0976 -0.0784,-0.07836 -0.0656,-0.24624 0.004,-0.04797 0.0137,-0.17987 0.0221,-0.130989 0.0285,-0.214929 l 0.0403,-0.52762 q 0.0211,-0.275801 0.0727,-0.320103 0.0526,-0.05629 0.30437,-0.03706 l 4.76057,0.363649 q 0.072,0.0055 0.17987,0.01374 0.10884,-0.0037 0.14481,-9.99e-4 0.1439,0.01099 0.19836,0.08752 0.0554,0.06454 0.0389,0.280381 l -0.0733,0.959309 q -0.0156,0.203854 -0.0921,0.258314 -0.0765,0.05446 -0.37631,0.03156 l -0.57559,-0.04397 q -0.37173,-0.0284 -0.46117,0.03714 -0.0885,0.05354 -0.11142,0.353329 l -0.33617,4.400832 q -0.008,0.107922 -0.0321,0.262894 -0.0119,0.155888 -0.0165,0.215844 -0.0202,0.26381 0.0804,0.367985 0.1135,0.0931 0.50921,0.123328 l 0.40771,0.03114 q 0.94732,0.07236 1.47935,-0.260897 0.54402,-0.332345 0.74829,-1.269587 0.0202,-0.107006 0.0358,-0.310859 0.0285,-0.214929 0.046,-0.285961 0.0304,-0.08211 0.14381,-0.145812 0.12541,-0.06279 0.35324,-0.04538 l 0.55161,0.04214 q 0.2758,0.02107 0.35516,0.08744 0.0794,0.06637 0.0647,0.258231 -0.003,0.03597 -0.023,0.14298 -0.008,0.107922 -0.0137,0.179871 l -0.21801,2.853945 q -0.0366,0.479654 -0.12699,0.557182 -0.0904,0.07753 -0.57,0.04089 l -7.79439,-0.595395 q -0.19186,-0.01466 -0.24632,-0.09118 -0.0545,-0.07653 -0.0325,-0.364321 l 0.0641,-0.839396 q 0.0183,-0.239827 0.058,-0.285045 0.0525,-0.05629 0.23241,-0.04255 l 0.64754,0.04946 q 0.26381,0.02015 0.33942,-0.02232 0.0765,-0.05446 0.0903,-0.234331 l 0.40028,-5.240227 q 0.0101,-0.131905 -0.0462,-0.184451 -0.0563,-0.05254 -0.24816,-0.0672 z" />
      <path
         id="path904"
         style="font-style:normal;letter-spacing:3.96574px;fill:#502d16;stroke-width:0.644267"
         d="m 370.27449,23.906268 -0.56252,-0.05534 q -0.28725,-0.02826 -0.35435,-0.0832 -0.0659,-0.06691 -0.0447,-0.282341 l 0.0942,-0.957481 q 0.0212,-0.215433 0.075,-0.270566 0.0538,-0.05513 0.19738,-0.041 l 8.54552,0.840767 q 0.27527,0.02708 0.31726,0.09164 0.042,0.06455 0.0114,0.375734 l -0.26377,2.680947 q -0.005,0.04787 -0.013,0.131654 0.005,0.07299 0.003,0.09693 -0.0106,0.107717 -0.0632,0.150881 -0.0514,0.0312 -0.21896,0.01471 l -0.90961,-0.08949 q -0.11969,-0.01178 -0.19032,-0.03081 -0.0587,-0.01786 -0.10654,-0.02257 -0.0467,-0.01668 -0.0647,-0.07888 -0.006,-0.06102 -0.0169,-0.07417 0.002,-0.02394 0.002,-0.1448 0.013,-0.131653 0.0177,-0.179527 0.0179,-0.79581 -0.31056,-1.142318 -0.3153,-0.357298 -1.21294,-0.445614 l -1.44819,-0.142483 q -0.34708,-0.03415 -0.37888,0.289001 l -0.15543,1.579843 q -0.0177,0.179528 -7.9e-4,0.253694 0.0288,0.07534 0.13655,0.08594 0.0838,0.0082 0.207,-0.01589 0.7346,-0.09691 1.01597,-0.745948 0.0322,-0.08142 0.0547,-0.187963 0.0237,-0.118508 0.0404,-0.165204 0.0167,-0.0467 0.092,-0.07554 0.0765,-0.04081 0.22015,-0.02668 l 0.4189,0.04121 q 0.27527,0.02708 0.34119,0.09399 0.0791,0.05612 0.0555,0.295487 l -0.32382,3.291341 q -0.0247,0.251339 -0.1144,0.302939 -0.0897,0.0516 -0.43675,0.01745 l -0.35906,-0.03533 q -0.13165,-0.01295 -0.19993,-0.05592 -0.0563,-0.04179 -0.0636,-0.09084 -0.007,-0.04905 -0.009,-0.157946 0.0106,-0.107717 -0.006,-0.181883 -0.11712,-0.651994 -0.66806,-0.947887 -0.25271,-0.133622 -0.36042,-0.14422 -0.1915,-0.01884 -0.22447,0.316277 l -0.16486,1.675592 q -0.0188,0.191496 0.0351,0.257227 0.054,0.06573 0.18561,0.07868 0.0359,0.0035 0.13165,0.01295 0.10889,-0.0014 0.18071,0.0057 l 1.11307,0.109511 q 1.08913,0.107157 1.51216,-0.262091 0.43618,-0.380039 0.57335,-1.405798 0.0402,-0.286067 0.10596,-0.340022 0.0669,-0.06592 0.28234,-0.04473 l 0.92158,0.09067 q 0.19149,0.01884 0.24545,0.08457 0.0551,0.05376 0.0433,0.173447 -0.004,0.03591 -0.0237,0.118508 -0.008,0.08378 -0.0141,0.143622 l -0.28497,2.89638 q -0.0353,0.359055 -0.1142,0.423801 -0.0669,0.06592 -0.39006,0.03413 l -8.55748,-0.841945 q -0.16756,-0.01649 -0.20955,-0.08104 -0.042,-0.06455 -0.0184,-0.303923 l 0.0942,-0.957481 q 0.02,-0.203465 0.0606,-0.247807 0.0406,-0.04434 0.18424,-0.03021 l 0.71811,0.07065 q 0.27528,0.02708 0.32786,-0.01608 0.0646,-0.04199 0.0881,-0.281357 l 0.49574,-5.038743 q 0.0259,-0.263308 -0.0172,-0.315892 -0.042,-0.06455 -0.26939,-0.08693 z" />
      <path
         id="path906"
         style="font-style:normal;letter-spacing:3.96574px;fill:#502d16;stroke-width:0.644267"
         d="m 392.3221,30.629438 q -0.39264,1.514746 -1.61593,2.297043 -1.22183,0.770362 -3.11966,0.536517 -2.27978,-0.280907 -3.51893,-1.730137 -1.23915,-1.44923 -0.97295,-3.609652 0.24708,-2.005253 1.83366,-3.179009 1.59999,-1.184222 3.76041,-0.918021 1.06231,0.130894 1.7839,0.765083 0.0657,0.05657 0.12853,0.137009 0.0747,0.08191 0.11806,0.123602 0.0433,0.04169 0.0911,0.04757 0.0716,0.0088 0.20715,-0.107765 l 0.28889,-0.279452 q 0.1653,-0.161391 0.55919,-0.112858 l 0.63261,0.07795 q 0.22678,0.02794 0.27617,0.118849 0.0509,0.07897 0.0229,0.305755 l -0.3368,2.733351 q -0.0279,0.226785 -0.14272,0.273228 -0.11478,0.04644 -0.36543,0.01556 l -1.0265,-0.126482 q -0.17904,-0.02206 -0.26865,-0.08157 -0.0896,-0.05951 -0.10759,-0.110195 -0.018,-0.05069 -0.0362,-0.19833 -0.005,-0.15811 -0.0198,-0.232668 -0.31012,-1.613454 -1.81406,-1.798765 -0.95488,-0.117658 -1.63076,0.64727 -0.66395,0.766398 -0.85073,2.282275 -0.18678,1.515876 0.29955,2.387655 0.48632,0.87178 1.52476,0.999732 0.82359,0.10148 1.46434,-0.280024 0.65269,-0.380033 0.94073,-1.14428 0.0208,-0.07015 0.043,-0.152227 0.0356,-0.09255 0.0401,-0.128355 0.0163,-0.03434 0.0446,-0.0672 0.0297,-0.0448 0.067,-0.05233 0.0507,-0.01799 0.12377,-0.0211 0.0731,-0.0031 0.19245,0.01159 l 1.12199,0.138248 q 0.20291,0.025 0.25818,0.06816 0.0687,0.0327 0.0569,0.128185 -0.003,0.02387 -0.0533,0.235779 z" />
      <path
         id="path908"
         style="font-style:normal;letter-spacing:3.96574px;fill:#502d16;stroke-width:0.644267"
         d="m 403.55856,35.433099 -4.19819,-0.630577 q -0.0951,-0.01429 -0.23786,-0.03573 -0.13261,-0.0078 -0.18018,-0.0149 -0.21407,-0.03215 -0.28303,-0.139802 -0.0553,-0.117754 -0.009,-0.426969 l 0.1127,-0.749251 q 0.0357,-0.237858 0.0922,-0.290177 0.0565,-0.05232 0.223,-0.02731 l 0.52329,0.0786 q 0.44004,0.06609 0.5459,0.009 0.11954,-0.06717 0.16777,-0.388281 l 0.74848,-4.983122 q 0.0339,-0.225965 0.004,-0.267003 -0.0285,-0.05293 -0.2545,-0.08687 -0.76115,-0.114326 -1.13345,0.0973 -0.3604,0.213413 -0.55083,0.914482 -0.0226,0.06957 -0.0441,0.212286 l -0.0339,0.225965 q -0.025,0.1665 -0.0649,0.269964 -0.0381,0.09157 -0.16951,0.156957 -0.11776,0.05528 -0.31994,0.02491 l -0.64221,-0.09646 q -0.22597,-0.03394 -0.29018,-0.09223 -0.0505,-0.0684 -0.0273,-0.223004 0.005,-0.03568 0.0197,-0.130821 0.028,-0.10525 0.0387,-0.176607 l 0.41264,-2.747259 q 0.0411,-0.273536 0.11127,-0.335962 0.072,-0.07432 0.26226,-0.04574 l 8.27745,1.243292 q 0.38057,0.05716 0.42932,0.137452 0.0606,0.08207 0.002,0.474541 l -0.36441,2.42615 q -0.0143,0.09514 -0.0357,0.237858 -0.01,0.144501 -0.0167,0.192072 -0.0304,0.20218 -0.13802,0.271139 -0.094,0.05885 -0.40318,0.01241 l -0.46382,-0.06967 q -0.19029,-0.02858 -0.29375,-0.06844 -0.0916,-0.03808 -0.12664,-0.128472 -0.0351,-0.0904 -0.038,-0.151647 0.0107,-0.07136 0.0357,-0.237858 0.025,-0.1665 0.0292,-0.275322 0.0519,-0.831328 -0.23644,-1.178668 -0.27645,-0.345553 -1.07327,-0.465238 -0.19029,-0.02858 -0.26047,0.03384 -0.0583,0.06421 -0.0851,0.242606 l -0.7056,4.697692 q -0.0143,0.09514 -0.0476,0.236072 -0.0197,0.130821 -0.0268,0.178393 -0.0268,0.178393 0.044,0.274148 0.0725,0.08386 0.32228,0.121375 l 0.63032,0.09468 q 0.27354,0.04109 0.32228,0.121375 0.0487,0.08029 -0.005,0.437076 l -0.0804,0.53518 q -0.0572,0.380572 -0.14282,0.464997 -0.0856,0.08443 -0.37107,0.04155 z" />
      <path
         id="path910"
         style="font-style:normal;letter-spacing:3.96574px;fill:#502d16;stroke-width:0.644267"
         d="m 415.78066,30.21831 -0.89324,5.069159 q -0.0626,0.355315 -0.0159,0.436813 0.0467,0.0815 0.33094,0.131587 l 0.81723,0.144003 q 0.21319,0.03757 0.25221,0.09329 0.053,0.04597 0.0258,0.199936 l -0.15444,0.876443 q -0.0417,0.236877 -0.10163,0.299592 -0.0578,0.05087 -0.23547,0.01957 l -5.12838,-0.903674 q -0.23688,-0.04174 -0.28984,-0.08771 -0.039,-0.05572 -0.008,-0.233381 l 0.16488,-0.935662 q 0.0313,-0.177658 0.0891,-0.228529 0.0697,-0.04878 0.18809,-0.02791 0.0355,0.0063 0.1282,0.0348 0.0948,0.0167 0.15397,0.02713 l 0.5685,0.100176 q 0.24872,0.04383 0.30445,0.0048 0.0578,-0.05087 0.10998,-0.346967 l 0.91829,-5.211285 q 0.0376,-0.213189 0.0104,-0.266825 -0.0272,-0.05364 -0.193,-0.08285 l -0.85275,-0.150265 q -0.22504,-0.03965 -0.278,-0.08562 -0.039,-0.05572 -0.01,-0.221537 l 0.17948,-1.018569 q 0.025,-0.142126 0.0668,-0.171396 0.0439,-0.04112 0.13863,-0.02442 0.0237,0.0042 0.0927,0.02854 0.0711,0.01252 0.11844,0.02087 l 4.93887,0.870282 q 0.0474,0.0083 0.13029,0.02296 0.085,0.0028 0.12052,0.009 0.17766,0.0313 0.14844,0.197118 l -0.19827,1.125164 q -0.025,0.142126 -0.0787,0.16931 -0.0397,0.01743 -0.2292,-0.01597 l -0.9712,-0.171134 q -0.21319,-0.03757 -0.26891,0.0015 -0.0439,0.04111 -0.0898,0.301678 z" />
      <path
         id="path912"
         style="font-style:normal;letter-spacing:3.96574px;fill:#502d16;stroke-width:0.644267"
         d="m 427.571,37.15048 q 0.16058,-0.298172 0.61668,-0.952327 l 2.00607,-2.898103 q 0.0358,-0.05394 0.10014,-0.126509 0.0643,-0.07257 0.0977,-0.114737 0.0476,-0.05148 0.055,-0.0868 0.0246,-0.117722 -0.26971,-0.179207 l -0.28253,-0.05903 q -0.25899,-0.05411 -0.2987,-0.09926 -0.0255,-0.05447 0.0286,-0.313454 l 0.21151,-1.012403 q 0.032,-0.153038 0.0889,-0.190289 0.0569,-0.03725 0.16288,-0.01512 0.0353,0.0074 0.11526,0.03637 0.0824,0.01722 0.14126,0.02951 l 3.22557,0.673881 q 0.11772,0.02459 0.1432,0.07906 0.0372,0.05693 -0.002,0.245281 l -0.22873,1.094808 q -0.027,0.129494 -0.0958,0.164285 -0.0545,0.02548 -0.24282,-0.01387 l -0.44734,-0.09346 q -0.25899,-0.05411 -0.363,-0.02669 -0.0898,0.0181 -0.21154,0.189238 l -4.28008,5.961374 q -0.0334,0.04217 -0.12421,0.182911 -0.0766,0.131427 -0.12422,0.18291 -0.0358,0.05394 -0.15408,0.09067 -0.10648,0.03919 -0.24774,0.0097 l -1.62456,-0.3394 q -0.16481,-0.03443 -0.2683,-0.06834 -0.10349,-0.03391 -0.15936,-0.119296 -0.0466,-0.07116 -0.0627,-0.111393 -0.0162,-0.04024 -0.048,-0.182026 -0.0176,-0.151104 -0.0288,-0.214883 l -1.40692,-7.026634 q -0.007,-0.026 -0.0274,-0.104015 -0.009,-0.07555 -0.0181,-0.08978 0.005,-0.02354 -0.009,-0.07555 -0.0137,-0.05201 -0.023,-0.06624 -0.009,-0.01423 -0.0397,-0.04515 -0.0279,-0.0427 -0.0632,-0.05007 -0.0236,-0.0049 -0.0799,-0.02899 -0.0422,-0.03338 -0.10103,-0.04568 -0.0589,-0.0123 -0.14126,-0.02951 l -0.51798,-0.108215 q -0.2943,-0.06148 -0.35264,-0.135103 -0.0583,-0.07362 -0.0141,-0.285515 l 0.20413,-0.977087 q 0.0394,-0.188354 0.0845,-0.228065 0.0452,-0.03971 0.17465,-0.01266 l 5.01493,1.047713 q 0.0589,0.0123 0.16481,0.03443 0.12018,0.01282 0.1555,0.0202 0.12949,0.02705 0.16428,0.09575 0.049,0.05938 0.0146,0.224195 l -0.19183,0.918227 q -0.064,0.306075 -0.14688,0.350179 -0.0687,0.03479 -0.39831,-0.03407 l -0.49443,-0.103296 q -0.37671,-0.0787 -0.40131,0.03902 -0.002,0.01177 0.0719,0.420453 l 0.51615,3.351326 q 0.10703,0.72266 0.11021,1.177904 0.007,0.259512 0.0896,0.276728 0.10595,0.02213 0.23315,-0.233868 z" />
      <path
         id="path914"
         style="font-style:normal;letter-spacing:3.96574px;fill:#502d16;stroke-width:0.644267"
         d="m 439.31026,34.856456 -0.54804,-0.138383 q -0.27984,-0.07066 -0.33803,-0.13497 -0.0552,-0.07597 -0.002,-0.285853 l 0.23554,-0.932825 q 0.053,-0.209886 0.11436,-0.256411 0.0614,-0.04652 0.20129,-0.01119 l 8.32547,2.102234 q 0.26818,0.06772 0.3001,0.137798 0.0319,0.07008 -0.0446,0.373247 l -0.65952,2.611911 q -0.0118,0.04664 -0.0324,0.128264 -0.006,0.07291 -0.0119,0.09623 -0.0265,0.104943 -0.0849,0.139807 -0.0555,0.0232 -0.21872,-0.01802 l -0.88619,-0.223768 q -0.1166,-0.02944 -0.18362,-0.05877 -0.0554,-0.02638 -0.102,-0.03816 -0.0437,-0.02344 -0.0523,-0.08763 0.003,-0.06124 -0.006,-0.07585 0.006,-0.02332 0.0237,-0.142868 0.0324,-0.128264 0.0442,-0.174905 0.13602,-0.784302 -0.13723,-1.1758 -0.25866,-0.400213 -1.13318,-0.621036 l -1.4109,-0.356261 q -0.33815,-0.08538 -0.41765,0.229443 l -0.38864,1.539162 q -0.0442,0.174905 -0.0385,0.250755 0.0173,0.0788 0.12225,0.105294 0.0816,0.02061 0.20706,0.01507 0.74084,0.01341 1.11561,-0.586566 0.0439,-0.07573 0.0821,-0.177732 0.0411,-0.113659 0.0645,-0.157356 0.0234,-0.0437 0.10223,-0.06101 0.0817,-0.02897 0.22166,0.0064 l 0.40812,0.103051 q 0.26818,0.06772 0.32342,0.143686 0.0699,0.06725 0.011,0.300458 l -0.80968,3.206587 q -0.0618,0.244867 -0.15818,0.282558 -0.0963,0.03769 -0.43449,-0.04769 l -0.34981,-0.08833 q -0.12826,-0.03239 -0.18939,-0.08503 -0.0495,-0.0497 -0.0494,-0.09929 1.1e-4,-0.04959 0.0149,-0.157472 0.0265,-0.104943 0.0208,-0.180794 -0.0189,-0.662161 -0.51967,-1.036694 -0.23003,-0.169718 -0.33497,-0.196217 -0.18656,-0.04711 -0.26901,0.27938 l -0.4122,1.632445 q -0.0471,0.186565 -0.004,0.259588 0.0436,0.07302 0.17185,0.10541 0.035,0.0088 0.12826,0.03239 0.10789,0.01484 0.17785,0.0325 l 1.08441,0.27382 q 1.06109,0.267932 1.53432,-0.0343 0.48784,-0.310949 0.77604,-1.304903 0.0823,-0.276903 0.15534,-0.320483 0.076,-0.05524 0.28586,-0.0022 l 0.89784,0.226712 q 0.18657,0.04711 0.23015,0.120132 0.0465,0.06136 0.0171,0.177966 -0.009,0.03498 -0.0411,0.113658 -0.0206,0.08162 -0.0353,0.139924 l -0.71252,2.821797 q -0.0883,0.349809 -0.17596,0.402105 -0.076,0.05524 -0.39079,-0.02426 l -8.33713,-2.105179 q -0.16324,-0.04122 -0.19516,-0.111299 -0.0319,-0.07008 0.027,-0.303285 l 0.23555,-0.932825 q 0.05,-0.198226 0.0968,-0.236034 0.0468,-0.03781 0.18668,-0.0025 l 0.69962,0.176659 q 0.26819,0.06772 0.32661,0.03286 0.0701,-0.03192 0.12896,-0.265126 l 1.23955,-4.908993 q 0.0648,-0.256527 0.0299,-0.314946 -0.0319,-0.07008 -0.25346,-0.12602 z" />
    </g>
  </g>
</svg>
