<?xml version="1.0" encoding="UTF-8" standalone="no"?>
<svg
   xmlns:svg="http://www.w3.org/2000/svg"
   xmlns="http://www.w3.org/2000/svg"
   xmlns:sodipodi="http://sodipodi.sourceforge.net/DTD/sodipodi-0.dtd"
   xmlns:inkscape="http://www.inkscape.org/namespaces/inkscape"
   inkscape:version="1.1-dev (1:0.92.0+devel+202005110039+9ce7266)"
   sodipodi:docname="headhv.svg"
   viewBox="0 0 253.12 58.880001"
   height="58.880001"
   width="253.12"
   id="svg2"
   version="1.1">
  <defs
     id="defs6">
    <rect
       id="rect895"
       height="44.604355"
       width="104.59723"
       y="35.09288"
       x="12.529146" />
    <rect
       x="12.529146"
       y="35.09288"
       width="104.59723"
       height="44.604355"
       id="rect925" />
  </defs>
  <sodipodi:namedview
     inkscape:current-layer="g8"
     inkscape:window-maximized="1"
     inkscape:window-y="30"
     inkscape:window-x="0"
     inkscape:cy="-7.6563596"
     inkscape:cx="120.37727"
     inkscape:zoom="4.1995892"
     showgrid="false"
     id="namedview4"
     inkscape:window-height="1017"
     inkscape:window-width="1920"
     inkscape:pageshadow="2"
     inkscape:pageopacity="0"
     guidetolerance="10"
     gridtolerance="10"
     objecttolerance="10"
     borderopacity="1"
     bordercolor="#666666"
     pagecolor="#ffffff" />
  <g
     id="g8"
     inkscape:label="Image"
     inkscape:groupmode="layer">
    <path
       d="M 118.23828 0 C 116.90683 0 115.76621 0.25253073 114.81445 0.7578125 C 113.86269 1.2580908 113.13046 1.9532509 112.61914 2.84375 C 112.11289 3.7342469 111.85937 4.762084 111.85938 5.9277344 C 111.85938 7.0933846 112.11289 8.1212218 112.61914 9.0117188 C 113.13046 9.9022177 113.86269 10.600187 114.81445 11.105469 C 115.76621 11.605747 116.90683 11.857422 118.23828 11.857422 C 119.51911 11.857422 120.63888 11.605747 121.5957 11.105469 C 122.55253 10.600187 123.29381 9.9022177 123.82031 9.0117188 C 124.35189 8.1212218 124.61719 7.0933846 124.61719 5.9277344 C 124.61719 4.762084 124.36288 3.7342469 123.85156 2.84375 C 123.34531 1.9532509 122.61583 1.2580908 121.66406 0.7578125 C 120.7123 0.25253073 119.56973 0 118.23828 0 z M 142.17383 0 C 141.25245 3.7007434e-17 140.40898 0.15100535 139.64453 0.45117188 C 138.88514 0.75134058 138.22955 1.1706356 137.67773 1.7109375 C 137.12592 2.246236 136.69829 2.8733482 136.39453 3.59375 C 136.09584 4.3141519 135.94727 5.0922672 135.94727 5.9277344 C 135.94727 7.1434131 136.22357 8.1945847 136.77539 9.0800781 C 137.3272 9.9655733 138.08853 10.651449 139.06055 11.136719 C 140.03256 11.616987 141.14683 11.857422 142.40234 11.857422 C 143.25792 11.857422 144.03929 11.730609 144.74805 11.480469 C 145.4568 11.225327 146.0778 10.924414 146.60938 10.574219 C 147.14094 10.21902 147.56307 9.8928211 147.87695 9.5976562 C 147.96298 9.5126144 148.02038 9.4437019 148.05078 9.3886719 C 148.08118 9.3336311 148.09766 9.2208654 148.09766 9.0507812 L 148.09766 7.3847656 C 148.09766 7.269711 148.11492 7.1988455 148.15039 7.1738281 C 148.18584 7.1438161 148.26248 7.1289062 148.37891 7.1289062 L 149.28906 7.1289062 C 149.42065 7.1289062 149.50634 7.1168142 149.54688 7.0917969 C 149.59241 7.0617846 149.61523 6.9844407 149.61523 6.859375 L 149.61523 5.4921875 C 149.61523 5.3170864 149.59241 5.2099452 149.54688 5.1699219 C 149.50637 5.1249032 149.40063 5.1035156 149.22852 5.1035156 L 142.75781 5.1035156 C 142.58567 5.1035156 142.46894 5.1212213 142.4082 5.15625 C 142.35254 5.1912789 142.32617 5.2984201 142.32617 5.4785156 L 142.32617 6.6640625 C 142.32617 6.8191471 142.33795 6.9355777 142.36328 7.015625 C 142.39365 7.0906557 142.49583 7.1289062 142.66797 7.1289062 L 144.2168 7.1289062 C 144.36359 7.1289063 144.45202 7.152247 144.48242 7.1972656 C 144.51282 7.2372893 144.52734 7.3295209 144.52734 7.4746094 L 144.52734 8 C 144.52734 8.1600903 144.51557 8.287759 144.49023 8.3828125 C 144.46997 8.4728494 144.43616 8.5707164 144.39062 8.6757812 C 144.29444 8.8958983 144.1714 9.1045692 144.01953 9.3046875 C 143.87271 9.5048036 143.6648 9.667903 143.39648 9.7929688 C 143.13323 9.9180345 142.77674 9.9804688 142.32617 9.9804688 C 141.57691 9.9804688 140.98421 9.6272685 140.54883 8.921875 C 140.11345 8.2164815 139.89648 7.2184548 139.89648 5.9277344 C 139.89648 4.637014 140.14174 3.6474165 140.63281 2.9570312 C 141.12388 2.2666461 141.76297 1.921875 142.55273 1.921875 C 143.27667 1.921875 143.86309 2.0914526 144.30859 2.4316406 C 144.75917 2.7668295 145.13295 3.2569836 145.43164 3.9023438 C 145.49741 4.0424155 145.54852 4.1402825 145.58398 4.1953125 C 145.61942 4.2503425 145.7452 4.2773438 145.96289 4.2773438 L 147.45117 4.2773438 C 147.61821 4.2773438 147.71765 4.2447288 147.74805 4.1796875 C 147.77845 4.1146485 147.79297 3.9990738 147.79297 3.8339844 L 147.79297 0.49609375 C 147.79297 0.37102802 147.76465 0.29454878 147.70898 0.26953125 C 147.65838 0.23951898 147.56719 0.22460938 147.43555 0.22460938 L 146.29688 0.22460938 C 146.12981 0.22460938 146.01227 0.26931632 145.94141 0.359375 L 145.61328 0.79492188 C 145.51709 0.91497096 145.43964 0.97740521 145.37891 0.98242188 C 145.31814 0.98242188 145.22971 0.94332856 145.11328 0.86328125 C 144.7589 0.60312748 144.33757 0.39531242 143.85156 0.24023438 C 143.36556 0.080139745 142.80665 0 142.17383 0 z M 159.82812 0 C 158.49667 0 157.3541 0.25253073 156.40234 0.7578125 C 155.45058 1.2580908 154.71834 1.9532509 154.20703 2.84375 C 153.70077 3.7342469 153.44922 4.762084 153.44922 5.9277344 C 153.44922 7.0933846 153.70077 8.1212218 154.20703 9.0117188 C 154.71834 9.9022177 155.45058 10.600187 156.40234 11.105469 C 157.3541 11.605747 158.49667 11.857422 159.82812 11.857422 C 161.10895 11.857422 162.22677 11.605747 163.18359 11.105469 C 164.14042 10.600187 164.8817 9.9022177 165.4082 9.0117188 C 165.93977 8.1212218 166.20703 7.0933846 166.20703 5.9277344 C 166.20703 4.762084 165.95077 3.7342469 165.43945 2.84375 C 164.9332 1.9532509 164.20371 1.2580908 163.25195 0.7578125 C 162.30019 0.25253073 161.15958 0 159.82812 0 z M 201.62305 0 C 200.29159 7.4014868e-17 199.14902 0.25253073 198.19727 0.7578125 C 197.2455 1.2580908 196.51522 1.9532509 196.00391 2.84375 C 195.49765 3.7342469 195.24414 4.762084 195.24414 5.9277344 C 195.24414 7.0933846 195.49765 8.1212218 196.00391 9.0117188 C 196.51522 9.9022177 197.2455 10.600187 198.19727 11.105469 C 199.14902 11.605747 200.29159 11.857422 201.62305 11.857422 C 202.90388 11.857422 204.0217 11.605747 204.97852 11.105469 C 205.93534 10.600187 206.67858 9.9022178 207.20508 9.0117188 C 207.73665 8.1212218 208.00195 7.0933846 208.00195 5.9277344 C 208.00195 4.762084 207.7457 3.7342469 207.23438 2.84375 C 206.72812 1.9532509 205.99864 1.2580908 205.04688 0.7578125 C 204.09512 0.25253073 202.95451 3.778614e-18 201.62305 0 z M 250.86133 0.029296875 C 250.52213 0.029296875 250.20494 0.097344755 249.90625 0.23242188 C 249.60757 0.36249331 249.36311 0.56749938 249.17578 0.84765625 C 248.99353 1.1228096 248.90234 1.4760099 248.90234 1.90625 C 248.90234 1.95129 248.89986 1.995997 248.89453 2.0410156 C 248.89453 2.0860339 248.89701 2.1363763 248.90234 2.1914062 C 248.97827 2.8117533 249.0832 3.3196238 249.21484 3.7148438 C 249.34646 4.1100638 249.48049 4.4548348 249.61719 4.75 C 249.75893 5.0451652 249.88196 5.3536497 249.98828 5.6738281 C 250.09458 5.9940065 250.16021 6.3927783 250.18555 6.8730469 C 250.19568 7.0081238 250.2149 7.1031731 250.24023 7.1582031 C 250.27063 7.2082378 250.3626 7.234375 250.51953 7.234375 L 251.2793 7.234375 C 251.39571 7.234375 251.46685 7.2082378 251.49219 7.1582031 C 251.51719 7.1031733 251.53178 7.0286472 251.53711 6.9335938 C 251.5523 6.5383738 251.5971 6.2000787 251.66797 5.9199219 C 251.74392 5.6347637 251.83235 5.3729479 251.93359 5.1328125 C 252.03991 4.8926793 252.14839 4.6429576 252.25977 4.3828125 C 252.37622 4.1226674 252.48194 3.819803 252.57812 3.4746094 C 252.6794 3.1244144 252.76153 2.696688 252.82227 2.1914062 C 252.8324 2.1363766 252.83594 2.0860343 252.83594 2.0410156 L 252.83594 1.90625 C 252.83594 1.4760099 252.74201 1.1228096 252.55469 0.84765625 C 252.36737 0.56751028 252.12211 0.36250422 251.81836 0.23242188 C 251.51967 0.097344755 251.20051 0.029296875 250.86133 0.029296875 z M 45.066406 0.07421875 C 44.894286 0.07421875 44.783055 0.088263737 44.732422 0.11328125 C 44.686867 0.13328217 44.638524 0.20219465 44.587891 0.32226562 L 40.738281 9.2519531 C 40.702901 9.3320003 40.674604 9.4000481 40.654297 9.4550781 C 40.634035 9.5051128 40.560154 9.53125 40.433594 9.53125 L 39.179688 9.53125 C 39.037917 9.53125 38.945944 9.5610691 38.900391 9.6210938 C 38.854837 9.6761236 38.832031 9.7683552 38.832031 9.8984375 L 38.832031 11.128906 C 38.832031 11.339024 38.861135 11.463886 38.921875 11.503906 C 38.982634 11.538933 39.119413 11.556641 39.332031 11.556641 L 43.835938 11.556641 C 43.952391 11.556641 44.032572 11.541732 44.078125 11.511719 C 44.123678 11.481707 44.146484 11.404363 44.146484 11.279297 L 44.146484 9.8378906 C 44.146484 9.7178194 44.134688 9.6376796 44.109375 9.5976562 C 44.089135 9.5526376 44.01799 9.53125 43.896484 9.53125 L 43.107422 9.53125 C 42.970798 9.53125 42.8914 9.5079093 42.871094 9.4628906 C 42.850834 9.4128774 42.865382 9.3271022 42.916016 9.2070312 L 43.167969 8.5917969 C 43.213549 8.4817559 43.265432 8.4249352 43.326172 8.4199219 C 43.386914 8.4098885 43.491851 8.4042969 43.638672 8.4042969 L 46.841797 8.4042969 C 46.988622 8.4042969 47.076249 8.4220026 47.101562 8.4570312 C 47.131956 8.4870654 47.163792 8.5522956 47.199219 8.6523438 L 47.382812 9.1621094 C 47.438539 9.3071758 47.444797 9.4050428 47.404297 9.4550781 C 47.363795 9.5051128 47.232516 9.53125 47.009766 9.53125 L 46.144531 9.53125 C 46.002785 9.53125 45.911594 9.5470026 45.871094 9.5820312 C 45.835647 9.6170383 45.818359 9.7084272 45.818359 9.8535156 L 45.818359 11.189453 C 45.818359 11.339538 45.830155 11.438248 45.855469 11.488281 C 45.88584 11.533301 45.97703 11.556641 46.128906 11.556641 L 52.917969 11.556641 C 53.064793 11.556641 53.158719 11.538933 53.199219 11.503906 C 53.239719 11.463882 53.259766 11.368833 53.259766 11.21875 L 53.259766 9.8222656 C 53.259766 9.6771988 53.223216 9.5933767 53.152344 9.5683594 C 53.086548 9.543342 52.989058 9.53125 52.857422 9.53125 L 51.855469 9.53125 C 51.637787 9.53125 51.510056 9.4902035 51.474609 9.4101562 C 51.444238 9.3251032 51.40139 9.2123376 51.345703 9.0722656 L 47.845703 0.3984375 C 47.79507 0.27836649 47.741234 0.19540903 47.685547 0.15039062 C 47.634923 0.1003556 47.520942 0.07421875 47.34375 0.07421875 L 45.066406 0.07421875 z M 0.41796875 0.30078125 C 0.23572172 0.30078125 0.1252911 0.3277827 0.08984375 0.3828125 C 0.05439641 0.43284534 0.037109375 0.54842007 0.037109375 0.72851562 L 0.037109375 1.8164062 C 0.037109375 1.9814953 0.06540655 2.0830229 0.12109375 2.1230469 C 0.17678096 2.1580755 0.28252248 2.1757812 0.43945312 2.1757812 L 1.5175781 2.1757812 C 1.6795855 2.1757812 1.77627 2.2027825 1.8066406 2.2578125 C 1.842066 2.3128423 1.859375 2.4219367 1.859375 2.5820312 L 1.859375 9.328125 C 1.859375 9.4832027 1.8365716 9.5810697 1.7910156 9.6210938 C 1.7454594 9.6611171 1.650728 9.6796875 1.5039062 9.6796875 L 0.45507812 9.6796875 C 0.29812542 9.6796875 0.18964792 9.700211 0.12890625 9.7402344 C 0.06814253 9.7752632 0.037109375 9.8787445 0.037109375 10.048828 L 0.037109375 11.136719 C 0.037109375 11.311814 0.057154463 11.425435 0.09765625 11.480469 C 0.13815804 11.530502 0.24585269 11.556641 0.41796875 11.556641 L 7.0234375 11.556641 C 7.1904989 11.556641 7.2954355 11.53612 7.3359375 11.496094 C 7.3814935 11.45607 7.4042969 11.351747 7.4042969 11.181641 L 7.4042969 9.9355469 C 7.4042969 9.8105251 7.373242 9.7388167 7.3125 9.71875 C 7.2568128 9.6937327 7.1656223 9.6796875 7.0390625 9.6796875 L 5.8398438 9.6796875 C 5.6727778 9.6796875 5.5615467 9.6647776 5.5058594 9.6347656 C 5.4552267 9.6047534 5.4296875 9.509704 5.4296875 9.3496094 L 5.4296875 2.5664062 C 5.4296875 2.4063119 5.4497324 2.3019885 5.4902344 2.2519531 C 5.5357906 2.2019185 5.6415321 2.1757812 5.8085938 2.1757812 L 7.0019531 2.1757812 C 7.1791503 2.1757813 7.2903815 2.1543937 7.3359375 2.109375 C 7.3814935 2.0643457 7.4042969 1.9515799 7.4042969 1.7714844 L 7.4042969 0.72070312 C 7.4042969 0.55060585 7.3814935 0.4378423 7.3359375 0.3828125 C 7.2903702 0.3277827 7.1763876 0.30078125 6.9941406 0.30078125 L 0.41796875 0.30078125 z M 18.646484 0.30078125 C 18.469292 0.30078125 18.346263 0.31850856 18.275391 0.35351562 C 18.204519 0.38853578 18.169922 0.49934621 18.169922 0.68945312 L 18.169922 1.9804688 C 18.169922 2.1355471 18.192728 2.2334142 18.238281 2.2734375 C 18.278783 2.3084662 18.373515 2.3261719 18.525391 2.3261719 L 19.330078 2.3261719 C 19.588261 2.3261719 19.744289 2.3495128 19.794922 2.3945312 C 19.850609 2.4395606 19.910744 2.5503731 19.976562 2.7304688 L 23.126953 11.361328 C 23.187718 11.531433 23.249807 11.632096 23.310547 11.662109 C 23.37636 11.692123 23.527686 11.707031 23.765625 11.707031 L 24.919922 11.707031 C 25.142675 11.707031 25.273953 11.680893 25.314453 11.630859 C 25.360008 11.580824 25.416602 11.485775 25.482422 11.345703 L 28.193359 5.71875 C 28.274363 5.5436493 28.357301 5.4550781 28.443359 5.4550781 C 28.524361 5.4550781 28.598242 5.5408534 28.664062 5.7109375 C 28.729881 5.8810326 28.790016 6.0747983 28.845703 6.2949219 C 28.90139 6.5100419 28.957985 6.6936667 29.013672 6.84375 L 30.714844 11.316406 C 30.770532 11.461498 30.816116 11.562161 30.851562 11.617188 C 30.88701 11.677214 31.010038 11.707031 31.222656 11.707031 L 32.453125 11.707031 C 32.640434 11.707031 32.766211 11.692989 32.832031 11.667969 C 32.897849 11.642951 32.957179 11.561947 33.007812 11.421875 L 36.037109 2.7617188 C 36.092793 2.6016352 36.152124 2.4888695 36.212891 2.4238281 C 36.273641 2.3587868 36.416717 2.3261719 36.644531 2.3261719 L 37.541016 2.3261719 C 37.692895 2.3261719 37.792337 2.3112627 37.837891 2.28125 C 37.888524 2.2462429 37.912109 2.1568072 37.912109 2.0117188 L 37.912109 0.65234375 C 37.912109 0.48223773 37.874755 0.38352789 37.798828 0.35351562 C 37.722881 0.31850856 37.606149 0.30078125 37.449219 0.30078125 L 33.181641 0.30078125 C 32.994335 0.30078125 32.874852 0.324965 32.824219 0.375 C 32.773585 0.42003152 32.75 0.53927331 32.75 0.734375 L 32.75 1.921875 C 32.75 2.1019812 32.776345 2.2127938 32.832031 2.2578125 C 32.892771 2.3028312 33.009503 2.3261719 33.181641 2.3261719 L 33.652344 2.3261719 C 33.935847 2.3261719 34.078125 2.3644006 34.078125 2.4394531 C 34.083205 2.5094847 34.052148 2.6371535 33.986328 2.8222656 L 32.673828 6.5585938 C 32.582717 6.8237401 32.50332 6.9570312 32.4375 6.9570312 C 32.371705 6.9570313 32.314305 6.8861656 32.263672 6.7460938 C 32.218091 6.6010053 32.172506 6.4314299 32.126953 6.2363281 C 32.086451 6.0362077 32.038109 5.858203 31.982422 5.703125 L 30.957031 2.640625 C 30.916418 2.5205543 30.905475 2.4395499 30.925781 2.3945312 C 30.951097 2.3495126 31.053276 2.3261719 31.230469 2.3261719 L 31.625 2.3261719 C 31.802191 2.3261719 31.907127 2.2870786 31.9375 2.2070312 C 31.972927 2.1269927 31.990234 2.0057977 31.990234 1.8457031 L 31.990234 0.59960938 C 31.990234 0.45454272 31.924583 0.37072066 31.792969 0.34570312 C 31.666413 0.31569086 31.535934 0.30078125 31.404297 0.30078125 L 26.332031 0.30078125 C 26.129529 0.30078125 26.00925 0.3306004 25.96875 0.390625 C 25.933303 0.45066049 25.914062 0.58199632 25.914062 0.78710938 L 25.914062 1.9667969 C 25.914063 2.1118639 25.927812 2.2077778 25.953125 2.2578125 C 25.983496 2.3028312 26.069193 2.3261719 26.210938 2.3261719 L 27.091797 2.3261719 C 27.177852 2.3261719 27.235252 2.3354028 27.265625 2.3554688 C 27.301005 2.3704747 27.329303 2.4115212 27.349609 2.4765625 L 27.417969 2.65625 C 27.473655 2.811328 27.487405 2.9333788 27.457031 3.0234375 C 27.42666 3.1084905 27.37556 3.2212562 27.304688 3.3613281 L 25.792969 6.484375 C 25.732227 6.6094625 25.677586 6.7081724 25.626953 6.7832031 C 25.57632 6.8532391 25.508738 6.8886719 25.427734 6.8886719 C 25.366968 6.8886719 25.315085 6.8318512 25.269531 6.7167969 C 25.223973 6.6017294 25.181125 6.4619644 25.140625 6.296875 C 25.1052 6.1267886 25.062352 5.9693072 25.011719 5.8242188 L 23.902344 2.5820312 C 23.861844 2.452014 23.876393 2.3755347 23.947266 2.3554688 C 24.018138 2.3354021 24.125833 2.3261719 24.267578 2.3261719 L 24.601562 2.3261719 C 24.79393 2.3261719 24.907913 2.2991706 24.943359 2.2441406 C 24.983859 2.1891086 25.003906 2.0651069 25.003906 1.875 L 25.003906 0.734375 C 25.003906 0.51926364 24.964599 0.39440387 24.888672 0.359375 C 24.817804 0.31935133 24.681025 0.30078125 24.478516 0.30078125 L 18.646484 0.30078125 z M 56.96875 0.30078125 C 56.756113 0.30078125 56.619334 0.324965 56.558594 0.375 C 56.502907 0.4250263 56.474609 0.56112643 56.474609 0.78125 L 56.474609 2.0488281 C 56.474609 2.1738942 56.497409 2.251238 56.542969 2.28125 C 56.593579 2.311262 56.68477 2.3261719 56.816406 2.3261719 L 57.681641 2.3261719 C 57.874021 2.3261719 57.987205 2.3438776 58.017578 2.3789062 C 58.053025 2.4089207 58.070313 2.5188774 58.070312 2.7089844 L 58.070312 9.109375 C 58.070313 9.2844734 58.050266 9.4000481 58.009766 9.4550781 C 57.969264 9.5051128 57.858833 9.5292969 57.681641 9.5292969 L 56.9375 9.5292969 C 56.750175 9.5292969 56.627146 9.5470026 56.566406 9.5820312 C 56.505666 9.6120457 56.474609 9.7220024 56.474609 9.9121094 L 56.474609 11.068359 C 56.474609 11.293479 56.505666 11.430435 56.566406 11.480469 C 56.627153 11.530502 56.766681 11.556641 56.984375 11.556641 L 61.328125 11.556641 C 61.495189 11.556641 61.626468 11.541732 61.722656 11.511719 C 61.818846 11.476707 61.867188 11.366753 61.867188 11.181641 L 61.867188 9.8164062 C 61.867187 9.7013516 61.8499 9.6248724 61.814453 9.5898438 C 61.779028 9.5498204 61.707882 9.53125 61.601562 9.53125 L 60.507812 9.53125 C 60.335671 9.53125 60.227194 9.5051135 60.181641 9.4550781 C 60.141141 9.405054 60.121094 9.2922882 60.121094 9.1171875 L 60.121094 5.0957031 C 60.121094 4.7455143 60.150198 4.5441753 60.210938 4.4941406 C 60.271702 4.4391108 60.365628 4.4857709 60.492188 4.6308594 L 66.566406 11.429688 C 66.66765 11.539745 66.764334 11.623567 66.855469 11.683594 C 66.946595 11.748634 67.106168 11.78125 67.333984 11.78125 L 68.419922 11.78125 C 68.56674 11.78125 68.663424 11.766341 68.708984 11.736328 C 68.754538 11.706315 68.777344 11.620541 68.777344 11.480469 L 68.777344 2.6933594 C 68.777344 2.5582825 68.797391 2.4632331 68.837891 2.4082031 C 68.883469 2.3531731 68.977395 2.3261719 69.119141 2.3261719 L 69.847656 2.3261719 C 70.075484 2.3261719 70.22051 2.3028312 70.28125 2.2578125 C 70.34199 2.207784 70.371094 2.0736392 70.371094 1.8535156 L 70.371094 0.5625 C 70.371094 0.45244037 70.348288 0.38352789 70.302734 0.35351562 C 70.262232 0.31850856 70.19304 0.30078125 70.091797 0.30078125 L 65.503906 0.30078125 C 65.331786 0.30078125 65.212304 0.31935133 65.146484 0.359375 C 65.085744 0.39440388 65.056641 0.5034982 65.056641 0.68359375 L 65.056641 1.9140625 C 65.056641 2.079156 65.071189 2.1891106 65.101562 2.2441406 C 65.131934 2.2991706 65.231376 2.3261719 65.398438 2.3261719 L 66.492188 2.3261719 C 66.598504 2.3261719 66.664133 2.3495126 66.689453 2.3945312 C 66.714766 2.4345549 66.726562 2.509081 66.726562 2.6191406 L 66.726562 5.3496094 C 66.726562 5.6847544 66.694726 5.85995 66.628906 5.875 C 66.563088 5.8900061 66.469162 5.8360032 66.347656 5.7109375 L 61.546875 0.60742188 C 61.420322 0.47234474 61.291792 0.38854449 61.160156 0.35351562 C 61.033592 0.31850856 60.831174 0.30078125 60.552734 0.30078125 L 56.96875 0.30078125 z M 74.421875 0.30078125 C 74.25987 0.30078125 74.163186 0.3333963 74.132812 0.3984375 C 74.102439 0.46346777 74.087891 0.5762335 74.087891 0.73632812 L 74.087891 4.7207031 C 74.087891 4.8657919 74.116994 4.9524099 74.177734 4.9824219 C 74.238476 5.0124339 74.343413 5.0273438 74.490234 5.0273438 L 75.408203 5.0273438 C 75.605636 5.0273437 75.736914 5.0031603 75.802734 4.953125 C 75.873594 4.8980909 75.912902 4.7797049 75.917969 4.5996094 C 75.933176 3.9792623 75.998805 3.5012023 76.115234 3.1660156 C 76.231672 2.8258254 76.428591 2.5882021 76.707031 2.453125 C 76.990535 2.3180479 77.383572 2.2519531 77.884766 2.2519531 L 78.005859 2.2519531 C 78.177975 2.2519531 78.263672 2.3470024 78.263672 2.5371094 L 78.263672 9.0429688 C 78.263672 9.243076 78.235374 9.3744118 78.179688 9.4394531 C 78.124007 9.4994778 77.995478 9.53125 77.792969 9.53125 L 76.791016 9.53125 C 76.644191 9.53125 76.547506 9.5554341 76.501953 9.6054688 C 76.461453 9.6555038 76.441406 9.7561667 76.441406 9.90625 L 76.441406 11.173828 C 76.441406 11.343933 76.469704 11.451074 76.525391 11.496094 C 76.586154 11.53612 76.694632 11.556641 76.851562 11.556641 L 82.925781 11.556641 C 83.102965 11.556641 83.216945 11.533301 83.267578 11.488281 C 83.323265 11.438249 83.351562 11.324627 83.351562 11.144531 L 83.351562 9.9433594 C 83.351562 9.783265 83.323265 9.6761238 83.267578 9.6210938 C 83.211891 9.5610691 83.095161 9.53125 82.917969 9.53125 L 82.029297 9.53125 C 81.791364 9.53125 81.64829 9.4902035 81.597656 9.4101562 C 81.552103 9.3251098 81.529297 9.1648194 81.529297 8.9296875 L 81.529297 2.5742188 C 81.529297 2.4641588 81.549344 2.384019 81.589844 2.3339844 C 81.630346 2.2789544 81.706985 2.2519531 81.818359 2.2519531 L 81.908203 2.2519531 C 82.414458 2.2519531 82.807497 2.3180479 83.085938 2.453125 C 83.364389 2.5882021 83.561306 2.8258254 83.677734 3.1660156 C 83.794141 3.5062036 83.85977 3.9898838 83.875 4.6152344 C 83.880054 4.8003444 83.90835 4.9159191 83.958984 4.9609375 C 84.01468 5.0059562 84.140459 5.0273438 84.337891 5.0273438 L 85.234375 5.0273438 C 85.43688 5.0273438 85.565407 5.0059562 85.621094 4.9609375 C 85.67678 4.9109112 85.705078 4.7897163 85.705078 4.5996094 L 85.705078 0.66015625 C 85.705078 0.53007391 85.685031 0.4378423 85.644531 0.3828125 C 85.604029 0.3277827 85.523849 0.30078125 85.402344 0.30078125 L 74.421875 0.30078125 z M 96.994141 0.30078125 C 96.832136 0.30078125 96.737405 0.3333963 96.707031 0.3984375 C 96.676658 0.46346777 96.660156 0.5762335 96.660156 0.73632812 L 96.660156 4.7207031 C 96.660156 4.8657916 96.691234 4.952409 96.751953 4.9824219 C 96.812695 5.0124339 96.915678 5.0273438 97.0625 5.0273438 L 97.982422 5.0273438 C 98.179855 5.0273437 98.311133 5.0031603 98.376953 4.953125 C 98.447814 4.8980909 98.485168 4.7797049 98.490234 4.5996094 C 98.505442 3.9792623 98.571071 3.5012023 98.6875 3.1660156 C 98.803938 2.8258254 99.00281 2.5882021 99.28125 2.453125 C 99.564754 2.3180479 99.955836 2.2519531 100.45703 2.2519531 L 100.58008 2.2519531 C 100.75219 2.2519531 100.83789 2.3470024 100.83789 2.5371094 L 100.83789 9.0429688 C 100.83789 9.243076 100.80957 9.3744118 100.75391 9.4394531 C 100.69823 9.4994778 100.5697 9.53125 100.36719 9.53125 L 99.363281 9.53125 C 99.216457 9.53125 99.121725 9.5554341 99.076172 9.6054688 C 99.035672 9.6555038 99.015625 9.7561667 99.015625 9.90625 L 99.015625 11.173828 C 99.015625 11.343933 99.04197 11.451074 99.097656 11.496094 C 99.15842 11.53612 99.268851 11.556641 99.425781 11.556641 L 105.5 11.556641 C 105.67715 11.556641 105.79113 11.533301 105.8418 11.488281 C 105.89746 11.438249 105.92578 11.324627 105.92578 11.144531 L 105.92578 9.9433594 C 105.92578 9.7832649 105.89746 9.6761237 105.8418 9.6210938 C 105.78611 9.5610691 105.66938 9.53125 105.49219 9.53125 L 104.60352 9.53125 C 104.36562 9.53125 104.22254 9.4902035 104.17188 9.4101562 C 104.12634 9.3251098 104.10352 9.1648195 104.10352 8.9296875 L 104.10352 2.5742188 C 104.10352 2.4641588 104.1236 2.384019 104.16406 2.3339844 C 104.20456 2.2789544 104.27925 2.2519531 104.39062 2.2519531 L 104.48242 2.2519531 C 104.98868 2.2519531 105.38172 2.3180479 105.66016 2.453125 C 105.93861 2.5882021 106.13553 2.8258254 106.25195 3.1660156 C 106.36839 3.5062036 106.43402 3.9898838 106.44922 4.6152344 C 106.45422 4.8003441 106.48254 4.9159188 106.5332 4.9609375 C 106.5889 5.0059562 106.71468 5.0273438 106.91211 5.0273438 L 107.80859 5.0273438 C 108.01111 5.0273438 108.13965 5.0059562 108.19531 4.9609375 C 108.25098 4.9109112 108.2793 4.7897163 108.2793 4.5996094 L 108.2793 0.66015625 C 108.2793 0.53007391 108.25928 0.4378423 108.21875 0.3828125 C 108.17825 0.3277827 108.09807 0.30078125 107.97656 0.30078125 L 96.994141 0.30078125 z M 177.91406 0.30078125 C 177.74195 0.30078125 177.61067 0.324965 177.51953 0.375 C 177.4284 0.42001625 177.38281 0.53559099 177.38281 0.72070312 L 177.38281 1.8769531 C 177.38281 2.0820621 177.41662 2.2077778 177.48242 2.2578125 C 177.54824 2.3028312 177.67952 2.3261719 177.87695 2.3261719 L 178.64453 2.3261719 C 178.80656 2.3261719 178.91504 2.3466947 178.9707 2.3867188 C 179.02637 2.4217476 179.05273 2.5167969 179.05273 2.671875 L 179.05273 9.1542969 C 179.05273 9.3393917 179.01814 9.4493463 178.94727 9.484375 C 178.8764 9.5143877 178.74787 9.53125 178.56055 9.53125 L 177.74023 9.53125 C 177.56814 9.53125 177.4632 9.5675475 177.42773 9.6425781 C 177.39733 9.7176089 177.38281 9.8396595 177.38281 10.009766 L 177.38281 11.052734 C 177.38281 11.282866 177.41662 11.425442 177.48242 11.480469 C 177.55329 11.530502 177.69637 11.556641 177.91406 11.556641 L 183.5332 11.556641 C 183.74076 11.556641 183.89405 11.530502 183.99023 11.480469 C 184.09148 11.425439 184.14062 11.288483 184.14062 11.068359 L 184.14062 9.8457031 C 184.14062 9.7006144 184.11151 9.6120433 184.05078 9.5820312 C 183.99509 9.5470026 183.89016 9.5292969 183.73828 9.5292969 L 182.96484 9.5292969 C 182.79781 9.5292969 182.69837 9.4986351 182.66797 9.4335938 C 182.63757 9.3685548 182.62305 9.25298 182.62305 9.0878906 L 182.62305 7.0761719 C 182.62305 6.9160993 182.64306 6.8117541 182.68359 6.7617188 C 182.72409 6.7066887 182.82354 6.6777344 182.98047 6.6777344 L 186.35156 6.6777344 C 186.50346 6.6777344 186.6029 6.7038709 186.64844 6.7539062 C 186.6991 6.7989246 186.72266 6.9004523 186.72266 7.0605469 L 186.72266 9.1699219 C 186.72266 9.3450011 186.68806 9.4493463 186.61719 9.484375 C 186.55137 9.514387 186.42915 9.5292969 186.25195 9.5292969 L 185.57617 9.5292969 C 185.43946 9.5292969 185.34473 9.5498204 185.28906 9.5898438 C 185.2334 9.6298674 185.20508 9.722099 185.20508 9.8671875 L 185.20508 11.03125 C 185.20508 11.266389 185.25066 11.414583 185.3418 11.474609 C 185.43292 11.529643 185.58975 11.556641 185.8125 11.556641 L 191.35547 11.556641 C 191.6238 11.556641 191.79162 11.524024 191.85742 11.458984 C 191.9283 11.39395 191.96289 11.224372 191.96289 10.949219 L 191.96289 9.9570312 C 191.96289 9.7819328 191.94006 9.6683113 191.89453 9.6132812 C 191.85403 9.5582513 191.74829 9.5292969 191.57617 9.5292969 L 190.58984 9.5292969 C 190.44813 9.5292969 190.36048 9.5022956 190.33008 9.4472656 C 190.30474 9.3922358 190.29297 9.2943687 190.29297 9.1542969 L 190.29297 2.7089844 C 190.29297 2.5638961 190.30749 2.4632331 190.33789 2.4082031 C 190.37334 2.3531731 190.46177 2.3261719 190.60352 2.3261719 L 191.58398 2.3261719 C 191.74602 2.3261719 191.849 2.3028312 191.89453 2.2578125 C 191.94006 2.2077993 191.96289 2.1118854 191.96289 1.9667969 L 191.96289 0.66796875 C 191.96289 0.50787413 191.9228 0.40721117 191.8418 0.3671875 C 191.76587 0.3221691 191.65464 0.30078125 191.50781 0.30078125 L 185.66016 0.30078125 C 185.4627 0.30078125 185.33692 0.324965 185.28125 0.375 C 185.23058 0.42502848 185.20508 0.55269944 185.20508 0.7578125 L 185.20508 1.9355469 C 185.20508 2.1206478 185.23058 2.2334135 185.28125 2.2734375 C 185.33186 2.3084662 185.44939 2.3261719 185.63672 2.3261719 L 186.38281 2.3261719 C 186.50941 2.3261719 186.59784 2.3382639 186.64844 2.3632812 C 186.69904 2.3882988 186.72266 2.4619602 186.72266 2.5820312 L 186.72266 4.3378906 C 186.72266 4.5280062 186.70258 4.652866 186.66211 4.7128906 C 186.62667 4.7729153 186.51269 4.8027344 186.32031 4.8027344 L 183.09375 4.8027344 C 182.90642 4.8027344 182.78064 4.7878252 182.71484 4.7578125 C 182.65411 4.7228011 182.62305 4.6128465 182.62305 4.4277344 L 182.62305 2.640625 C 182.62305 2.5005315 182.64306 2.4139136 182.68359 2.3789062 C 182.72409 2.3438776 182.81253 2.3261719 182.94922 2.3261719 L 183.78516 2.3261719 C 183.94212 2.3261719 184.03961 2.305649 184.08008 2.265625 C 184.12061 2.2256013 184.14258 2.1268915 184.14258 1.9667969 L 184.14258 0.81054688 C 184.14258 0.5754215 184.09423 0.4328475 183.99805 0.3828125 C 183.90693 0.3277827 183.7509 0.30078125 183.5332 0.30078125 L 177.91406 0.30078125 z M 212.10352 0.30078125 C 212.03264 0.30078125 211.99805 0.37812508 211.99805 0.53320312 L 211.99805 1.9726562 C 211.99805 2.1527739 212.01257 2.2590505 212.04297 2.2890625 C 212.0784 2.3140798 212.18609 2.3261719 212.36328 2.3261719 L 213.22852 2.3261719 C 213.39054 2.3261719 213.49902 2.3317635 213.55469 2.3417969 C 213.61035 2.3467916 213.63318 2.4297491 213.62305 2.5898438 L 213.27344 8.953125 C 213.26324 9.1532367 213.25427 9.2994778 213.24414 9.3945312 C 213.23908 9.4845899 213.12235 9.53125 212.89453 9.53125 L 211.69531 9.53125 C 211.59409 9.53125 211.52924 9.5470026 211.50391 9.5820312 C 211.47857 9.6170383 211.4668 9.6879039 211.4668 9.7929688 L 211.4668 11.144531 C 211.4668 11.32964 211.48681 11.443261 211.52734 11.488281 C 211.5729 11.533301 211.68413 11.556641 211.86133 11.556641 L 216.57031 11.556641 C 216.74752 11.556641 216.8623 11.538933 216.91797 11.503906 C 216.9787 11.468897 217.00977 11.35894 217.00977 11.173828 L 217.00977 9.8671875 C 217.00977 9.7220987 216.98975 9.6298671 216.94922 9.5898438 C 216.90872 9.5498204 216.81753 9.53125 216.67578 9.53125 L 215.67383 9.53125 C 215.46635 9.53125 215.35236 9.4873858 215.33203 9.4023438 C 215.3115 9.3122894 215.30326 9.1781424 215.30859 8.9980469 L 215.53711 4.2539062 C 215.55231 3.9137116 215.56409 3.6752281 215.57422 3.5351562 C 215.58437 3.3950844 215.62365 3.3242188 215.68945 3.3242188 C 215.75529 3.3242188 215.81543 3.4164504 215.87109 3.6015625 C 215.9268 3.7866659 215.98144 4.0029101 216.03711 4.2480469 C 216.09787 4.4931836 216.16272 4.7102838 216.22852 4.9003906 L 218.48242 11.398438 C 218.53813 11.55853 218.60022 11.662011 218.66602 11.707031 C 218.73689 11.757065 218.88272 11.78125 219.10547 11.78125 L 220.47266 11.78125 C 220.69542 11.78125 220.84045 11.757065 220.90625 11.707031 C 220.97209 11.662013 221.03222 11.558531 221.08789 11.398438 L 223.41992 4.6308594 C 223.53634 4.2906626 223.61102 4.0502282 223.64648 3.9101562 C 223.68193 3.7700844 223.74756 3.6992188 223.84375 3.6992188 C 223.93994 3.6992188 223.98828 3.7998817 223.98828 4 C 223.98828 4.1951083 223.97376 4.4504501 223.94336 4.765625 C 223.91803 5.0757985 223.90979 5.4056644 223.91992 5.7558594 L 224.01172 9.140625 C 224.01672 9.2957029 223.99121 9.4000481 223.93555 9.4550781 C 223.88491 9.5051128 223.77919 9.53125 223.61719 9.53125 L 222.8125 9.53125 C 222.65554 9.53125 222.54511 9.5470026 222.48438 9.5820312 C 222.42871 9.6120435 222.40234 9.7127065 222.40234 9.8828125 L 222.40234 11.158203 C 222.40234 11.328293 222.41687 11.438248 222.44727 11.488281 C 222.48271 11.533301 222.58294 11.556641 222.75 11.556641 L 228.64453 11.556641 C 228.82176 11.556641 228.92474 11.529636 228.95508 11.474609 C 228.99054 11.414581 229.00781 11.304626 229.00781 11.144531 L 229.00781 9.8378906 C 229.00781 9.7078299 228.99329 9.6248724 228.96289 9.5898438 C 228.93757 9.5498204 228.86093 9.53125 228.73438 9.53125 L 227.51953 9.53125 C 227.3778 9.53125 227.30036 9.5135443 227.28516 9.4785156 C 227.27529 9.4385138 227.26705 9.3527387 227.26172 9.2226562 L 227.0332 2.6484375 C 227.02807 2.4933374 227.03631 2.4011057 227.05664 2.3710938 C 227.08196 2.3410817 227.17588 2.3261719 227.33789 2.3261719 L 228.26367 2.3261719 C 228.45603 2.3261719 228.56451 2.3084662 228.58984 2.2734375 C 228.61518 2.2384282 228.62891 2.1284715 228.62891 1.9433594 L 228.62891 0.62304688 C 228.62891 0.41793389 228.58882 0.31361042 228.50781 0.30859375 C 228.42682 0.30357708 228.29004 0.30078125 228.09766 0.30078125 L 223.34375 0.30078125 C 223.14628 0.30078125 223.02405 0.31850856 222.97852 0.35351562 C 222.938 0.38354972 222.88965 0.46734998 222.83398 0.60742188 L 220.92773 5.6503906 C 220.83153 5.9055322 220.75684 6.1012511 220.70117 6.2363281 C 220.64549 6.3664105 220.57434 6.4316406 220.48828 6.4316406 C 220.41231 6.4316406 220.34668 6.321686 220.29102 6.1015625 C 220.24038 5.8814411 220.17476 5.6502916 220.09375 5.4101562 L 218.64258 0.92382812 C 218.59702 0.78375841 218.5597 0.66818368 218.5293 0.578125 C 218.504 0.48307151 218.4529 0.4122059 218.37695 0.3671875 C 218.30608 0.32216903 218.1693 0.30078125 217.9668 0.30078125 L 212.42383 0.30078125 L 212.10352 0.30078125 z M 233.04102 0.30078125 C 232.88406 0.30078125 232.77283 0.31569086 232.70703 0.34570312 C 232.6463 0.37573723 232.61719 0.47444706 232.61719 0.64453125 L 232.61719 1.9667969 C 232.61719 2.1168799 232.63446 2.2127938 232.66992 2.2578125 C 232.71042 2.3028312 232.80987 2.3261719 232.9668 2.3261719 L 233.95312 2.3261719 C 234.08985 2.3261719 234.17828 2.3410817 234.21875 2.3710938 C 234.26428 2.4011061 234.28711 2.4812458 234.28711 2.6113281 L 234.28711 9.2148438 C 234.28711 9.3749386 234.27259 9.4671702 234.24219 9.4921875 C 234.21182 9.5172048 234.11514 9.5292969 233.95312 9.5292969 L 232.89062 9.5292969 C 232.76409 9.5292969 232.6847 9.5376844 232.6543 9.5527344 C 232.62896 9.5677405 232.61719 9.6394489 232.61719 9.7695312 L 232.61719 11.287109 C 232.61719 11.447161 232.64269 11.530982 232.69336 11.541016 C 232.74399 11.551049 232.84422 11.556641 232.99609 11.556641 L 244.05273 11.556641 C 244.21471 11.556641 244.3114 11.54741 244.3418 11.527344 C 244.3722 11.502326 244.38672 11.410937 244.38672 11.255859 L 244.38672 7.0546875 C 244.38672 6.8895978 244.38043 6.7861171 244.36523 6.7460938 C 244.35003 6.7010751 244.2561 6.6796875 244.08398 6.6796875 L 242.79297 6.6796875 C 242.58549 6.6796875 242.47151 6.7038716 242.45117 6.7539062 C 242.43091 6.8039347 242.41443 6.9231743 242.4043 7.1132812 C 242.38911 7.6886012 242.31442 8.1545672 242.17773 8.5097656 C 242.04104 8.8649664 241.79933 9.1259262 241.45508 9.2910156 C 241.11589 9.4511102 240.62537 9.53125 239.98242 9.53125 L 238.26562 9.53125 C 238.09354 9.53125 237.98231 9.5256583 237.93164 9.515625 C 237.88097 9.5006189 237.85547 9.4055695 237.85547 9.2304688 L 237.85547 7.1132812 C 237.85547 6.8231174 237.9722 6.6796875 238.20508 6.6796875 L 238.25195 6.6796875 C 238.44939 6.6796875 238.63806 6.7457822 238.82031 6.8808594 C 239.00761 7.0109417 239.16719 7.1824703 239.29883 7.3925781 C 239.43548 7.5976911 239.52392 7.8147935 239.56445 8.0449219 C 239.58965 8.1699877 239.61248 8.2678547 239.63281 8.3378906 C 239.65813 8.402932 239.74932 8.4355469 239.90625 8.4355469 L 240.72656 8.4355469 C 240.86829 8.4355469 240.95672 8.4150233 240.99219 8.375 C 241.02759 8.3349981 241.04492 8.249223 241.04492 8.1191406 L 241.04492 3.7675781 C 241.04492 3.6074839 241.02484 3.5068209 240.98438 3.4667969 C 240.94388 3.4267729 240.84365 3.40625 240.68164 3.40625 L 239.83789 3.40625 C 239.73158 3.40625 239.66596 3.4388649 239.64062 3.5039062 C 239.61542 3.5639527 239.5926 3.6525237 239.57227 3.7675781 C 239.51151 4.1177731 239.36294 4.4271158 239.125 4.6972656 C 238.88706 4.9674177 238.57341 5.1035156 238.18359 5.1035156 L 238.14453 5.1035156 C 238.02306 5.1035156 237.94562 5.0745613 237.91016 5.0195312 C 237.87469 4.964497 237.85547 4.8480643 237.85547 4.6679688 L 237.85547 2.6796875 C 237.85547 2.5196144 237.89202 2.4217474 237.96289 2.3867188 C 238.03882 2.3466947 238.15005 2.3261719 238.29688 2.3261719 L 240.13477 2.3261719 C 240.69165 2.3261719 241.11928 2.3970374 241.41797 2.5371094 C 241.72171 2.6721843 241.93237 2.8949046 242.04883 3.2050781 C 242.17025 3.5102481 242.23864 3.9174491 242.25391 4.4277344 C 242.25891 4.5227876 242.27349 4.5973137 242.29883 4.6523438 C 242.32415 4.7023791 242.39253 4.7285156 242.50391 4.7285156 L 243.94727 4.7285156 C 244.09399 4.7285156 244.17693 4.7144705 244.19727 4.6894531 C 244.2226 4.6644356 244.23438 4.5834312 244.23438 4.4433594 L 244.23438 0.66015625 C 244.23438 0.52008433 244.21711 0.425035 244.18164 0.375 C 244.15127 0.324965 244.06284 0.30078125 243.91602 0.30078125 L 233.04102 0.30078125 z M 118.23828 1.9511719 C 119.10398 1.9511719 119.72498 2.3108482 120.09961 3.03125 C 120.4793 3.7466505 120.66992 4.7120556 120.66992 5.9277344 C 120.66992 6.7381862 120.59604 7.4417755 120.44922 8.0371094 C 120.30747 8.6324411 120.05946 9.0927869 119.70508 9.4179688 C 119.35576 9.7431506 118.86604 9.90625 118.23828 9.90625 C 117.37259 9.90625 116.75079 9.5474318 116.37109 8.8320312 C 115.99647 8.1116294 115.80859 7.1434131 115.80859 5.9277344 C 115.80859 4.7120556 115.99647 3.7466505 116.37109 3.03125 C 116.75079 2.3108482 117.37259 1.9511719 118.23828 1.9511719 z M 159.82812 1.9511719 C 160.69382 1.9511719 161.31287 2.3108482 161.6875 3.03125 C 162.06719 3.7466505 162.25781 4.7120556 162.25781 5.9277344 C 162.25781 6.7381862 162.18394 7.4417755 162.03711 8.0371094 C 161.89536 8.6324411 161.64735 9.0927869 161.29297 9.4179688 C 160.94365 9.7431506 160.45588 9.90625 159.82812 9.90625 C 158.96242 9.90625 158.33868 9.5474318 157.95898 8.8320312 C 157.58436 8.1116294 157.39648 7.1434131 157.39648 5.9277344 C 157.39648 4.7120556 157.58436 3.7466505 157.95898 3.03125 C 158.33868 2.3108482 158.96242 1.9511719 159.82812 1.9511719 z M 201.62305 1.9511719 C 202.48875 1.9511719 203.10975 2.3108482 203.48438 3.03125 C 203.86407 3.7466505 204.05273 4.7120556 204.05273 5.9277344 C 204.05273 6.7381862 203.97885 7.4417755 203.83203 8.0371094 C 203.69028 8.6324411 203.44228 9.0927869 203.08789 9.4179688 C 202.73858 9.7431506 202.25081 9.90625 201.62305 9.90625 C 200.75735 9.90625 200.13555 9.5474318 199.75586 8.8320312 C 199.38123 8.1116294 199.19336 7.1434131 199.19336 5.9277344 C 199.19336 4.7120556 199.38123 3.7466505 199.75586 3.03125 C 200.13555 2.3108482 200.75735 1.9511719 201.62305 1.9511719 z M 45.285156 3.6777344 C 45.345922 3.6377107 45.40801 3.7038054 45.46875 3.8789062 L 46.257812 6.0703125 C 46.298326 6.1753773 46.315614 6.2788581 46.310547 6.3789062 C 46.310547 6.4789545 46.222115 6.5292969 46.044922 6.5292969 L 44.443359 6.5292969 C 44.240861 6.5292969 44.141418 6.4761586 44.146484 6.3710938 C 44.156591 6.2610298 44.187648 6.1510752 44.238281 6.0410156 L 45.126953 3.9101562 C 45.177586 3.7951015 45.22947 3.7177577 45.285156 3.6777344 z M 250.87695 8.2539062 C 250.54282 8.2539062 250.23742 8.3368637 249.95898 8.5019531 C 249.6856 8.6620434 249.46393 8.8791435 249.29688 9.1542969 C 249.13487 9.4244489 249.05469 9.724504 249.05469 10.054688 C 249.05469 10.384873 249.13487 10.687737 249.29688 10.962891 C 249.46393 11.233036 249.6856 11.44928 249.95898 11.609375 C 250.23742 11.774464 250.54282 11.857422 250.87695 11.857422 C 251.21108 11.857422 251.51568 11.774464 251.78906 11.609375 C 252.0675 11.449284 252.28721 11.23304 252.44922 10.962891 C 252.61628 10.687737 252.69922 10.384873 252.69922 10.054688 C 252.69922 9.724504 252.61628 9.4244489 252.44922 9.1542969 C 252.28722 8.8791479 252.0675 8.6620478 251.78906 8.5019531 C 251.51568 8.3368637 251.21108 8.2539062 250.87695 8.2539062 z M 188.48828 23.566406 C 186.49441 23.566406 184.79647 23.992902 183.39453 24.845703 C 182.02375 25.665704 180.98022 26.764977 180.26367 28.142578 C 179.57828 29.487379 179.23633 30.929104 179.23633 32.470703 C 179.23633 34.373104 179.53307 35.964939 180.125 37.244141 C 180.74808 38.523339 181.52631 39.604634 182.46094 40.490234 C 183.42672 41.375835 184.43881 42.146732 185.49805 42.802734 C 186.55729 43.425933 187.55365 44.032648 188.48828 44.623047 C 189.45406 45.180646 190.23425 45.821367 190.82617 46.542969 C 191.44926 47.231767 191.75977 48.084759 191.75977 49.101562 C 191.75977 49.95436 191.4807 50.675222 190.91992 51.265625 C 190.3903 51.823224 189.72016 52.101562 188.91016 52.101562 C 187.50822 52.101562 186.54134 51.51088 186.01172 50.330078 C 185.51321 49.149279 185.23414 47.559394 185.17188 45.558594 C 185.17188 45.03379 184.95374 44.771484 184.51758 44.771484 L 178.95508 44.771484 C 178.58124 44.771484 178.33362 44.837565 178.20898 44.96875 C 178.08438 45.067157 178.02148 45.295457 178.02148 45.65625 C 178.02148 47.985051 178.37916 50.167573 179.0957 52.201172 C 179.8434 54.234771 181.02842 55.874692 182.64844 57.121094 C 184.26846 58.367495 186.37124 58.990234 188.95703 58.990234 C 192.47746 58.990234 195.01651 58.071176 196.57422 56.234375 C 198.16308 54.397574 198.95703 52.036791 198.95703 49.150391 C 198.95703 47.149587 198.64456 45.475661 198.02148 44.130859 C 197.42956 42.786062 196.65133 41.670757 195.68555 40.785156 C 194.71977 39.899556 193.69196 39.162665 192.60156 38.572266 C 191.51117 37.949063 190.48336 37.374409 189.51758 36.849609 C 188.5518 36.29201 187.75785 35.685296 187.13477 35.029297 C 186.54283 34.373294 186.24609 33.570341 186.24609 32.619141 C 186.24609 31.864743 186.46423 31.274057 186.90039 30.847656 C 187.3677 30.421256 187.89635 30.207031 188.48828 30.207031 C 189.39175 30.207031 190.06189 30.471294 190.49805 30.996094 C 190.96534 31.488094 191.27781 32.142889 191.43359 32.962891 C 191.58938 33.750088 191.66602 34.603084 191.66602 35.521484 C 191.66602 35.816685 191.72891 35.996907 191.85352 36.0625 C 191.97813 36.095333 192.18055 36.111328 192.46094 36.111328 L 197.13477 36.111328 C 197.53977 36.111328 197.74219 35.915086 197.74219 35.521484 C 197.74219 34.078284 197.60266 32.652588 197.32227 31.242188 C 197.04188 29.831788 196.55843 28.552296 195.87305 27.404297 C 195.18765 26.223495 194.2365 25.288408 193.02148 24.599609 C 191.83762 23.910807 190.32637 23.566406 188.48828 23.566406 z M 1.7148438 24.058594 C 1.3409829 24.058594 1.1071233 24.106689 1.0136719 24.205078 C 0.92022052 24.303477 0.87304687 24.565787 0.87304688 24.992188 L 0.87304688 57.464844 C 0.87304688 57.891262 0.90449594 58.169597 0.96679688 58.300781 C 1.0602586 58.431966 1.2941183 58.498047 1.6679688 58.498047 L 5.734375 58.498047 C 6.1082327 58.498047 6.3263712 58.431966 6.3886719 58.300781 C 6.4509725 58.169575 6.4804687 57.923294 6.4804688 57.5625 L 6.4804688 35.916016 C 6.4804688 35.588032 6.4647791 35.341751 6.4335938 35.177734 C 6.402443 35.013717 6.4338923 34.931641 6.5273438 34.931641 C 6.6830959 34.931641 6.8403068 35.260013 6.9960938 35.916016 L 11.435547 57.5625 C 11.497883 57.890483 11.574517 58.136764 11.667969 58.300781 C 11.76143 58.431966 12.011011 58.498047 12.416016 58.498047 L 15.5 58.498047 C 15.936166 58.498047 16.185747 58.447998 16.248047 58.349609 C 16.341499 58.251203 16.420122 58.022903 16.482422 57.662109 L 21.482422 35.078125 C 21.513607 34.848516 21.590242 34.734375 21.714844 34.734375 C 21.839446 34.734375 21.902344 34.848516 21.902344 35.078125 L 21.902344 57.808594 C 21.902344 58.136601 21.949517 58.334797 22.042969 58.400391 C 22.167587 58.465984 22.385726 58.498047 22.697266 58.498047 L 26.855469 58.498047 C 27.104707 58.498047 27.277642 58.465984 27.371094 58.400391 C 27.464545 58.334799 27.509766 58.186641 27.509766 57.957031 L 27.509766 24.697266 C 27.509766 24.402066 27.448821 24.221843 27.324219 24.15625 C 27.230767 24.090657 27.057832 24.058594 26.808594 24.058594 L 18.865234 24.058594 C 18.522551 24.058594 18.272974 24.090657 18.117188 24.15625 C 17.961399 24.221842 17.853316 24.402064 17.791016 24.697266 L 14.660156 40.490234 C 14.566704 40.91662 14.488081 41.212936 14.425781 41.376953 C 14.394631 41.508138 14.316008 41.574219 14.191406 41.574219 C 14.09792 41.574219 14.021284 41.508138 13.958984 41.376953 C 13.896683 41.21295 13.818061 40.916634 13.724609 40.490234 L 10.640625 25.140625 C 10.57829 24.714206 10.483977 24.435871 10.359375 24.304688 C 10.23476 24.14067 9.9399686 24.058594 9.4726562 24.058594 L 1.7148438 24.058594 z M 38.744141 24.058594 C 38.058758 24.058594 37.60676 24.140671 37.388672 24.304688 C 37.170619 24.46869 36.999636 24.845148 36.875 25.435547 L 30.378906 57.513672 C 30.34772 57.644893 30.332031 57.759033 30.332031 57.857422 C 30.332031 58.185429 30.534452 58.383625 30.939453 58.449219 C 31.344457 58.482052 31.749292 58.498047 32.154297 58.498047 L 35.238281 58.498047 C 35.612135 58.498047 35.971764 58.447998 36.314453 58.349609 C 36.688271 58.218407 36.890688 57.990107 36.921875 57.662109 L 37.716797 52.59375 C 37.779133 52.364178 37.871492 52.234005 37.996094 52.201172 C 38.12071 52.135579 38.401733 52.101563 38.837891 52.101562 L 42.576172 52.101562 C 42.825389 52.101562 43.027807 52.151611 43.183594 52.25 C 43.339344 52.315607 43.433657 52.527878 43.464844 52.888672 L 44.166016 57.513672 C 44.228317 57.874459 44.289263 58.136765 44.351562 58.300781 C 44.445028 58.431966 44.694605 58.498047 45.099609 58.498047 L 50.566406 58.498047 C 51.033718 58.498047 51.267578 58.399938 51.267578 58.203125 C 51.267578 58.137533 51.25189 58.05542 51.220703 57.957031 C 51.220703 57.858607 51.205015 57.744465 51.173828 57.613281 L 44.632812 25.484375 C 44.539361 25.025186 44.413599 24.680781 44.257812 24.451172 C 44.102043 24.188767 43.728647 24.058594 43.136719 24.058594 L 38.744141 24.058594 z M 54.599609 24.058594 C 54.381521 24.058594 54.240034 24.090657 54.177734 24.15625 C 54.115434 24.221842 54.085937 24.37 54.085938 24.599609 L 54.085938 57.513672 C 54.085937 57.874459 54.115434 58.136765 54.177734 58.300781 C 54.2712 58.431966 54.473617 58.498047 54.785156 58.498047 L 60.533203 58.498047 C 60.782442 58.498047 60.939653 58.447997 61.001953 58.349609 C 61.064253 58.251221 61.095703 58.088984 61.095703 57.859375 L 61.095703 24.697266 C 61.095703 24.270866 60.922767 24.058594 60.580078 24.058594 L 54.599609 24.058594 z M 65.789062 24.058594 C 65.321737 24.058594 65.04267 24.106689 64.949219 24.205078 C 64.886919 24.270677 64.855469 24.550969 64.855469 25.042969 L 64.855469 57.513672 C 64.855469 58.005687 64.886919 58.302002 64.949219 58.400391 C 65.042684 58.465984 65.32175 58.498047 65.789062 58.498047 L 70.136719 58.498047 C 70.572845 58.498047 70.804751 58.431965 70.835938 58.300781 C 70.898237 58.169578 70.929688 57.891244 70.929688 57.464844 L 70.929688 42.65625 C 70.929687 41.836235 70.992551 41.3597 71.117188 41.228516 C 71.24181 41.064517 71.47567 41.507041 71.818359 42.556641 L 76.958984 57.613281 C 77.083622 57.941297 77.175981 58.169597 77.238281 58.300781 C 77.300589 58.431965 77.534449 58.498047 77.939453 58.498047 L 83.546875 58.498047 C 83.889578 58.498047 84.091995 58.431965 84.154297 58.300781 C 84.216597 58.136779 84.248047 57.890498 84.248047 57.5625 L 84.248047 24.943359 C 84.248047 24.582547 84.202826 24.352295 84.109375 24.253906 C 84.04706 24.122722 83.84269 24.058594 83.5 24.058594 L 78.96875 24.058594 C 78.657229 24.058594 78.43909 24.090657 78.314453 24.15625 C 78.221002 24.221853 78.173828 24.418096 78.173828 24.746094 L 78.173828 37.390625 C 78.173828 38.079433 78.11093 38.457844 77.986328 38.523438 C 77.892867 38.556237 77.70617 38.211836 77.425781 37.490234 L 72.472656 25.041016 C 72.31687 24.6474 72.177336 24.385091 72.052734 24.253906 C 71.959273 24.122722 71.631086 24.058594 71.070312 24.058594 L 65.789062 24.058594 z M 102.33008 24.058594 C 101.83162 24.058594 101.48967 24.074589 101.30273 24.107422 C 101.14695 24.140218 101.06836 24.254359 101.06836 24.451172 C 101.06836 24.582371 101.11553 24.844681 101.20898 25.238281 L 108.96484 56.972656 C 109.12061 57.59584 109.30926 58.006312 109.52734 58.203125 C 109.77658 58.399938 110.18141 58.498047 110.74219 58.498047 L 114.15234 58.498047 C 114.49506 58.498047 114.72892 58.383906 114.85352 58.154297 C 114.97816 57.924698 115.10392 57.498199 115.22852 56.875 L 117.9375 42.310547 C 118.09325 41.556152 118.20329 41.047562 118.26562 40.785156 C 118.32796 40.489955 118.39086 40.34375 118.45312 40.34375 C 118.5155 40.34375 118.57641 40.473923 118.63867 40.736328 C 118.73216 40.998726 118.8422 41.507317 118.9668 42.261719 L 121.72266 57.316406 C 121.81614 57.841224 121.91045 58.169597 122.00391 58.300781 C 122.12852 58.431965 122.50191 58.498047 123.125 58.498047 L 126.67773 58.498047 C 127.11391 58.498047 127.39298 58.383906 127.51758 58.154297 C 127.6734 57.924695 127.78344 57.644404 127.8457 57.316406 L 135.64844 25.386719 C 135.71068 25.157099 135.75786 24.960856 135.78906 24.796875 C 135.82026 24.632858 135.83594 24.500732 135.83594 24.402344 C 135.83594 24.27116 135.77304 24.189083 135.64844 24.15625 C 135.55498 24.090657 135.32307 24.058594 134.94922 24.058594 L 130.32227 24.058594 C 129.69917 24.058594 129.3415 24.14067 129.24805 24.304688 C 129.15456 24.43589 129.04452 24.762309 128.91992 25.287109 L 125.60156 39.507812 C 125.44605 40.22794 125.32185 40.720343 125.22852 40.982422 C 125.135 41.244827 125.05641 41.376953 124.99414 41.376953 C 124.93183 41.376953 124.85517 41.228795 124.76172 40.933594 C 124.66827 40.605592 124.54251 40.080973 124.38672 39.359375 L 121.30273 25.435547 C 121.17813 24.877962 121.0386 24.517532 120.88281 24.353516 C 120.72704 24.156702 120.43029 24.058594 119.99414 24.058594 L 117.2832 24.058594 C 116.59783 24.058594 116.17727 24.10669 116.02148 24.205078 C 115.89685 24.303477 115.77304 24.63185 115.64844 25.189453 L 112.42383 39.949219 C 112.29919 40.539607 112.19111 40.950078 112.09766 41.179688 C 112.03539 41.376501 111.97249 41.474609 111.91016 41.474609 C 111.84782 41.474609 111.76923 41.360469 111.67578 41.130859 C 111.61348 40.868461 111.5054 40.425937 111.34961 39.802734 L 108.125 25.878906 C 108.0004 25.255707 107.82941 24.795201 107.61133 24.5 C 107.4244 24.204799 107.04905 24.058594 106.48828 24.058594 L 102.33008 24.058594 z M 140.09766 24.058594 C 139.41228 24.058594 138.99172 24.122722 138.83594 24.253906 C 138.68015 24.352309 138.60352 24.73072 138.60352 25.386719 L 138.60352 56.923828 C 138.60352 57.579812 138.69588 58.006312 138.88281 58.203125 C 139.10089 58.399938 139.50572 58.498047 140.09766 58.498047 L 153.55664 58.498047 C 154.17972 58.498047 154.61599 58.41597 154.86523 58.251953 C 155.11447 58.055151 155.23828 57.612627 155.23828 56.923828 L 155.23828 52.693359 C 155.23828 52.201345 155.16165 51.905029 155.00586 51.806641 C 154.88125 51.675457 154.53734 51.609375 153.97656 51.609375 L 146.64062 51.609375 C 146.17332 51.609375 145.79992 51.527299 145.51953 51.363281 C 145.2703 51.199279 145.14453 50.854877 145.14453 50.330078 L 145.14453 45.410156 C 145.14453 44.885342 145.25457 44.556965 145.47266 44.425781 C 145.69074 44.294597 146.04841 44.230469 146.54688 44.230469 L 151.31445 44.230469 C 151.90638 44.230469 152.20117 43.918125 152.20117 43.294922 L 152.20117 38.423828 C 152.20117 38.063016 152.12454 37.834717 151.96875 37.736328 C 151.84413 37.63794 151.62599 37.587891 151.31445 37.587891 L 146.0332 37.587891 C 145.62819 37.587891 145.37861 37.537842 145.28516 37.439453 C 145.19171 37.308254 145.14453 37.029916 145.14453 36.603516 L 145.14453 32.078125 C 145.14453 31.58611 145.23885 31.273762 145.42578 31.142578 C 145.61271 31.011393 145.93894 30.945312 146.40625 30.945312 L 153.83789 30.945312 C 154.27406 30.945312 154.55313 30.881185 154.67773 30.75 C 154.80233 30.618797 154.86523 30.306453 154.86523 29.814453 L 154.86523 25.287109 C 154.86523 24.729491 154.74143 24.38509 154.49219 24.253906 C 154.27411 24.122722 153.80639 24.058594 153.08984 24.058594 L 140.09766 24.058594 z M 159.16602 24.058594 C 158.66754 24.058594 158.35507 24.172734 158.23047 24.402344 C 158.10586 24.599142 158.04297 24.975604 158.04297 25.533203 L 158.04297 57.21875 C 158.04297 57.645139 158.07439 57.973516 158.13672 58.203125 C 158.23018 58.399938 158.47977 58.498047 158.88477 58.498047 L 165.98828 58.498047 C 168.26253 58.498047 170.06857 58.055523 171.4082 57.169922 C 172.74783 56.251521 173.71471 55.004087 174.30664 53.429688 C 174.92973 51.855285 175.24023 50.101216 175.24023 48.166016 C 175.24023 46.919618 175.03782 45.674136 174.63281 44.427734 C 174.22781 43.181332 173.48102 42.196207 172.39062 41.474609 C 172.14139 41.310593 171.9704 41.196453 171.87695 41.130859 C 171.81462 41.065231 171.7832 40.983154 171.7832 40.884766 C 171.7832 40.786377 171.92273 40.622187 172.20312 40.392578 C 173.97891 38.818179 174.86719 36.653639 174.86719 33.898438 C 174.86719 30.979238 174.07324 28.616501 172.48438 26.8125 C 170.92667 24.975699 168.44853 24.058594 165.05273 24.058594 L 159.16602 24.058594 z M 202.73438 24.058594 C 202.51632 24.058594 202.37483 24.090657 202.3125 24.15625 C 202.25023 24.221842 202.21875 24.37 202.21875 24.599609 L 202.21875 57.513672 C 202.21875 57.874459 202.25023 58.136765 202.3125 58.300781 C 202.40596 58.431966 202.60838 58.498047 202.91992 58.498047 L 208.66797 58.498047 C 208.91718 58.498047 209.07243 58.447997 209.13477 58.349609 C 209.19703 58.251221 209.22852 58.088984 209.22852 57.859375 L 209.22852 24.697266 C 209.22852 24.270866 209.05753 24.058594 208.71484 24.058594 L 202.73438 24.058594 z M 212.94336 24.058594 C 212.53835 24.058594 212.28877 24.106689 212.19531 24.205078 C 212.10186 24.270677 212.05469 24.532988 212.05469 24.992188 L 212.05469 30.453125 C 212.05469 30.813932 212.10186 31.028157 212.19531 31.09375 C 212.28878 31.159343 212.50692 31.191406 212.84961 31.191406 L 217.89648 31.191406 C 218.36384 31.191406 218.62914 31.241456 218.69141 31.339844 C 218.78486 31.405443 218.83008 31.683777 218.83008 32.175781 L 218.83008 57.859375 C 218.83008 58.088984 218.86156 58.251221 218.92383 58.349609 C 218.98613 58.447998 219.14334 58.498047 219.39258 58.498047 L 225.51367 58.498047 C 225.76295 58.498047 225.9182 58.465984 225.98047 58.400391 C 226.0428 58.302003 226.07422 58.12178 226.07422 57.859375 L 226.07422 32.275391 C 226.07422 31.914608 226.1057 31.650345 226.16797 31.486328 C 226.26143 31.289515 226.51101 31.191406 226.91602 31.191406 L 232.24219 31.191406 C 232.64723 31.191406 232.88109 31.127278 232.94336 30.996094 C 233.03681 30.864895 233.08398 30.602586 233.08398 30.208984 L 233.08398 24.894531 C 233.08398 24.533719 233.03681 24.303466 232.94336 24.205078 C 232.88105 24.106689 232.67863 24.058594 232.33594 24.058594 L 212.94336 24.058594 z M 237.39453 24.058594 C 236.70915 24.058594 236.2886 24.122722 236.13281 24.253906 C 235.97703 24.352309 235.89844 24.73072 235.89844 25.386719 L 235.89844 56.923828 C 235.89844 57.579812 235.99275 58.006312 236.17969 58.203125 C 236.39777 58.399938 236.8026 58.498047 237.39453 58.498047 L 250.85352 58.498047 C 251.4766 58.498047 251.91288 58.41597 252.16211 58.251953 C 252.41135 58.055151 252.53516 57.612627 252.53516 56.923828 L 252.53516 52.693359 C 252.53516 52.201345 252.45657 51.905029 252.30078 51.806641 C 252.17617 51.675457 251.83422 51.609375 251.27344 51.609375 L 243.9375 51.609375 C 243.47019 51.609375 243.09484 51.527299 242.81445 51.363281 C 242.56521 51.199279 242.44141 50.854877 242.44141 50.330078 L 242.44141 45.410156 C 242.44141 44.885342 242.54948 44.556965 242.76758 44.425781 C 242.98565 44.294597 243.34528 44.230469 243.84375 44.230469 L 248.60938 44.230469 C 249.2013 44.230469 249.49805 43.918125 249.49805 43.294922 L 249.49805 38.423828 C 249.49805 38.063016 249.41946 37.834717 249.26367 37.736328 C 249.13906 37.63794 248.92091 37.587891 248.60938 37.587891 L 243.32812 37.587891 C 242.92311 37.587891 242.67548 37.537842 242.58203 37.439453 C 242.48858 37.308254 242.44141 37.029916 242.44141 36.603516 L 242.44141 32.078125 C 242.44141 31.58611 242.53376 31.273762 242.7207 31.142578 C 242.90763 31.011393 243.23582 30.945312 243.70312 30.945312 L 251.13281 30.945312 C 251.56899 30.945312 251.85001 30.881185 251.97461 30.75 C 252.09921 30.618797 252.16211 30.306453 252.16211 29.814453 L 252.16211 25.287109 C 252.16211 24.729491 252.03634 24.38509 251.78711 24.253906 C 251.56903 24.122722 251.10131 24.058594 250.38477 24.058594 L 237.39453 24.058594 z M 164.39844 30.453125 L 165.52148 30.453125 C 166.70534 30.453125 167.62311 30.749444 168.27734 31.339844 C 168.93158 31.930246 169.25977 32.783238 169.25977 33.898438 C 169.25977 35.144839 168.90014 36.162021 168.18359 36.949219 C 167.49821 37.70362 166.45467 38.080078 165.05273 38.080078 L 164.25977 38.080078 C 164.13513 38.080078 164.02509 38.048015 163.93164 37.982422 C 163.86937 37.91683 163.83789 37.768672 163.83789 37.539062 L 163.83789 30.847656 C 163.83789 30.585251 164.02459 30.453125 164.39844 30.453125 z M 40.707031 35.916016 C 40.862819 35.916016 40.970903 35.964112 41.033203 36.0625 C 41.126618 36.128107 41.189516 36.342331 41.220703 36.703125 L 42.576172 46.443359 C 42.607359 46.574581 42.623047 46.706707 42.623047 46.837891 L 42.623047 47.132812 C 42.623047 47.460799 42.544424 47.723109 42.388672 47.919922 C 42.264053 48.083939 41.998754 48.166016 41.59375 48.166016 L 39.445312 48.166016 C 39.227249 48.166016 39.040552 48.115966 38.884766 48.017578 C 38.729013 47.886379 38.650391 47.592013 38.650391 47.132812 C 38.650391 46.837611 38.697564 46.443172 38.791016 45.951172 L 40.240234 36.703125 C 40.302499 36.342318 40.34772 36.128093 40.378906 36.0625 C 40.441242 35.964112 40.551279 35.916016 40.707031 35.916016 z M 164.44531 43.492188 L 165.28711 43.492188 C 166.22173 43.492187 167.09428 43.820564 167.9043 44.476562 C 168.74546 45.132562 169.16602 46.27992 169.16602 47.919922 C 169.16602 50.675123 168.02817 52.052734 165.75391 52.052734 L 164.58594 52.052734 C 164.27438 52.052734 164.07197 52.020671 163.97852 51.955078 C 163.88506 51.889475 163.83789 51.691279 163.83789 51.363281 L 163.83789 44.130859 C 163.83789 43.704463 164.04031 43.492188 164.44531 43.492188 z "
       style="font-style:normal;font-variant:normal;font-weight:900;font-stretch:normal;font-size:4.58735px;font-family:'Besley*';-inkscape-font-specification:'Besley* Heavy';letter-spacing:0.860127px;word-spacing:0px;white-space:pre;fill:#28170b;stroke-width:3.29117"
       id="path1087" />
  </g>
</svg>
