<?xml version="1.0" encoding="UTF-8" standalone="no"?>
<svg
   xmlns:svg="http://www.w3.org/2000/svg"
   xmlns="http://www.w3.org/2000/svg"
   xmlns:sodipodi="http://sodipodi.sourceforge.net/DTD/sodipodi-0.dtd"
   xmlns:inkscape="http://www.inkscape.org/namespaces/inkscape"
   inkscape:version="1.1-dev (1:0.92.0+devel+202005110039+9ce7266)"
   sodipodi:docname="head.svg"
   viewBox="0 0 253.12 58.880001"
   height="58.880001"
   width="253.12"
   id="svg2"
   version="1.1">
  <defs
     id="defs6" />
  <sodipodi:namedview
     inkscape:current-layer="g8"
     inkscape:window-maximized="1"
     inkscape:window-y="30"
     inkscape:window-x="0"
     inkscape:cy="29.440001"
     inkscape:cx="126.56"
     inkscape:zoom="4.1995892"
     showgrid="false"
     id="namedview4"
     inkscape:window-height="1017"
     inkscape:window-width="1920"
     inkscape:pageshadow="2"
     inkscape:pageopacity="0"
     guidetolerance="10"
     gridtolerance="10"
     objecttolerance="10"
     borderopacity="1"
     bordercolor="#666666"
     pagecolor="#ffffff" />
  <g
     id="g8"
     inkscape:label="Image"
     inkscape:groupmode="layer">
    <path
       id="path927"
       style="font-style:normal;font-variant:normal;font-weight:normal;font-stretch:normal;font-size:8.99107px;font-family:'Railroad Gothic CC';-inkscape-font-specification:'Railroad Gothic CC';letter-spacing:0px;word-spacing:0px;white-space:pre;fill:#28170b;stroke-width:5.47211"
       d="M 6.302735,2e-6 C 5.392226,2e-6 4.551679,0.151006 3.78125,0.451174 3.015823,0.751342 2.350473,1.170636 1.785157,1.71094 1.21984,2.246237 0.780019,2.875302 0.464844,3.595705 0.154671,4.316106 0,5.092269 0,5.927736 0,7.143414 0.267435,8.194587 0.802735,9.08008 c 0.535299,0.885498 1.280795,1.571372 2.236328,2.056641 0.960537,0.480269 2.074135,0.720703 3.339844,0.720703 1.11562,0 2.057693,-0.186433 2.828125,-0.556641 0.770429,-0.375208 1.373348,-0.889554 1.808593,-1.544921 0.435231,-0.66037 0.705476,-1.417104 0.810547,-2.267579 0.01985,-0.140069 0.01072,-0.235115 -0.0293,-0.285156 -0.04001,-0.05004 -0.161214,-0.07422 -0.361328,-0.07422 H 9.964841 c -0.185096,0 -0.304345,0.03542 -0.359375,0.105469 C 9.550436,7.299426 9.500102,7.433571 9.455075,7.638673 9.30499,8.329057 8.978791,8.869548 8.478513,9.259767 7.978232,9.649985 7.378121,9.845704 6.677732,9.845704 5.822253,9.845704 5.144807,9.515839 4.644529,8.85547 4.149252,8.195101 3.902341,7.218457 3.902341,5.927735 c 0,-1.290718 0.241291,-2.280316 0.726563,-2.970703 0.485271,-0.690383 1.118002,-1.035156 1.898437,-1.035156 0.790443,0 1.381266,0.214293 1.771484,0.644531 0.395236,0.430242 0.677578,0.982827 0.847657,1.658204 0.035,0.13508 0.07887,0.227302 0.128906,0.277343 0.05002,0.05004 0.163643,0.07617 0.34375,0.07617 h 1.599609 c 0.150098,0 0.242321,-0.02051 0.277344,-0.06055 0.04001,-0.04001 0.06055,-0.129462 0.06055,-0.269531 V 0.660152 c 0,-0.185096 -0.01771,-0.301521 -0.05273,-0.351562 -0.03001,-0.05503 -0.137145,-0.08398 -0.322266,-0.08398 h -1.050781 c -0.14007,0 -0.235116,0.01109 -0.285156,0.03125 -0.04503,0.02001 -0.09536,0.06472 -0.150391,0.134765 L 9.44727,0.720703 C 9.322193,0.880703 9.224323,0.966484 9.154301,0.976563 9.089271,0.986563 8.97931,0.933413 8.824223,0.81836 8.504044,0.568223 8.133131,0.369693 7.712895,0.22461 7.297664,0.074537 6.828033,0 6.302739,0 Z m 15.449219,0 c -1.315737,0 -2.444241,0.25253 -3.384766,0.757813 -0.940525,0.500278 -1.664639,1.195438 -2.169922,2.085937 -0.500278,0.890497 -0.75,1.918335 -0.75,3.083984 0,1.165652 0.249722,2.195441 0.75,3.085938 0.505283,0.8905 1.229397,1.58847 2.169922,2.09375 0.940525,0.500278 2.069029,0.75 3.384766,0.75 1.265703,0 2.370876,-0.249722 3.316406,-0.75 0.945529,-0.50528 1.678929,-1.20325 2.199218,-2.09375 0.525294,-0.890497 0.78711,-1.920286 0.78711,-3.085938 0,-1.165649 -0.252528,-2.193487 -0.757813,-3.083984 C 26.796599,1.953253 26.075294,1.258093 25.134766,0.757815 24.194241,0.252532 23.067685,2e-6 21.751954,2e-6 Z m 53.144532,0 c -1.31574,0 -2.44424,0.25253 -3.38477,0.757813 -0.94052,0.500278 -1.66268,1.195438 -2.16797,2.085937 -0.50028,0.890497 -0.75195,1.918335 -0.75195,3.083984 0,1.165652 0.25167,2.195441 0.75195,3.085938 0.50529,0.8905 1.22745,1.58847 2.16797,2.09375 0.94053,0.500278 2.06903,0.75 3.38477,0.75 1.2657,0 2.37088,-0.249722 3.31641,-0.75 0.94552,-0.50528 1.67892,-1.20325 2.19921,-2.09375 0.5253,-0.890497 0.78711,-1.920286 0.78711,-3.085938 0,-1.165649 -0.25253,-2.193487 -0.75781,-3.083984 C 79.941126,1.953253 79.221776,1.258093 78.281246,0.757815 77.340726,0.252532 76.212216,2e-6 74.896486,2e-6 Z m 38.107424,0 c -0.91051,0 -1.75105,0.151004 -2.52148,0.451172 -0.76543,0.300168 -1.43078,0.719462 -1.9961,1.259766 -0.56531,0.535297 -1.00709,1.164362 -1.32226,1.884765 -0.31018,0.720401 -0.46485,1.496564 -0.46485,2.332031 0,1.215678 0.26744,2.266851 0.80274,3.152344 0.5353,0.885498 1.28079,1.571372 2.23633,2.056641 0.96053,0.480269 2.07413,0.720703 3.33984,0.720703 1.11562,0 2.05965,-0.186433 2.83008,-0.556641 0.77043,-0.375208 1.37335,-0.889554 1.80859,-1.544921 0.43523,-0.66037 0.70548,-1.417104 0.81055,-2.267579 0.0198,-0.140069 0.009,-0.235115 -0.0312,-0.285156 -0.04,-0.05004 -0.15926,-0.07422 -0.35938,-0.07422 h -1.4707 c -0.1851,0 -0.3063,0.03542 -0.36133,0.105469 -0.055,0.06505 -0.10536,0.199195 -0.15039,0.404297 -0.15008,0.690384 -0.47433,1.230875 -0.97461,1.621094 -0.50028,0.390218 -1.10039,0.585937 -1.80078,0.585937 -0.85548,0 -1.53292,-0.329865 -2.0332,-0.990234 -0.49528,-0.660369 -0.74414,-1.637013 -0.74414,-2.927735 0,-1.290718 0.24324,-2.280316 0.72851,-2.970703 0.48527,-0.690383 1.11801,-1.035156 1.89844,-1.035156 0.79044,0 1.38127,0.214293 1.77148,0.644531 0.39521,0.430242 0.67756,0.982827 0.84766,1.658204 0.035,0.13508 0.0769,0.227302 0.12695,0.277343 0.05,0.05004 0.16562,0.07617 0.34571,0.07617 h 1.59765 c 0.1501,0 0.24232,-0.02051 0.27735,-0.06055 0.04,-0.04001 0.0605,-0.129462 0.0605,-0.269531 V 0.660152 c 0,-0.185096 -0.0177,-0.301521 -0.0527,-0.351562 -0.03,-0.05503 -0.13714,-0.08398 -0.32227,-0.08398 h -1.05078 c -0.14007,0 -0.23511,0.01109 -0.28515,0.03125 -0.045,0.02001 -0.0954,0.06472 -0.15039,0.134765 l -0.2461,0.330078 c -0.12508,0.16 -0.22294,0.245781 -0.29297,0.25586 -0.065,0.01 -0.17499,-0.04315 -0.33007,-0.158203 -0.32018,-0.250137 -0.6911,-0.448667 -1.11133,-0.59375 C 113.99888,0.074537 113.52924,0 113.00395,0 Z m 15.44727,0 c -1.31574,0 -2.44424,0.25253 -3.38477,0.757813 -0.94052,0.500278 -1.66269,1.195438 -2.16797,2.085937 -0.50028,0.890497 -0.75,1.918335 -0.75,3.083984 0,1.165652 0.24972,2.195441 0.75,3.085938 0.50528,0.8905 1.22745,1.58847 2.16797,2.09375 0.94053,0.500278 2.06903,0.75 3.38477,0.75 1.2657,0 2.37087,-0.249722 3.3164,-0.75 0.94553,-0.50528 1.67893,-1.20325 2.19922,-2.09375 0.5253,-0.890497 0.78711,-1.920286 0.78711,-3.085938 0,-1.165649 -0.25253,-2.193487 -0.75781,-3.083984 C 133.49582,1.953253 132.77647,1.258093 131.83594,0.757815 130.89542,0.252532 129.76691,2e-6 128.45118,2e-6 Z m 60.47265,0 c -0.91051,0 -1.75105,0.151004 -2.52148,0.451172 -0.76543,0.300168 -1.43078,0.719462 -1.9961,1.259766 -0.56531,0.535297 -1.00513,1.164362 -1.32031,1.884765 -0.31017,0.720401 -0.46484,1.496564 -0.46484,2.332031 0,1.215678 0.26743,2.266851 0.80273,3.152344 0.5353,0.885498 1.2808,1.571372 2.23633,2.056641 0.96054,0.480269 2.07414,0.720703 3.33984,0.720703 1.11563,0 2.0577,-0.186433 2.82813,-0.556641 0.77043,-0.375208 1.37335,-0.889554 1.80859,-1.544921 0.43523,-0.66037 0.70548,-1.417104 0.81055,-2.267579 0.0199,-0.140069 0.0107,-0.235115 -0.0293,-0.285156 -0.04,-0.05004 -0.16121,-0.07422 -0.36133,-0.07422 h -1.4707 c -0.18509,0 -0.30434,0.03545 -0.35937,0.105469 -0.055,0.06505 -0.10537,0.199195 -0.15039,0.404297 -0.15009,0.690384 -0.47433,1.230875 -0.97461,1.621094 -0.50028,0.390218 -1.10235,0.585937 -1.80274,0.585937 -0.85548,0 -1.53292,-0.329865 -2.0332,-0.990234 -0.49528,-0.660369 -0.74219,-1.637013 -0.74219,-2.927735 0,-1.290718 0.24325,-2.280316 0.72852,-2.970703 0.48527,-0.690386 1.118,-1.035156 1.89844,-1.035156 0.79044,0 1.37931,0.21429 1.76953,0.644531 0.39523,0.430242 0.67953,0.982827 0.84961,1.658204 0.035,0.13508 0.0769,0.227302 0.12695,0.277343 0.05,0.05004 0.16562,0.07617 0.3457,0.07617 h 1.59766 c 0.1501,0 0.24232,-0.02051 0.27734,-0.06055 0.04,-0.04001 0.0606,-0.129462 0.0606,-0.269531 V 0.660152 c 0,-0.185096 -0.0177,-0.301521 -0.0527,-0.351562 -0.03,-0.05503 -0.13714,-0.08398 -0.32226,-0.08398 h -1.05078 c -0.14007,-1e-6 -0.23512,0.01109 -0.28516,0.03125 -0.045,0.02001 -0.0954,0.06472 -0.15039,0.134765 l -0.24805,0.330078 c -0.12507,0.16 -0.22294,0.245781 -0.29296,0.25586 -0.065,0.01 -0.175,-0.04315 -0.33008,-0.158203 C 191.12523,0.568223 190.75626,0.369693 190.33603,0.22461 189.9208,0.074537 189.44921,0 188.92392,0 Z M 30.738282,0.300783 c -0.175093,0 -0.297141,0.01774 -0.367188,0.05273 -0.07002,0.03502 -0.105469,0.145827 -0.105469,0.335937 v 1.291016 c 0,0.155061 0.02333,0.252931 0.06836,0.292969 0.04004,0.03502 0.135084,0.05273 0.285156,0.05273 h 0.794922 c 0.255128,0 0.408943,0.02333 0.458984,0.06836 0.05503,0.04503 0.114655,0.157784 0.179688,0.337891 l 3.113281,8.628914 c 0.06004,0.170104 0.121622,0.270772 0.181641,0.300782 0.06503,0.03001 0.214081,0.04492 0.449218,0.04492 H 36.9375 c 0.220107,0 0.350588,-0.02613 0.390625,-0.07617 0.04503,-0.05004 0.09903,-0.145087 0.164063,-0.285157 l 2.679687,-5.626953 c 0.08005,-0.175093 0.163008,-0.263672 0.248047,-0.263672 0.08005,0 0.151764,0.08578 0.216797,0.25586 0.06503,0.170099 0.124658,0.363864 0.179688,0.583984 0.05503,0.215131 0.110985,0.398756 0.166015,0.548828 l 1.681641,4.472656 c 0.05503,0.145084 0.09974,0.245752 0.134765,0.300782 0.03502,0.06002 0.157071,0.08984 0.367188,0.08984 h 1.214844 c 0.185096,0 0.31192,-0.01216 0.376953,-0.03711 0.06501,-0.02502 0.121834,-0.107978 0.171875,-0.248047 l 2.99414,-8.660156 c 0.05503,-0.160101 0.111857,-0.272858 0.171876,-0.337891 0.06003,-0.06503 0.2026,-0.09766 0.427734,-0.09766 h 0.886719 c 0.150072,0 0.247942,-0.01491 0.292968,-0.04492 0.05004,-0.03502 0.07422,-0.124448 0.07422,-0.269531 V 0.65234 c 0,-0.170104 -0.03825,-0.268819 -0.113281,-0.298828 -0.07504,-0.035 -0.188664,-0.05273 -0.34375,-0.05273 h -4.21875 c -0.185096,0 -0.301522,0.02418 -0.351563,0.07422 -0.05004,0.04503 -0.07617,0.166229 -0.07617,0.361328 v 1.185547 c 0,0.180107 0.02895,0.290911 0.08398,0.335938 0.06002,0.04503 0.173646,0.06836 0.34375,0.06836 h 0.466797 c 0.280156,0 0.419922,0.03822 0.419922,0.113281 0.005,0.07002 -0.02481,0.197691 -0.08984,0.382813 l -1.298828,3.736328 c -0.09005,0.265146 -0.167389,0.398437 -0.232422,0.398437 -0.06501,0 -0.123787,-0.07087 -0.173828,-0.210937 -0.04503,-0.145091 -0.08974,-0.314667 -0.134766,-0.509766 -0.04001,-0.200112 -0.08755,-0.378117 -0.14258,-0.533204 l -1.011719,-3.0625 c -0.04032,-0.120063 -0.05141,-0.201067 -0.03125,-0.246094 0.02502,-0.04503 0.125689,-0.06836 0.300781,-0.06836 h 0.390626 c 0.175118,0 0.276631,-0.03909 0.30664,-0.119141 0.03502,-0.08003 0.05273,-0.201227 0.05273,-0.361328 V 0.599611 c 0,-0.145134 -0.06522,-0.228962 -0.195312,-0.253907 -0.125049,-0.03001 -0.252721,-0.04492 -0.382812,-0.04492 h -5.011719 c -0.200114,0 -0.321316,0.02983 -0.361328,0.08984 -0.03502,0.06005 -0.05273,0.191382 -0.05273,0.396485 v 1.179687 c 0,0.145058 0.01216,0.242928 0.03711,0.292969 0.03003,0.04503 0.11579,0.06641 0.255859,0.06641 h 0.871094 c 0.08504,0 0.141865,0.01109 0.171875,0.03125 0.03487,0.01502 0.06187,0.05411 0.08203,0.119141 l 0.06836,0.179687 c 0.05495,0.155087 0.06712,0.279087 0.03711,0.369141 -0.03001,0.08506 -0.08034,0.195868 -0.150391,0.335937 l -1.492187,3.123047 c -0.06002,0.125077 -0.115975,0.223792 -0.166016,0.298828 -0.05004,0.07005 -0.115262,0.105469 -0.195312,0.105469 -0.06005,0 -0.111224,-0.05683 -0.15625,-0.171875 -0.04503,-0.115066 -0.08889,-0.254832 -0.128907,-0.419922 -0.035,-0.170091 -0.07691,-0.327573 -0.126953,-0.472656 L 35.931641,2.582033 c -0.04004,-0.129915 -0.02512,-0.204452 0.04492,-0.224609 0.07005,-0.02016 0.174384,-0.03125 0.314453,-0.03125 h 0.332031 c 0.19011,0 0.300914,-0.027 0.335938,-0.08203 0.04001,-0.05503 0.06055,-0.177078 0.06055,-0.367188 V 0.736331 c 0,-0.21513 -0.03822,-0.341929 -0.113282,-0.376953 -0.07004,-0.04001 -0.204183,-0.05859 -0.404296,-0.05859 z m 22.492184,0 c -0.14007,0 -0.235112,0.027 -0.285153,0.08203 -0.04503,0.05505 -0.06836,0.158521 -0.06836,0.308593 v 1.320313 c -10e-7,0.13508 0.01771,0.221706 0.05273,0.261719 0.04004,0.03502 0.129458,0.05273 0.269528,0.05273 h 1.02149 c 0.13009,0 0.21305,0.03262 0.24804,0.09766 0.04,0.06002 0.0586,0.157889 0.0586,0.292969 v 6.349609 c 0,0.170079 -0.0177,0.289328 -0.0527,0.359375 -0.035,0.07005 -0.13373,0.105469 -0.29882,0.105469 h -1.03516 c -0.0901,0 -0.158099,0.01216 -0.203126,0.03711 -0.04001,0.02502 -0.06055,0.08744 -0.06055,0.1875 v 1.304687 c 0,0.17509 0.01491,0.302762 0.04492,0.382813 0.03502,0.07504 0.138511,0.113281 0.308591,0.113281 h 6.55078 c 1.20568,0 2.18318,-0.09505 2.9336,-0.285157 0.75042,-0.195109 1.29934,-0.519355 1.64453,-0.974609 0.3502,-0.460258 0.52539,-1.092132 0.52539,-1.892578 0,-0.685385 -0.22834,-1.23797 -0.68359,-1.658203 -0.45526,-0.425255 -1.10008,-0.7225 -1.93555,-0.892578 -0.17008,-0.03502 -0.25586,-0.08903 -0.25586,-0.164063 0,-0.07504 0.0709,-0.133815 0.21094,-0.173828 0.67037,-0.205115 1.1791,-0.507979 1.52929,-0.908203 0.3552,-0.400222 0.53321,-0.910901 0.53321,-1.53125 0,-0.700389 -0.17239,-1.252977 -0.51758,-1.658203 -0.34019,-0.405244 -0.87506,-0.69125 -1.60547,-0.861328 -0.73041,-0.170079 -1.67443,-0.25586 -2.83008,-0.25586 z m 29.95117,0 c -0.21512,0 -0.36613,0.02983 -0.45117,0.08984 -0.085,0.05502 -0.12695,0.20041 -0.12695,0.435547 v 1.117188 c 0,0.155061 0.0149,0.258552 0.0449,0.308593 0.03,0.05004 0.12226,0.07422 0.27735,0.07422 h 0.79492 c 0.22512,0 0.36489,0.02613 0.41992,0.07617 0.06,0.05002 0.13371,0.13944 0.21875,0.269531 l 3.203123,4.675781 c 0.075,0.11006 0.131,0.208775 0.16602,0.298828 0.035,0.08506 0.0527,0.230445 0.0527,0.435547 v 1.080079 c 0,0.155086 -0.0177,0.255754 -0.0527,0.300781 -0.0351,0.04503 -0.12727,0.06836 -0.277343,0.06836 h -1.02149 c -0.14007,0 -0.22389,0.02138 -0.2539,0.06641 -0.03,0.04004 -0.0449,0.132261 -0.0449,0.277344 v 1.41211 c 0,0.110059 0.0149,0.181773 0.0449,0.216796 0.03,0.03502 0.0933,0.05273 0.19335,0.05273 h 6.484383 c 0.11512,0 0.18599,-0.02053 0.21094,-0.06055 0.03,-0.04004 0.0449,-0.117373 0.0449,-0.232422 V 9.898432 c 0,-0.150073 -0.0149,-0.247942 -0.0449,-0.292969 -0.03,-0.05004 -0.11859,-0.07422 -0.26367,-0.07422 h -1.19336 c -0.14007,0 -0.2239,-0.02333 -0.25391,-0.06836 -0.03,-0.05004 -0.0449,-0.145087 -0.0449,-0.285157 V 7.332023 c 0,-0.235139 0.0242,-0.395429 0.0742,-0.480468 0.055,-0.08507 0.12956,-0.189402 0.22461,-0.314453 l 3.14453,-3.894532 c 0.0951,-0.115074 0.1724,-0.195207 0.23242,-0.240234 0.065,-0.05004 0.20761,-0.07617 0.42773,-0.07617 h 0.4961 c 0.10005,0 0.16897,-0.0091 0.20898,-0.0293 0.045,-0.02001 0.0684,-0.07878 0.0684,-0.173828 V 0.593741 c 0,-0.145134 -0.0298,-0.230914 -0.0898,-0.255859 -0.055,-0.02495 -0.14725,-0.03711 -0.27735,-0.03711 h -4.66015 c -0.16509,0 -0.27138,0.01858 -0.31641,0.05859 -0.04,0.04004 -0.0586,0.146328 -0.0586,0.316406 v 1.251953 c 0,0.190111 0.027,0.305691 0.082,0.345704 0.055,0.03502 0.17708,0.05273 0.36719,0.05273 h 0.57812 c 0.1601,0 0.26724,0.02333 0.32227,0.06836 0.055,0.045 0.0196,0.14654 -0.10547,0.306641 l -1.44727,1.876953 c -0.14007,0.18011 -0.2444,0.307776 -0.31445,0.382813 -0.07,0.07015 -0.14089,0.07651 -0.21094,0.02148 -0.065,-0.05503 -0.16852,-0.179901 -0.30859,-0.375 l -1.28906,-1.875 c -0.11006,-0.160101 -0.14831,-0.269189 -0.11329,-0.324219 0.035,-0.05503 0.14496,-0.08203 0.33008,-0.08203 h 0.63867 c 0.14511,0 0.23734,-0.02053 0.27735,-0.06055 0.045,-0.04503 0.0664,-0.140943 0.0664,-0.291015 V 0.736306 c 0,-0.205127 -0.0391,-0.329128 -0.11914,-0.36914 -0.075,-0.04503 -0.20832,-0.06641 -0.39843,-0.06641 z m 55.349614,0 c -0.17007,0 -0.27161,0.02418 -0.30664,0.07422 -0.03,0.05004 -0.0469,0.16 -0.0469,0.330078 v 1.335938 c 0,0.120088 0.0169,0.197423 0.0469,0.232422 0.035,0.03502 0.10674,0.05273 0.2168,0.05273 h 1.06641 c 0.14864,2.65e-4 0.23968,0.0264 0.26953,0.07617 0.035,0.04503 0.0527,0.143741 0.0527,0.298828 V 9.13281 c 0,0.170078 -0.0261,0.280037 -0.0762,0.330078 -0.05,0.04503 -0.15718,0.06836 -0.32227,0.06836 h -1.03515 c -0.0951,0 -0.15474,0.01856 -0.17969,0.05859 -0.0249,0.04001 -0.0391,0.110881 -0.0391,0.210937 v 1.396485 c 0,0.155086 0.0177,0.253801 0.0527,0.298828 0.04,0.04001 0.13509,0.06055 0.28516,0.06055 h 10.28125 c 0.1601,0 0.25515,-0.02418 0.28516,-0.07422 0.035,-0.05002 0.0527,-0.156305 0.0527,-0.316406 V 6.648434 c 0,-0.120063 -0.0205,-0.1946 -0.0606,-0.22461 -0.04,-0.03001 -0.12297,-0.04492 -0.24804,-0.04492 h -1.18555 c -0.15993,0 -0.24937,0.01771 -0.26953,0.05273 -0.0199,0.03003 -0.0349,0.122257 -0.0449,0.277343 -0.025,0.745419 -0.14425,1.324148 -0.35938,1.734376 -0.21512,0.405213 -0.51799,0.687555 -0.9082,0.847656 -0.39022,0.160101 -0.86547,0.240234 -1.42578,0.240234 h -0.90821 c -0.17511,0 -0.2814,-0.02613 -0.3164,-0.07617 -0.035,-0.05503 -0.0508,-0.168657 -0.0508,-0.34375 V 2.626948 c 0,-0.145159 0.0242,-0.230914 0.0742,-0.255859 0.05,-0.03001 0.14789,-0.04492 0.29297,-0.04492 h 1.18555 c 0.15509,0 0.25942,-0.01771 0.31445,-0.05273 0.055,-0.04001 0.082,-0.141551 0.082,-0.306641 V 0.660157 c 1e-5,-0.1601 -0.0242,-0.258815 -0.0742,-0.298828 -0.045,-0.04004 -0.1429,-0.06055 -0.29297,-0.06055 z m 14.50977,0 c -0.17008,0 -0.27162,0.02418 -0.30664,0.07422 -0.03,0.05004 -0.0449,0.16 -0.0449,0.330078 v 1.335938 c 0,0.120088 0.0149,0.197423 0.0449,0.232422 0.035,0.03502 0.10674,0.05273 0.2168,0.05273 h 1.0664 c 0.15007,0 0.23952,0.02613 0.26953,0.07617 0.035,0.04503 0.0527,0.143741 0.0527,0.298828 V 9.13281 c 0,0.170078 -0.0261,0.280037 -0.0762,0.330078 -0.05,0.04503 -0.15718,0.06836 -0.32227,0.06836 h -1.03516 c -0.0951,0 -0.15474,0.01856 -0.17968,0.05859 -0.025,0.04001 -0.0371,0.110881 -0.0371,0.210937 v 1.396485 c 0,0.155086 0.0158,0.253801 0.0508,0.298828 0.04,0.04001 0.13508,0.06055 0.28516,0.06055 h 10.28124 c 0.16011,0 0.25515,-0.02418 0.28516,-0.07422 0.035,-0.05002 0.0527,-0.156305 0.0527,-0.316406 V 6.648434 c 0,-0.120063 -0.0205,-0.1946 -0.0606,-0.22461 -0.04,-0.03001 -0.12102,-0.04492 -0.24609,-0.04492 h -1.18555 c -0.15995,0 -0.25133,0.01771 -0.27149,0.05273 -0.0199,0.03003 -0.0348,0.122257 -0.0449,0.277343 -0.025,0.745419 -0.14424,1.324148 -0.35937,1.734376 -0.21512,0.405213 -0.51799,0.687555 -0.90821,0.847656 -0.39021,0.160101 -0.86547,0.240234 -1.42578,0.240234 h -0.9082 c -0.17509,0 -0.27943,-0.02613 -0.31445,-0.07617 -0.035,-0.05503 -0.0527,-0.168657 -0.0527,-0.34375 V 2.626948 c 0,-0.145159 0.0242,-0.230914 0.0742,-0.255859 0.05,-0.03001 0.14789,-0.04492 0.29297,-0.04492 h 1.18555 c 0.15508,0 0.25942,-0.01771 0.31445,-0.05273 0.055,-0.04001 0.084,-0.141551 0.084,-0.306641 V 0.660157 c 0,-0.1601 -0.0261,-0.258815 -0.0762,-0.298828 -0.045,-0.04004 -0.14289,-0.06055 -0.29297,-0.06055 z m 14.57812,0 c -0.15508,0 -0.26504,0.01491 -0.33007,0.04492 -0.06,0.03003 -0.0899,0.130703 -0.0899,0.300781 v 1.320313 c 0,0.150072 0.0177,0.247942 0.0527,0.292969 0.04,0.04503 0.13593,0.06641 0.29101,0.06641 h 0.97657 c 0.13508,0 0.2217,0.01491 0.26171,0.04492 0.045,0.03001 0.0684,0.110143 0.0684,0.240234 v 6.603516 c 0,0.160176 -0.0149,0.252399 -0.0449,0.277344 -0.03,0.02495 -0.12505,0.03906 -0.28515,0.03906 h -1.05079 c -0.12507,0 -0.20241,0.0064 -0.23242,0.02148 -0.0249,0.01499 -0.0371,0.08866 -0.0371,0.21875 v 1.515626 c 0,0.16 0.0242,0.243827 0.0742,0.253906 0.05,0.01008 0.15071,0.01563 0.30078,0.01563 h 10.92578 c 0.16011,0 0.25515,-0.0091 0.28516,-0.0293 0.03,-0.025 0.0449,-0.116398 0.0449,-0.271484 V 7.054686 c 0,-0.16509 -0.006,-0.268582 -0.0215,-0.308594 -0.015,-0.04503 -0.10922,-0.06641 -0.2793,-0.06641 h -1.27539 c -0.20498,0 -0.31773,0.02418 -0.33789,0.07422 -0.0199,0.05002 -0.0348,0.171218 -0.0449,0.361328 -0.015,0.57532 -0.0895,1.039332 -0.22461,1.394532 -0.13508,0.3552 -0.3727,0.61616 -0.71289,0.78125 -0.33519,0.160101 -0.81972,0.240234 -1.45508,0.240234 h -1.69727 c -0.17007,0 -0.28003,-0.0055 -0.33007,-0.01563 -0.05,-0.01502 -0.0742,-0.110063 -0.0742,-0.285156 V 7.113272 c 0,-0.290164 0.11558,-0.433593 0.3457,-0.433593 h 0.0449 c 0.19513,0 0.38242,0.06609 0.5625,0.201172 0.18509,0.130073 0.34257,0.301602 0.47266,0.511718 0.13508,0.205118 0.2217,0.422221 0.26172,0.652344 0.0249,0.125077 0.0482,0.222947 0.0684,0.292969 0.025,0.06503 0.11444,0.09766 0.26953,0.09766 h 0.81055 c 0.14006,0 0.22864,-0.02053 0.26367,-0.06055 0.035,-0.03999 0.0527,-0.125768 0.0527,-0.255859 V 3.76757 c 0,-0.160101 -0.0205,-0.260768 -0.0606,-0.300781 -0.04,-0.04004 -0.14068,-0.06055 -0.30078,-0.06055 h -0.83203 c -0.10514,0 -0.17037,0.03262 -0.19531,0.09766 -0.0249,0.06004 -0.0482,0.148623 -0.0684,0.263672 -0.06,0.350194 -0.20822,0.659537 -0.44336,0.929688 -0.23513,0.270153 -0.54447,0.40625 -0.92969,0.40625 h -0.0371 c -0.12006,0 -0.19739,-0.027 -0.23242,-0.08203 -0.035,-0.05505 -0.0527,-0.173433 -0.0527,-0.353515 V 2.679683 c 0,-0.160076 0.0354,-0.257946 0.10547,-0.292969 0.075,-0.04001 0.18499,-0.06055 0.33007,-0.06055 h 1.81641 c 0.55031,0 0.97241,0.07087 1.26758,0.210938 0.30018,0.135075 0.508,0.357795 0.62305,0.667968 0.11996,0.305169 0.18605,0.71237 0.20117,1.222656 0.005,0.09504 0.0219,0.16958 0.0469,0.22461 0.025,0.05004 0.0911,0.07617 0.20117,0.07617 h 1.42579 c 0.14493,0 0.22789,-0.01216 0.24804,-0.03711 0.0249,-0.02502 0.0371,-0.107977 0.0371,-0.248046 V 0.660146 c 0,-0.140069 -0.0177,-0.235115 -0.0527,-0.285156 -0.03,-0.05004 -0.11664,-0.07422 -0.26172,-0.07422 z m 30.73829,0 c -0.1601,0 -0.25515,0.03262 -0.28516,0.09766 -0.03,0.06503 -0.0449,0.177789 -0.0449,0.33789 v 3.984375 c 0,0.145084 0.0298,0.23171 0.0898,0.261719 0.06,0.03001 0.16351,0.04492 0.3086,0.04492 h 0.9082 c 0.19511,0 0.32559,-0.02418 0.39062,-0.07422 0.07,-0.05503 0.10629,-0.173408 0.11133,-0.353515 0.015,-0.620347 0.0803,-1.096455 0.19531,-1.431641 0.11507,-0.340188 0.31078,-0.57781 0.58594,-0.712891 0.28016,-0.13508 0.66683,-0.203125 1.16211,-0.203125 h 0.1211 c 0.17007,0 0.25585,0.09505 0.25585,0.285157 v 6.505859 c 0,0.200116 -0.029,0.333404 -0.084,0.398437 -0.055,0.06002 -0.1827,0.08984 -0.38281,0.08984 h -0.99024 c -0.14508,0 -0.24013,0.02418 -0.28515,0.07422 -0.04,0.05004 -0.0606,0.150709 -0.0606,0.300781 v 1.267578 c 0,0.170104 0.029,0.277239 0.084,0.322266 0.06,0.04004 0.16718,0.06055 0.32227,0.06055 h 6.00391 c 0.17509,0 0.28785,-0.02138 0.33789,-0.06641 0.055,-0.05004 0.082,-0.165621 0.082,-0.345703 V 9.943359 c 0,-0.160101 -0.027,-0.267236 -0.082,-0.322266 -0.055,-0.06002 -0.17061,-0.08984 -0.34571,-0.08984 h -0.8789 c -0.23512,0 -0.3777,-0.04104 -0.42774,-0.121094 -0.045,-0.08504 -0.0664,-0.245331 -0.0664,-0.480468 V 2.574222 c 0,-0.11006 0.0186,-0.190194 0.0586,-0.240235 0.04,-0.05503 0.1165,-0.08203 0.22656,-0.08203 h 0.0899 c 0.50028,0 0.88695,0.06804 1.16211,0.203125 0.27516,0.135078 0.47088,0.372701 0.58593,0.712891 0.11498,0.340188 0.1802,0.821915 0.19532,1.447265 0.005,0.185097 0.032,0.300677 0.082,0.345704 0.055,0.04503 0.1799,0.06641 0.375,0.06641 h 0.88672 c 0.20011,0 0.32778,-0.02138 0.38281,-0.06641 0.055,-0.05002 0.082,-0.171218 0.082,-0.361328 V 0.66016 c 0,-0.130091 -0.0205,-0.222313 -0.0605,-0.277343 -0.04,-0.05503 -0.12017,-0.08203 -0.24023,-0.08203 z m 15.54297,0 c -0.18011,0 -0.28725,0.027 -0.32227,0.08203 -0.035,0.05002 -0.0527,0.165596 -0.0527,0.345703 v 1.08789 c -1e-5,0.16509 0.027,0.266603 0.082,0.306641 0.055,0.03502 0.16132,0.05273 0.3164,0.05273 h 1.06446 c 0.1601,0 0.25514,0.02895 0.28515,0.08398 0.035,0.05503 0.0527,0.162165 0.0527,0.322265 v 6.746094 c 0,0.155087 -0.0214,0.252956 -0.0664,0.292969 -0.045,0.04004 -0.14007,0.05859 -0.28516,0.05859 h -1.03711 c -0.15511,0 -0.26224,0.02053 -0.32226,0.06055 -0.06,0.03502 -0.0898,0.138516 -0.0898,0.308594 v 1.087891 c -1e-5,0.175093 0.0205,0.290673 0.0605,0.345703 0.04,0.05004 0.14438,0.07422 0.31446,0.07422 h 6.52929 c 0.16509,0 0.26663,-0.02053 0.30664,-0.06055 0.045,-0.04001 0.0684,-0.144349 0.0684,-0.314453 V 9.935536 c 0,-0.124926 -0.0298,-0.196639 -0.0898,-0.216797 -0.055,-0.02495 -0.14643,-0.03711 -0.27149,-0.03711 h -1.18554 c -0.16509,0 -0.27505,-0.01687 -0.33008,-0.04687 -0.05,-0.03001 -0.0742,-0.125056 -0.0742,-0.285156 V 2.566399 c 0,-0.1601 0.0205,-0.264412 0.0605,-0.314453 0.045,-0.05004 0.14936,-0.07617 0.31445,-0.07617 h 1.17773 c 0.1751,0 0.28506,-0.02138 0.33008,-0.06641 0.045,-0.04503 0.0684,-0.157783 0.0684,-0.337891 V 0.720694 c 0,-0.170104 -0.0233,-0.28286 -0.0684,-0.33789 -0.045,-0.05503 -0.15778,-0.08203 -0.33789,-0.08203 z m 10.64843,0 c -0.18509,0 -0.30434,0.01774 -0.35937,0.05273 -0.05,0.03001 -0.0742,0.134346 -0.0742,0.314453 v 1.216797 c 0,0.16509 0.0186,0.278717 0.0586,0.34375 0.04,0.06503 0.14913,0.09766 0.32422,0.09766 h 0.90625 c 0.22013,0 0.35903,0.01771 0.41406,0.05273 0.055,0.03003 0.11466,0.119459 0.17969,0.269532 l 3.72266,8.720703 c 0.075,0.180107 0.15237,0.292864 0.23242,0.33789 0.0851,0.05004 0.26024,0.07422 0.52539,0.07422 h 1.89062 c 0.20011,0 0.33988,-0.01771 0.41993,-0.05273 0.085,-0.03003 0.14466,-0.08121 0.17968,-0.15625 0.04,-0.07501 0.0876,-0.178503 0.14258,-0.308594 l 3.79102,-8.554688 c 0.06,-0.13508 0.11967,-0.232949 0.17969,-0.292968 0.065,-0.06002 0.19919,-0.08984 0.40429,-0.08984 h 0.67578 c 0.1301,0 0.22232,-0.01858 0.27735,-0.05859 0.055,-0.04503 0.084,-0.127984 0.084,-0.248047 V 0.720713 c 0,-0.19011 -0.041,-0.308489 -0.12109,-0.353515 -0.075,-0.04503 -0.19991,-0.06641 -0.375,-0.06641 h -4.06836 c -0.19011,0 -0.30092,0.03262 -0.33594,0.09766 -0.035,0.06002 -0.0527,0.184889 -0.0527,0.375 V 1.97462 c 0,0.155061 0.0186,0.250977 0.0586,0.291015 0.045,0.04001 0.15132,0.06055 0.31641,0.06055 h 0.41992 c 0.20498,0 0.31773,0.02613 0.33789,0.07617 0.025,0.04503 0.004,0.140943 -0.0605,0.291016 l -2.25195,5.193359 h 0.002 c -0.12006,0.275223 -0.22073,0.426227 -0.30078,0.451172 -0.0751,0.02003 -0.1431,-0.03875 -0.20312,-0.173828 -0.055,-0.135076 -0.10904,-0.307462 -0.16407,-0.517579 -0.055,-0.210114 -0.12027,-0.409499 -0.19531,-0.599609 l -1.71094,-4.390625 c -0.0451,-0.120038 -0.0506,-0.203865 -0.0156,-0.253906 0.04,-0.05004 0.14068,-0.07617 0.30078,-0.07617 h 0.99023 c 0.16008,0 0.26162,-0.02051 0.30665,-0.06055 0.045,-0.04001 0.0684,-0.135929 0.0684,-0.291015 V 0.675791 c 0,-0.140069 -0.0233,-0.237938 -0.0684,-0.292968 -0.045,-0.05503 -0.13163,-0.08203 -0.26172,-0.08203 z m 17.4961,0 c -0.15509,0 -0.26505,0.01491 -0.33008,0.04492 -0.06,0.03003 -0.0899,0.130703 -0.0899,0.300781 v 1.320313 c 0,0.150072 0.0177,0.247942 0.0527,0.292969 0.04,0.04503 0.13788,0.06641 0.29297,0.06641 h 0.97461 c 0.13508,0 0.22366,0.01491 0.26367,0.04492 0.045,0.03001 0.0664,0.110143 0.0664,0.240234 v 6.603516 c 0,0.160176 -0.0149,0.252399 -0.0449,0.277344 -0.03,0.02495 -0.12505,0.03906 -0.28515,0.03906 h -1.05078 c -0.12508,0 -0.20242,0.0064 -0.23243,0.02148 -0.0249,0.01499 -0.0371,0.08866 -0.0371,0.21875 v 1.515626 c 0,0.16 0.0261,0.243827 0.0762,0.253906 0.05,0.01008 0.14875,0.01563 0.29882,0.01563 h 10.92579 c 0.1601,0 0.25514,-0.0091 0.28515,-0.0293 0.03,-0.025 0.0449,-0.116398 0.0449,-0.271484 V 7.054686 c 0,-0.16509 -0.006,-0.268582 -0.0215,-0.308594 -0.015,-0.04503 -0.10727,-0.06641 -0.27734,-0.06641 h -1.2754 c -0.20497,0 -0.31773,0.02418 -0.33789,0.07422 -0.0199,0.05002 -0.0348,0.171218 -0.0449,0.361328 -0.015,0.57532 -0.0915,1.039332 -0.22656,1.394532 -0.13508,0.3552 -0.3727,0.61616 -0.71289,0.78125 -0.33519,0.160101 -0.81972,0.240234 -1.45508,0.240234 h -1.69531 c -0.17008,0 -0.28004,-0.0055 -0.33008,-0.01563 -0.05,-0.01502 -0.0762,-0.110063 -0.0762,-0.285156 V 7.113272 c 0,-0.290164 0.11558,-0.433593 0.3457,-0.433593 h 0.0449 c 0.19511,0 0.3824,0.06609 0.5625,0.201172 0.18509,0.130073 0.34257,0.301602 0.47266,0.511718 0.13508,0.205118 0.22366,0.422221 0.26367,0.652344 0.0249,0.125077 0.0462,0.222947 0.0664,0.292969 0.025,0.06503 0.11444,0.09766 0.26953,0.09766 h 0.81055 c 0.14007,0 0.22864,-0.02053 0.26367,-0.06055 0.035,-0.03999 0.0527,-0.125768 0.0527,-0.255859 V 3.76757 c 0,-0.160101 -0.0205,-0.260768 -0.0605,-0.300781 -0.04,-0.04004 -0.14068,-0.06055 -0.30079,-0.06055 h -0.83203 c -0.10514,0 -0.17036,0.03262 -0.19531,0.09766 -0.0249,0.06004 -0.0482,0.148623 -0.0684,0.263672 -0.06,0.350194 -0.20627,0.659537 -0.44141,0.929688 -0.23513,0.270153 -0.54642,0.40625 -0.93164,0.40625 h -0.0371 c -0.12007,0 -0.1974,-0.027 -0.23243,-0.08203 -0.035,-0.05505 -0.0527,-0.173433 -0.0527,-0.353515 V 2.679683 c 0,-0.160076 0.0354,-0.257946 0.10547,-0.292969 0.075,-0.04001 0.18499,-0.06055 0.33008,-0.06055 h 1.8164 c 0.55031,0 0.97242,0.07087 1.26758,0.210938 0.30018,0.135075 0.508,0.357795 0.62305,0.667968 0.11996,0.305169 0.188,0.71237 0.20312,1.222656 0.005,0.09504 0.02,0.16958 0.0449,0.22461 0.025,0.05004 0.0931,0.07617 0.20313,0.07617 h 1.42578 c 0.14493,0 0.22594,-0.01216 0.24609,-0.03711 0.025,-0.02502 0.0371,-0.107977 0.0371,-0.248046 V 0.660146 c 0,-0.140069 -0.0158,-0.235115 -0.0508,-0.285156 -0.03,-0.05004 -0.11859,-0.07422 -0.26367,-0.07422 z M 21.751954,1.951174 c 0.855478,0 1.467685,0.359677 1.83789,1.080078 0.375211,0.715402 0.5625,1.680807 0.5625,2.896484 0,0.810452 -0.07171,1.514042 -0.216797,2.109376 -0.140079,0.595333 -0.386134,1.055678 -0.736328,1.380859 -0.345194,0.325183 -0.826922,0.488281 -1.447265,0.488281 -0.855479,0 -1.472448,-0.358817 -1.847657,-1.074219 -0.370207,-0.7204 -0.554687,-1.688617 -0.554687,-2.904297 0,-1.215677 0.184483,-2.181082 0.554687,-2.896484 0.375209,-0.720401 0.992178,-1.080078 1.847657,-1.080078 z m 53.144532,0 c 0.85548,0 1.46768,0.359677 1.83789,1.080078 0.37521,0.715402 0.5625,1.680807 0.5625,2.896484 0,0.810452 -0.0717,1.514042 -0.2168,2.109376 -0.14008,0.595333 -0.38613,1.055678 -0.73633,1.380859 -0.34519,0.325183 -0.82691,0.488281 -1.44726,0.488281 -0.85548,0 -1.4705,-0.358817 -1.8457,-1.074219 -0.37021,-0.7204 -0.55665,-1.688617 -0.55665,-2.904297 0,-1.215677 0.18644,-2.181082 0.55665,-2.896484 0.37521,-0.720401 0.99022,-1.080078 1.8457,-1.080078 z m 53.554694,0 c 0.85547,0 1.46768,0.359677 1.83789,1.080078 0.37521,0.715402 0.56445,1.680807 0.56445,2.896484 0,0.810452 -0.0737,1.514042 -0.21875,2.109376 -0.14008,0.595333 -0.38418,1.055678 -0.73437,1.380859 -0.3452,0.325183 -0.82888,0.488281 -1.44922,0.488281 -0.85548,0 -1.4705,-0.358817 -1.84571,-1.074219 -0.3702,-0.7204 -0.55468,-1.688617 -0.55468,-2.904297 0,-1.215677 0.18448,-2.181082 0.55468,-2.896484 0.37521,-0.720401 0.99023,-1.080078 1.84571,-1.080078 z m -70.013684,0.375 h 0.74219 c 0.53531,0 0.91832,0.07734 1.14844,0.232422 0.23514,0.150082 0.35351,0.449283 0.35351,0.894531 1e-5,0.440234 -0.1361,0.761669 -0.40624,0.966797 -0.27016,0.205102 -0.63545,0.308594 -1.09571,0.308594 h -0.69726 c -0.1851,0 -0.30153,-0.02895 -0.35157,-0.08398 -0.05,-0.055 -0.0762,-0.174253 -0.0762,-0.359375 v -1.71875 c 0,-0.114922 0.0354,-0.182967 0.10547,-0.203125 0.0701,-0.02495 0.1623,-0.03711 0.27734,-0.03711 z m -0.0742,4.427734 h 1.11718 c 0.49528,0 0.89319,0.103492 1.19336,0.308594 0.30517,0.200114 0.45703,0.521548 0.45703,0.966797 0,0.440244 -0.11362,0.801875 -0.34375,1.082031 -0.22513,0.280156 -0.66128,0.419922 -1.30664,0.419922 h -1.08789 c -0.14511,0 -0.23733,-0.02983 -0.27734,-0.08984 -0.04,-0.06503 -0.0605,-0.174991 -0.0605,-0.330078 V 7.08399 c 0,-0.220119 0.10347,-0.330078 0.3086,-0.330078 z m 102.875004,16.8125 c -1.7712,0 -3.26296,0.278334 -4.47657,0.835938 -1.18079,0.5248 -2.11588,1.181552 -2.80468,1.96875 -0.9184,1.082404 -1.57516,2.393948 -1.96875,3.935547 -0.39361,1.541601 -0.63989,3.213577 -0.73829,5.017581 -0.0656,1.804 -0.0976,3.67417 -0.0976,5.60937 0,1.968 0.0321,3.96836 0.0976,6.00196 0.0984,2.0008 0.32866,3.82289 0.68946,5.46289 0.3608,1.64 0.93545,2.9015 1.72265,3.78711 0.82001,0.88559 1.75314,1.5744 2.80274,2.0664 1.0824,0.492 2.56008,0.73828 4.42969,0.73828 1.7056,0 3.08321,-0.16419 4.13281,-0.49218 1.0824,-0.29521 2.06557,-0.85188 2.95117,-1.67188 1.0824,-1.0168 1.83727,-2.52655 2.26367,-4.52734 0.4592,-2.0336 0.6875,-4.44442 0.6875,-7.23243 0,-0.42641 -0.0801,-0.67269 -0.24414,-0.73828 -0.164,-0.0656 -0.47635,-0.0976 -0.93555,-0.0976 h -4.18164 c -0.62318,0 -1.03365,0.0661 -1.23046,0.19726 -0.19682,0.0984 -0.29493,0.47486 -0.29493,1.13086 v 3.00196 c 0,1.4104 -0.19624,2.5257 -0.58984,3.3457 -0.3936,0.7872 -1.1645,1.17969 -2.3125,1.17969 -1.04961,0 -1.78845,-0.47458 -2.21484,-1.42579 -0.22962,-0.59039 -0.40985,-1.50945 -0.54102,-2.75586 -0.13117,-1.24639 -0.21326,-2.59195 -0.24609,-4.03515 -0.0328,-1.44321 -0.0488,-2.70471 -0.0488,-3.78711 v -2.75591 c 0.0327,-1.0496 0.0648,-2.09884 0.0976,-3.14844 0.0656,-1.082401 0.16375,-2.033517 0.29493,-2.853513 0.13117,-0.820009 0.31139,-1.410691 0.54101,-1.771485 0.2952,-0.459225 0.65759,-0.75359 1.08399,-0.884765 0.4264,-0.131175 0.86892,-0.197266 1.32812,-0.197266 0.32801,0 0.67241,0.08209 1.0332,0.246094 0.39358,0.131208 0.70398,0.377488 0.9336,0.738281 0.32801,0.491999 0.52621,0.982608 0.59179,1.47461 0.0656,0.491998 0.0977,1.24687 0.0977,2.263672 v 3.443362 c 0,0.22962 0.0981,0.41179 0.29492,0.54297 0.2296,0.0984 0.47588,0.14648 0.73828,0.14648 h 4.67383 c 0.52481,0 0.83716,-0.0821 0.93555,-0.24609 0.13122,-0.164 0.19531,-0.55649 0.19531,-1.17969 0,-2.263203 -0.0981,-4.231499 -0.29492,-5.904298 -0.164,-1.672801 -0.72068,-3.148536 -1.67187,-4.427734 -0.78721,-1.049603 -1.75435,-1.804472 -2.90235,-2.263672 -1.148,-0.492002 -2.75586,-0.738282 -4.82226,-0.738282 z M 1.757813,24.058596 c -0.328028,0 -0.556325,0.03207 -0.6875,0.09766 -0.131175,0.06561 -0.197266,0.279831 -0.197266,0.640625 v 33.011717 c 0,0.42637 0.05004,0.65662 0.148438,0.68946 h 0.787109 5.017578 c 0.524767,0 0.803106,-0.0481 0.835938,-0.14649 0.06559,-0.1312 0.09961,-0.44355 0.09961,-0.93555 v -11.07031 c 0,-0.32801 0.06409,-0.52426 0.195313,-0.58984 0.1312,-0.0984 0.393509,-0.14844 0.787109,-0.14844 1.344801,0 2.722411,-0.13017 4.132813,-0.39258 1.4432,-0.2624 2.674607,-0.70492 3.691406,-1.32812 1.312002,-0.8528 2.279145,-2.08421 2.902344,-3.69141 0.656,-1.6072 0.984374,-3.4594 0.984374,-5.558593 0,-2.263204 -0.460503,-4.165433 -1.378906,-5.707031 -0.885596,-1.5744 -2.048987,-2.755769 -3.492187,-3.542969 C 14.599981,24.829129 13.516736,24.4687 12.335939,24.304694 11.187938,24.140687 9.990542,24.0586 8.744142,24.0586 Z m 22.816406,0 c -0.2624,0 -0.442622,0.06609 -0.541015,0.197266 -0.06559,0.09839 -0.09766,0.278608 -0.09766,0.541015 v 22.876957 c 0,4.16559 0.786931,7.10103 2.361328,8.80664 1.5744,1.6728 4.149406,2.50976 7.72461,2.50976 3.575198,0 6.150207,-0.83696 7.724609,-2.50976 1.5744,-1.70561 2.361328,-4.64105 2.361328,-8.80664 V 25.042971 c 0,-0.426406 -0.05004,-0.688716 -0.148437,-0.787109 -0.0656,-0.131175 -0.309927,-0.197266 -0.736328,-0.197266 h -5.314453 c -0.295207,0 -0.491451,0.04809 -0.589844,0.146484 -0.06559,0.0984 -0.09961,0.296596 -0.09961,0.591797 v 22.138677 c 0,1.8696 -0.2283,3.16511 -0.6875,3.88671 -0.426401,0.6888 -1.263368,1.03321 -2.509765,1.03321 -0.984,0 -1.770926,-0.34441 -2.361328,-1.03321 -0.557602,-0.7216 -0.835938,-2.01711 -0.835938,-3.88671 V 25.091799 c 0,-0.459205 -0.06609,-0.737544 -0.197265,-0.835937 -0.0984,-0.131175 -0.360711,-0.197266 -0.78711,-0.197266 z m 25.103516,0 c -0.72022,1.44e-4 -1.180357,0.06624 -1.376953,0.197266 -0.164007,0.0984 -0.246094,0.294642 -0.246094,0.589843 v 32.767579 c 0,0.39361 0.06609,0.63989 0.197266,0.73828 0.131202,0.0984 0.475604,0.14648 1.033203,0.14649 h 12.791019 c 0.45919,0 0.82158,-0.0321 1.08398,-0.0977 0.26241,-0.0984 0.39258,-0.41075 0.39258,-0.93555 v -5.36328 c 0,-0.32801 -0.11413,-0.52426 -0.34375,-0.58984 -0.1968,-0.0984 -0.52518,-0.14649 -0.98438,-0.14649 h -5.75586 c -0.328,0 -0.54223,-0.0661 -0.64062,-0.19726 -0.0984,-0.16401 -0.14648,-0.42632 -0.14649,-0.78711 V 25.091799 c 1e-5,-0.459205 -0.0981,-0.737544 -0.29492,-0.835937 -0.19679,-0.131175 -0.42704,-0.197266 -0.68945,-0.197266 h -5.017578 z m 17.712891,0 c -0.32803,0 -0.55828,0.03207 -0.68945,0.09766 -0.13118,0.06561 -0.19532,0.279831 -0.19532,0.640625 v 33.011717 c 0,0.42637 0.0481,0.65662 0.14649,0.68946 h 0.78711 5.01953 c 0.52477,0 0.8031,-0.0481 0.83594,-0.14649 0.0656,-0.1312 0.0977,-0.44355 0.0977,-0.93555 v -11.07031 c 0,-0.32801 0.0661,-0.52426 0.19727,-0.58984 0.1312,-0.0984 0.39351,-0.14844 0.78711,-0.14844 1.3448,0 2.72241,-0.13017 4.13281,-0.39258 1.4432,-0.2624 2.67265,-0.70492 3.68945,-1.32812 1.312,-0.8528 2.2811,-2.08421 2.9043,-3.69141 0.656,-1.6072 0.98242,-3.4594 0.98242,-5.558593 0,-2.263204 -0.45855,-4.165433 -1.37695,-5.707031 -0.8856,-1.5744 -2.04899,-2.755769 -3.49219,-3.542969 -0.984,-0.557596 -2.06724,-0.918025 -3.24805,-1.082031 -1.14799,-0.164007 -2.34539,-0.246094 -3.59179,-0.246094 z m 44.847664,0 c -0.72159,0 -1.19812,0.08209 -1.42774,0.246094 -0.22962,0.164001 -0.40984,0.540459 -0.54101,1.130859 l -6.8379,32.078125 c -0.0328,0.13123 -0.0488,0.24731 -0.0488,0.3457 0,0.32802 0.21227,0.52426 0.63867,0.58985 0.4264,0.0328 0.85289,0.0488 1.2793,0.0488 h 3.24804 c 0.39361,0 0.77007,-0.0481 1.13086,-0.14649 0.39357,-0.1312 0.60584,-0.36146 0.63867,-0.68945 l 0.83789,-5.06836 c 0.0656,-0.22958 0.16375,-0.35975 0.29493,-0.39258 0.13119,-0.0656 0.42556,-0.0996 0.88476,-0.0996 h 3.9375 c 0.2624,0 0.47467,0.05 0.63867,0.14844 0.16398,0.0656 0.26209,0.27788 0.29493,0.63867 l 0.73828,4.625 c 0.0656,0.3608 0.13168,0.6231 0.19726,0.78711 0.0984,0.13117 0.36071,0.19727 0.78711,0.19727 h 5.75586 c 0.492,0 0.73828,-0.0981 0.73828,-0.29493 0,-0.0656 -0.016,-0.1477 -0.0488,-0.24609 0,-0.0984 -0.016,-0.21258 -0.0488,-0.34375 l -6.88868,-32.128907 c -0.0984,-0.45918 -0.23052,-0.803584 -0.39453,-1.033203 -0.164,-0.262405 -0.55649,-0.392578 -1.17968,-0.392578 z m 17.03711,0 c -0.32803,0 -0.55828,0.03207 -0.68946,0.09766 -0.13117,0.06561 -0.19726,0.279831 -0.19726,0.640625 v 33.013677 c 0,0.32801 0.034,0.52425 0.0996,0.58984 0.0656,0.0656 0.19576,0.0977 0.39257,0.0977 h 5.46094 c 0.45921,-10e-6 0.72348,-0.0321 0.78906,-0.0977 0.0984,-0.0984 0.14649,-0.31263 0.14649,-0.64063 v -12.54492 c 0,-0.32801 0.0321,-0.54223 0.0976,-0.64062 0.0984,-0.13118 0.34469,-0.19532 0.73829,-0.19532 h 0.29492 c 0.328,0 0.70641,0.0802 1.13281,0.24415 0.42639,0.1312 0.7708,0.37748 1.0332,0.73828 0.36079,0.4264 0.63913,1.13318 0.83594,2.11718 0.19681,0.984 0.34497,2.04927 0.44336,3.19727 0.0983,1.148 0.16443,2.18121 0.19727,3.09961 0.0656,0.8528 0.16374,1.63972 0.29492,2.36133 0.13117,0.72159 0.31139,1.29625 0.54101,1.72265 0.2296,0.4264 0.57401,0.63868 1.03321,0.63868 h 6.00195 c 0.16399,0 0.32818,-0.016 0.49219,-0.0488 0.164,-0.0656 0.24609,-0.17975 0.24609,-0.34375 0,-0.16403 -0.05,-0.31219 -0.14844,-0.44336 -0.0656,-0.16401 -0.12972,-0.29614 -0.19531,-0.39453 -0.16399,-0.36081 -0.37822,-0.83539 -0.64062,-1.42579 -0.2624,-0.5904 -0.44263,-1.49342 -0.54102,-2.70703 -0.16399,-2.2632 -0.37822,-4.29561 -0.64063,-6.09961 -0.2296,-1.8368 -0.7202,-3.26445 -1.4746,-4.28125 -0.39361,-0.55759 -0.75404,-0.91802 -1.08204,-1.08203 -0.2952,-0.16401 -0.44336,-0.29418 -0.44336,-0.39258 0,-0.0984 0.18023,-0.24654 0.54102,-0.44335 0.36078,-0.22962 0.65515,-0.40985 0.88477,-0.54102 0.9184,-0.5576 1.70727,-1.31247 2.36328,-2.26367 0.656,-0.984 0.98242,-2.32956 0.98242,-4.035158 0,-2.591199 -0.54065,-4.607581 -1.62305,-6.050781 -1.04959,-1.443205 -2.36114,-2.476411 -3.93554,-3.09961 -0.9184,-0.360814 -1.93559,-0.575037 -3.05079,-0.640625 -1.0824,-0.09839 -2.21373,-0.146484 -3.39453,-0.146484 z m 46.55859,0 c -0.39363,0 -0.65594,0.08209 -0.78711,0.246094 -0.0984,0.131197 -0.14844,0.34347 -0.14844,0.638672 v 32.177732 c 0,0.52479 0.0661,0.88522 0.19727,1.08203 0.13119,0.19682 0.44354,0.29493 0.93554,0.29493 h 5.16602 c 0.36081,0 0.58911,-0.0661 0.6875,-0.19727 0.0984,-0.1312 0.14844,-0.3595 0.14844,-0.6875 v -11.07031 c 0,-0.5576 0.31039,-0.83594 0.93359,-0.83594 h 3.9375 c 0.32801,0 0.54028,0.0481 0.63867,0.14648 0.0984,0.0984 0.14844,0.31263 0.14844,0.64063 v 11.11914 c 0,0.32802 0.0321,0.55632 0.0977,0.6875 0.0656,0.13117 0.26184,0.19726 0.58984,0.19727 h 5.70703 c 0.36082,0 0.57504,-0.0661 0.64063,-0.19727 0.0656,-0.164 0.0976,-0.41028 0.0976,-0.73828 V 24.99219 c 0,-0.393608 -0.0321,-0.637935 -0.0976,-0.736328 -0.0656,-0.131175 -0.31189,-0.197266 -0.73828,-0.197266 h -5.46094 c -0.32803,0 -0.55828,0.08209 -0.68945,0.246094 -0.0984,0.131205 -0.14649,0.377487 -0.14649,0.738281 v 10.921873 c 0,0.42642 -0.066,0.72079 -0.19727,0.88477 -0.0984,0.164 -0.32865,0.24609 -0.68945,0.24609 h -3.83789 c -0.36083,0 -0.60515,-0.0821 -0.73633,-0.24609 -0.13117,-0.164 -0.19726,-0.45837 -0.19726,-0.88477 V 24.943362 c 0,-0.360807 -0.0661,-0.589107 -0.19727,-0.6875 -0.0984,-0.131175 -0.32866,-0.197266 -0.68945,-0.197266 z m 23.4375,0 c -0.22962,0 -0.37777,0.03207 -0.44336,0.09766 -0.0656,0.06558 -0.0977,0.213741 -0.0977,0.44336 v 32.914058 c 0,0.3608 0.0321,0.6231 0.0977,0.78711 0.0984,0.13117 0.31262,0.19727 0.64062,0.19727 h 6.05079 c 0.26241,-1e-5 0.4266,-0.0481 0.49218,-0.14649 0.0656,-0.0984 0.0977,-0.26257 0.0977,-0.49219 V 24.697268 c 0,-0.426402 -0.18022,-0.638672 -0.54102,-0.638672 z m 10.50195,0 c -0.4592,0 -0.6875,0.09811 -0.6875,0.294922 0,0.06561 0.016,0.1477 0.0488,0.246094 0.0328,0.09844 0.0648,0.212575 0.0977,0.34375 l 8.16797,32.669922 c 0.0656,0.2952 0.1477,0.52349 0.24609,0.6875 0.1312,0.13117 0.39351,0.19726 0.78711,0.19727 h 4.3789 c 0.45922,0 0.72153,-0.0321 0.78711,-0.0977 0.0984,-0.0984 0.19653,-0.32866 0.29493,-0.68945 l 8.11718,-32.472661 c 0.0656,-0.196822 0.11561,-0.359059 0.14844,-0.490234 0.0328,-0.131225 0.0488,-0.247309 0.0488,-0.345703 0,-0.131175 -0.0481,-0.213262 -0.14649,-0.246094 -0.0984,-0.06559 -0.32866,-0.09766 -0.68945,-0.09766 h -5.60937 c -0.65601,0 -1.03247,0.08209 -1.13086,0.246094 -0.0984,0.131202 -0.19653,0.475601 -0.29492,1.033203 l -3.1504,15.595701 c -0.0656,0.3608 -0.12972,0.68918 -0.19531,0.98438 -0.0656,0.2624 -0.18169,0.39258 -0.3457,0.39258 -0.13123,-1e-5 -0.22934,-0.14621 -0.29492,-0.44141 -0.0656,-0.2952 -0.1477,-0.65563 -0.2461,-1.08203 l -3.19726,-15.744143 c -0.0984,-0.459205 -0.19653,-0.739497 -0.29492,-0.837891 -0.0984,-0.09839 -0.42678,-0.146484 -0.98438,-0.146484 z m 26.95117,0 c -0.72159,0 -1.16411,0.06609 -1.32812,0.197266 -0.16401,0.0984 -0.24609,0.474861 -0.24609,1.130859 v 31.537113 c 0,0.65598 0.0981,1.08248 0.29492,1.27929 0.2296,0.19682 0.6561,0.29493 1.27929,0.29493 h 14.16993 c 0.65599,0 1.11454,-0.0821 1.37695,-0.2461 0.2624,-0.1968 0.39258,-0.63933 0.39258,-1.32812 v -4.23047 c 0,-0.49201 -0.0821,-0.78833 -0.2461,-0.88672 -0.1312,-0.13118 -0.49163,-0.19727 -1.08203,-0.19727 h -7.72461 c -0.492,0 -0.88448,-0.0801 -1.17969,-0.24414 -0.2624,-0.164 -0.39453,-0.5084 -0.39453,-1.0332 v -4.91992 -0.002 c 0,-0.52482 0.11609,-0.85124 0.34571,-0.98242 0.2296,-0.13117 0.60606,-0.19726 1.13086,-0.19726 h 5.01757 c 0.6232,0 0.93555,-0.31235 0.93555,-0.93555 v -4.87109 c 0,-0.36081 -0.0821,-0.58911 -0.24609,-0.6875 -0.13121,-0.0984 -0.36146,-0.14844 -0.68946,-0.14844 h -5.55859 c -0.42641,0 -0.68872,-0.0481 -0.78711,-0.14649 -0.0984,-0.13119 -0.14844,-0.41148 -0.14844,-0.83789 v -4.525387 c 0,-0.492024 0.0981,-0.804372 0.29493,-0.935547 0.1968,-0.131175 0.5412,-0.197265 1.0332,-0.197265 h 7.82422 c 0.45922,0 0.75359,-0.06414 0.88476,-0.195313 0.13118,-0.131202 0.19727,-0.443545 0.19727,-0.935547 v -4.52539 c 0,-0.557629 -0.13213,-0.902029 -0.39453,-1.033203 -0.2296,-0.131175 -0.72021,-0.197266 -1.47461,-0.197266 z M 135.9668,30.701174 c 1.4432,0 2.57453,0.212273 3.39453,0.638672 0.8528,0.426401 1.2793,1.213324 1.2793,2.361328 0,1.4104 -0.45855,2.45964 -1.37695,3.14844 -0.88561,0.656 -2.05094,0.98437 -3.49414,0.98437 -0.328,0 -0.49219,-0.29436 -0.49219,-0.88476 v -5.658206 c 0,-0.26241 0.05,-0.4266 0.14844,-0.492188 0.13117,-0.06559 0.31139,-0.09766 0.54101,-0.09766 z M 8.449219,30.947268 c 1.443203,0 2.526447,0.326422 3.248047,0.982422 0.754401,0.656002 1.130859,1.559032 1.130859,2.707031 0,1.377603 -0.408514,2.344743 -1.228515,2.902343 -0.7872,0.5248 -1.902503,0.78711 -3.345703,0.78711 -0.327998,0 -0.492188,-0.29437 -0.492188,-0.88477 v -5.904292 c 0,-0.262411 0.04809,-0.426601 0.146485,-0.492188 0.131174,-0.06559 0.311396,-0.09766 0.541015,-0.09766 z m 65.632817,0 c 1.4432,0 2.52644,0.326422 3.24804,0.982422 0.7544,0.656002 1.13086,1.559032 1.13086,2.707031 0,1.377603 -0.41047,2.344743 -1.23047,2.902343 -0.7872,0.5248 -1.9025,0.78711 -3.3457,0.78711 -0.328,0 -0.49219,-0.29437 -0.49219,-0.88477 v -5.904292 c 0,-0.262411 0.05,-0.426601 0.14844,-0.492188 0.13117,-0.06559 0.3114,-0.09766 0.54102,-0.09766 z m 40.222654,4.968746 c 0.16403,0 0.27816,0.0481 0.34375,0.14649 0.0984,0.0656 0.16444,0.27983 0.19727,0.64062 l 1.42578,9.74024 c 0.0328,0.13123 0.0508,0.26335 0.0508,0.39453 v 0.29492 c 0,0.32799 -0.0821,0.5903 -0.24609,0.78711 -0.1312,0.16401 -0.41149,0.24609 -0.83789,0.24609 h -2.26172 c -0.2296,0 -0.42779,-0.0481 -0.5918,-0.14648 -0.16401,-0.1312 -0.24609,-0.42752 -0.24609,-0.88672 0,-0.2952 0.05,-0.68769 0.14843,-1.17969 l 1.52539,-9.25 c 0.0656,-0.36081 0.11561,-0.57503 0.14844,-0.64062 0.0656,-0.0984 0.17975,-0.14649 0.34375,-0.14649 z"
       inkscape:export-xdpi="300"
       inkscape:export-ydpi="300" />
  </g>
</svg>
