<?xml version="1.0" encoding="UTF-8" standalone="no"?>
<svg
   xmlns:svg="http://www.w3.org/2000/svg"
   xmlns="http://www.w3.org/2000/svg"
   xmlns:sodipodi="http://sodipodi.sourceforge.net/DTD/sodipodi-0.dtd"
   xmlns:inkscape="http://www.inkscape.org/namespaces/inkscape"
   version="1.1"
   id="svg2"
   width="253.12"
   height="58.880001"
   viewBox="0 0 253.12 58.880001"
   sodipodi:docname="head.svg"
   inkscape:version="1.1-dev (1:0.92.0+devel+202005110039+9ce7266)">
  <defs
     id="defs6" />
  <sodipodi:namedview
     pagecolor="#ffffff"
     bordercolor="#666666"
     borderopacity="1"
     objecttolerance="10"
     gridtolerance="10"
     guidetolerance="10"
     inkscape:pageopacity="0"
     inkscape:pageshadow="2"
     inkscape:window-width="1920"
     inkscape:window-height="1017"
     id="namedview4"
     showgrid="false"
     inkscape:zoom="5.2366815"
     inkscape:cx="107.60904"
     inkscape:cy="30.532415"
     inkscape:window-x="0"
     inkscape:window-y="30"
     inkscape:window-maximized="1"
     inkscape:current-layer="g8" />
  <g
     inkscape:groupmode="layer"
     inkscape:label="Image"
     id="g8">
    <path
       d="M 6.3027344 0 C 5.3922254 0 4.551679 0.15100387 3.78125 0.45117188 C 3.015823 0.75133987 2.3504722 1.1706335 1.7851562 1.7109375 C 1.2198392 2.2462345 0.78001875 2.8753001 0.46484375 3.5957031 C 0.15467075 4.3161041 -3.7007434e-17 5.0922674 0 5.9277344 C 0 7.1434124 0.26743438 8.1945851 0.80273438 9.0800781 C 1.3380334 9.9655761 2.0835295 10.65145 3.0390625 11.136719 C 3.9995995 11.616988 5.1131972 11.857422 6.3789062 11.857422 C 7.4945262 11.857422 8.4365993 11.670989 9.2070312 11.300781 C 9.9774603 10.925573 10.58038 10.411226 11.015625 9.7558594 C 11.450856 9.0954894 11.721101 8.3387563 11.826172 7.4882812 C 11.846022 7.3482122 11.836895 7.253166 11.796875 7.203125 C 11.756865 7.153085 11.635661 7.1289062 11.435547 7.1289062 L 9.9648438 7.1289062 C 9.7797478 7.1289062 9.6604988 7.164326 9.6054688 7.234375 C 9.5504387 7.299425 9.5001051 7.4335699 9.4550781 7.6386719 C 9.3049931 8.3290559 8.9787936 8.8695466 8.4785156 9.2597656 C 7.9782346 9.6499836 7.3781234 9.8457031 6.6777344 9.8457031 C 5.8222554 9.8457031 5.1448092 9.5158378 4.6445312 8.8554688 C 4.1492542 8.1950997 3.9023438 7.2184564 3.9023438 5.9277344 C 3.9023438 4.6370164 4.1436343 3.6474182 4.6289062 2.9570312 C 5.1141773 2.2666482 5.7469088 1.921875 6.5273438 1.921875 C 7.3177867 1.921875 7.9086101 2.1361682 8.2988281 2.5664062 C 8.6940641 2.9966483 8.9764054 3.5492324 9.1464844 4.2246094 C 9.1814844 4.3596894 9.2253546 4.4519121 9.2753906 4.5019531 C 9.3254106 4.5519931 9.4390336 4.578125 9.6191406 4.578125 L 11.21875 4.578125 C 11.368848 4.578125 11.461071 4.5576181 11.496094 4.5175781 C 11.536104 4.4775681 11.556641 4.3881159 11.556641 4.2480469 L 11.556641 0.66015625 C 11.556641 0.47506025 11.538926 0.35863475 11.503906 0.30859375 C 11.473896 0.25356375 11.366762 0.22460938 11.181641 0.22460938 L 10.130859 0.22460938 C 9.9907894 0.22460938 9.8957431 0.23569938 9.8457031 0.25585938 C 9.8006731 0.27586937 9.7503435 0.32058 9.6953125 0.390625 L 9.4472656 0.72070312 C 9.3221886 0.88070313 9.2243189 0.9664835 9.1542969 0.9765625 C 9.0892669 0.9865625 8.9793057 0.93341238 8.8242188 0.81835938 C 8.5040398 0.56822238 8.1331266 0.36969237 7.7128906 0.22460938 C 7.2976596 0.074536375 6.8280284 1.8503717e-17 6.3027344 0 z M 21.751953 0 C 20.436216 0 19.307713 0.2525295 18.367188 0.7578125 C 17.426662 1.2580905 16.702549 1.953251 16.197266 2.84375 C 15.696988 3.734247 15.447266 4.7620854 15.447266 5.9277344 C 15.447266 7.0933864 15.696988 8.1231749 16.197266 9.0136719 C 16.702549 9.9041719 17.426662 10.602142 18.367188 11.107422 C 19.307713 11.6077 20.436216 11.857422 21.751953 11.857422 C 23.017656 11.857422 24.122829 11.6077 25.068359 11.107422 C 26.013888 10.602142 26.747289 9.9041719 27.267578 9.0136719 C 27.792872 8.1231749 28.054687 7.0933864 28.054688 5.9277344 C 28.054688 4.7620854 27.80216 3.734247 27.296875 2.84375 C 26.796599 1.953251 26.075294 1.2580905 25.134766 0.7578125 C 24.194241 0.2525295 23.067684 0 21.751953 0 z M 74.896484 0 C 73.580744 0 72.452249 0.2525295 71.511719 0.7578125 C 70.571199 1.2580905 69.84904 1.953251 69.34375 2.84375 C 68.84347 3.734247 68.591797 4.7620854 68.591797 5.9277344 C 68.591797 7.0933864 68.84347 8.1231749 69.34375 9.0136719 C 69.84904 9.9041719 70.571199 10.602142 71.511719 11.107422 C 72.452249 11.6077 73.580744 11.857422 74.896484 11.857422 C 76.162184 11.857422 77.267361 11.6077 78.212891 11.107422 C 79.158411 10.602142 79.891819 9.9041719 80.412109 9.0136719 C 80.937409 8.1231749 81.199219 7.0933864 81.199219 5.9277344 C 81.199219 4.7620854 80.946686 3.734247 80.441406 2.84375 C 79.941126 1.953251 79.22178 1.2580905 78.28125 0.7578125 C 77.34073 0.2525295 76.212214 0 74.896484 0 z M 113.00391 0 C 112.0934 0 111.25285 0.15100387 110.48242 0.45117188 C 109.71699 0.75133987 109.05165 1.1706335 108.48633 1.7109375 C 107.92102 2.2462345 107.47923 2.8753001 107.16406 3.5957031 C 106.85388 4.3161041 106.69922 5.0922674 106.69922 5.9277344 C 106.69922 7.1434124 106.96665 8.1945851 107.50195 9.0800781 C 108.03725 9.9655761 108.78274 10.65145 109.73828 11.136719 C 110.69881 11.616988 111.81242 11.857422 113.07812 11.857422 C 114.19375 11.857422 115.13777 11.670989 115.9082 11.300781 C 116.67863 10.925573 117.28156 10.411226 117.7168 9.7558594 C 118.15203 9.0954894 118.42227 8.3387562 118.52734 7.4882812 C 118.54714 7.3482122 118.53629 7.253166 118.49609 7.203125 C 118.45609 7.153085 118.33684 7.1289063 118.13672 7.1289062 L 116.66602 7.1289062 C 116.48092 7.1289062 116.35972 7.164326 116.30469 7.234375 C 116.24969 7.299425 116.19933 7.4335699 116.1543 7.6386719 C 116.00422 8.3290559 115.67997 8.8695466 115.17969 9.2597656 C 114.67941 9.6499836 114.0793 9.8457031 113.37891 9.8457031 C 112.52343 9.8457031 111.84598 9.5158377 111.3457 8.8554688 C 110.85042 8.1950998 110.60156 7.2184564 110.60156 5.9277344 C 110.60156 4.6370164 110.84481 3.6474182 111.33008 2.9570312 C 111.81535 2.2666482 112.44809 1.921875 113.22852 1.921875 C 114.01896 1.921875 114.60979 2.1361682 115 2.5664062 C 115.39521 2.9966483 115.67756 3.5492324 115.84766 4.2246094 C 115.88266 4.3596894 115.92456 4.4519121 115.97461 4.5019531 C 116.02461 4.5519931 116.14022 4.578125 116.32031 4.578125 L 117.91797 4.578125 C 118.06807 4.578125 118.16028 4.5576181 118.19531 4.5175781 C 118.23531 4.4775681 118.25586 4.3881159 118.25586 4.2480469 L 118.25586 0.66015625 C 118.25586 0.47506025 118.23813 0.35863475 118.20312 0.30859375 C 118.17312 0.25356375 118.06599 0.22460938 117.88086 0.22460938 L 116.83008 0.22460938 C 116.69001 0.22460938 116.59496 0.23569938 116.54492 0.25585938 C 116.49992 0.27586937 116.44952 0.32058 116.39453 0.390625 L 116.14844 0.72070312 C 116.02336 0.88070313 115.9255 0.9664835 115.85547 0.9765625 C 115.79047 0.9865625 115.68047 0.93341237 115.52539 0.81835938 C 115.20521 0.56822237 114.83429 0.36969237 114.41406 0.22460938 C 113.99883 0.074536375 113.5292 0 113.00391 0 z M 128.45117 0 C 127.13543 0 126.00694 0.2525295 125.06641 0.7578125 C 124.12589 1.2580905 123.40372 1.953251 122.89844 2.84375 C 122.39816 3.734247 122.14844 4.7620854 122.14844 5.9277344 C 122.14844 7.0933864 122.39816 8.1231749 122.89844 9.0136719 C 123.40372 9.9041719 124.12589 10.602142 125.06641 11.107422 C 126.00694 11.6077 127.13543 11.857422 128.45117 11.857422 C 129.71687 11.857422 130.82205 11.6077 131.76758 11.107422 C 132.71311 10.602142 133.44651 9.9041719 133.9668 9.0136719 C 134.4921 8.1231749 134.75391 7.0933864 134.75391 5.9277344 C 134.75391 4.7620854 134.50137 3.734247 133.99609 2.84375 C 133.49581 1.953251 132.77647 1.2580905 131.83594 0.7578125 C 130.89542 0.2525295 129.7669 0 128.45117 0 z M 188.92383 0 C 188.01332 0 187.17277 0.15100387 186.40234 0.45117188 C 185.63691 0.75133987 184.97157 1.1706335 184.40625 1.7109375 C 183.84094 2.2462345 183.40112 2.8753001 183.08594 3.5957031 C 182.77577 4.3161041 182.62109 5.0922674 182.62109 5.9277344 C 182.62109 7.1434124 182.88853 8.1945851 183.42383 9.0800781 C 183.95913 9.9655761 184.70463 10.65145 185.66016 11.136719 C 186.6207 11.616988 187.7343 11.857422 189 11.857422 C 190.11563 11.857422 191.0577 11.670989 191.82812 11.300781 C 192.59856 10.925573 193.20148 10.411226 193.63672 9.7558594 C 194.07195 9.0954894 194.3422 8.3387562 194.44727 7.4882812 C 194.46717 7.3482122 194.45797 7.253166 194.41797 7.203125 C 194.37797 7.153085 194.25676 7.1289063 194.05664 7.1289062 L 192.58594 7.1289062 C 192.40085 7.1289062 192.28159 7.164356 192.22656 7.234375 C 192.17156 7.299425 192.12119 7.4335699 192.07617 7.6386719 C 191.92608 8.3290559 191.60184 8.8695466 191.10156 9.2597656 C 190.60128 9.6499836 189.99922 9.8457031 189.29883 9.8457031 C 188.44335 9.8457031 187.76591 9.5158377 187.26562 8.8554688 C 186.77034 8.1950998 186.52344 7.2184564 186.52344 5.9277344 C 186.52344 4.6370164 186.76668 3.6474182 187.25195 2.9570312 C 187.73722 2.2666452 188.36995 1.921875 189.15039 1.921875 C 189.94083 1.921875 190.5297 2.1361652 190.91992 2.5664062 C 191.31515 2.9966483 191.59945 3.5492324 191.76953 4.2246094 C 191.80453 4.3596894 191.84643 4.4519121 191.89648 4.5019531 C 191.94648 4.5519931 192.06211 4.578125 192.24219 4.578125 L 193.83984 4.578125 C 193.98994 4.578125 194.08217 4.5576181 194.11719 4.5175781 C 194.15719 4.4775681 194.17773 4.3881159 194.17773 4.2480469 L 194.17773 0.66015625 C 194.17773 0.47506025 194.16 0.35863475 194.125 0.30859375 C 194.095 0.25356375 193.98785 0.22460938 193.80273 0.22460938 L 192.75195 0.22460938 C 192.61188 0.22460837 192.51684 0.23569938 192.4668 0.25585938 C 192.4218 0.27586937 192.3714 0.32058 192.31641 0.390625 L 192.06836 0.72070312 C 191.94329 0.88070313 191.84541 0.9664835 191.77539 0.9765625 C 191.71039 0.9865625 191.60039 0.93341237 191.44531 0.81835938 C 191.12513 0.56822238 190.75617 0.36969237 190.33594 0.22460938 C 189.92071 0.074536375 189.44912 1.8503717e-17 188.92383 0 z M 30.738281 0.30078125 C 30.563188 0.30078125 30.441141 0.31852562 30.371094 0.35351562 C 30.301074 0.38853562 30.265625 0.49934312 30.265625 0.68945312 L 30.265625 1.9804688 C 30.265625 2.1355297 30.288954 2.2333995 30.333984 2.2734375 C 30.374024 2.3084575 30.469069 2.3261719 30.619141 2.3261719 L 31.414062 2.3261719 C 31.66919 2.3261719 31.823006 2.3495012 31.873047 2.3945312 C 31.928077 2.4395613 31.987701 2.5523149 32.052734 2.7324219 L 35.166016 11.361328 C 35.226056 11.531432 35.287637 11.632099 35.347656 11.662109 C 35.412686 11.692119 35.561738 11.707031 35.796875 11.707031 L 36.9375 11.707031 C 37.157607 11.707031 37.288088 11.680899 37.328125 11.630859 C 37.373155 11.580819 37.427155 11.485773 37.492188 11.345703 L 40.171875 5.71875 C 40.251925 5.543657 40.334883 5.4550781 40.419922 5.4550781 C 40.499972 5.4550781 40.571686 5.5408575 40.636719 5.7109375 C 40.701749 5.8810365 40.761376 6.0748019 40.816406 6.2949219 C 40.871436 6.5100529 40.927392 6.693678 40.982422 6.84375 L 42.664062 11.316406 C 42.719093 11.46149 42.763803 11.562157 42.798828 11.617188 C 42.833848 11.677207 42.955899 11.707031 43.166016 11.707031 L 44.380859 11.707031 C 44.565955 11.707031 44.69278 11.694872 44.757812 11.669922 C 44.822823 11.644902 44.879646 11.561944 44.929688 11.421875 L 47.923828 2.7617188 C 47.978858 2.6016177 48.035684 2.4888611 48.095703 2.4238281 C 48.155733 2.3587981 48.298303 2.3261719 48.523438 2.3261719 L 49.410156 2.3261719 C 49.560228 2.3261719 49.658099 2.31126 49.703125 2.28125 C 49.753165 2.24623 49.777344 2.1568017 49.777344 2.0117188 L 49.777344 0.65234375 C 49.777344 0.48223975 49.739094 0.38352462 49.664062 0.35351562 C 49.589022 0.31851562 49.475398 0.30078125 49.320312 0.30078125 L 45.101562 0.30078125 C 44.916466 0.30078125 44.800041 0.32496 44.75 0.375 C 44.69996 0.42003 44.673828 0.54122913 44.673828 0.73632812 L 44.673828 1.921875 C 44.673828 2.101982 44.702783 2.2127855 44.757812 2.2578125 C 44.817833 2.3028425 44.931458 2.3261719 45.101562 2.3261719 L 45.568359 2.3261719 C 45.848515 2.3261719 45.988281 2.3643921 45.988281 2.4394531 C 45.993281 2.5094731 45.963468 2.6371436 45.898438 2.8222656 L 44.599609 6.5585938 C 44.509559 6.8237397 44.432221 6.9570313 44.367188 6.9570312 C 44.302177 6.9570312 44.2434 6.8861608 44.193359 6.7460938 C 44.148329 6.6010028 44.10362 6.4314271 44.058594 6.2363281 C 44.018584 6.0362161 43.971046 5.858212 43.916016 5.703125 L 42.904297 2.640625 C 42.863977 2.520562 42.852887 2.4395582 42.873047 2.3945312 C 42.898067 2.3495012 42.998736 2.3261719 43.173828 2.3261719 L 43.564453 2.3261719 C 43.739571 2.3261719 43.841085 2.2870822 43.871094 2.2070312 C 43.906114 2.1270013 43.923828 2.0058041 43.923828 1.8457031 L 43.923828 0.59960938 C 43.923828 0.45447538 43.858608 0.37064813 43.728516 0.34570312 C 43.603467 0.31569313 43.475794 0.30078125 43.345703 0.30078125 L 38.333984 0.30078125 C 38.13387 0.30078125 38.012668 0.330615 37.972656 0.390625 C 37.937636 0.450675 37.919922 0.58200638 37.919922 0.78710938 L 37.919922 1.9667969 C 37.919922 2.1118549 37.932081 2.2097246 37.957031 2.2597656 C 37.987061 2.3047956 38.072822 2.3261719 38.212891 2.3261719 L 39.083984 2.3261719 C 39.169024 2.3261719 39.225849 2.3372619 39.255859 2.3574219 C 39.290729 2.3724419 39.317731 2.4115315 39.337891 2.4765625 L 39.40625 2.65625 C 39.4612 2.811337 39.473369 2.9353366 39.443359 3.0253906 C 39.413349 3.1104506 39.36302 3.2212591 39.292969 3.3613281 L 37.800781 6.484375 C 37.740761 6.609452 37.684807 6.7081671 37.634766 6.7832031 C 37.584726 6.8532531 37.519503 6.8886719 37.439453 6.8886719 C 37.379403 6.8886719 37.328229 6.8318419 37.283203 6.7167969 C 37.238173 6.6017309 37.194314 6.461965 37.154297 6.296875 C 37.119297 6.126784 37.077387 5.9693017 37.027344 5.8242188 L 35.931641 2.5820312 C 35.891601 2.4521162 35.906522 2.3775789 35.976562 2.3574219 C 36.046613 2.3372619 36.150947 2.3261719 36.291016 2.3261719 L 36.623047 2.3261719 C 36.813157 2.3261719 36.92396 2.2991706 36.958984 2.2441406 C 36.998994 2.1891106 37.019531 2.0670631 37.019531 1.8769531 L 37.019531 0.73632812 C 37.019531 0.52119813 36.981312 0.394399 36.90625 0.359375 C 36.83621 0.319365 36.702066 0.30078125 36.501953 0.30078125 L 30.738281 0.30078125 z M 53.230469 0.30078125 C 53.090399 0.30078125 52.995353 0.3277825 52.945312 0.3828125 C 52.900283 0.4378625 52.876953 0.54133425 52.876953 0.69140625 L 52.876953 2.0117188 C 52.876952 2.1467987 52.894667 2.2334245 52.929688 2.2734375 C 52.969727 2.3084575 53.059149 2.3261719 53.199219 2.3261719 L 54.220703 2.3261719 C 54.350793 2.3261719 54.43376 2.3587881 54.46875 2.4238281 C 54.50875 2.4838481 54.527344 2.5817169 54.527344 2.7167969 L 54.527344 9.0664062 C 54.527344 9.2364852 54.509609 9.3557342 54.474609 9.4257812 C 54.439609 9.4958313 54.340871 9.53125 54.175781 9.53125 L 53.140625 9.53125 C 53.050525 9.53125 52.982527 9.5434094 52.9375 9.5683594 C 52.89749 9.5933794 52.876953 9.6557994 52.876953 9.7558594 L 52.876953 11.060547 C 52.876953 11.235637 52.891865 11.363308 52.921875 11.443359 C 52.956895 11.518399 53.060389 11.556641 53.230469 11.556641 L 59.78125 11.556641 C 60.98693 11.556641 61.964424 11.461591 62.714844 11.271484 C 63.465264 11.076375 64.014185 10.752129 64.359375 10.296875 C 64.709575 9.836617 64.884766 9.2047429 64.884766 8.4042969 C 64.884766 7.7189119 64.656422 7.1663268 64.201172 6.7460938 C 63.745912 6.3208388 63.101095 6.0235936 62.265625 5.8535156 C 62.095545 5.8184956 62.009766 5.7644861 62.009766 5.6894531 C 62.009766 5.6144131 62.080663 5.555638 62.220703 5.515625 C 62.891073 5.31051 63.39981 5.0076459 63.75 4.6074219 C 64.1052 4.2071999 64.283203 3.6965209 64.283203 3.0761719 C 64.283203 2.3757829 64.110815 1.8231947 63.765625 1.4179688 C 63.425435 1.0127248 62.890566 0.72671862 62.160156 0.55664062 C 61.429746 0.38656163 60.485728 0.30078125 59.330078 0.30078125 L 53.230469 0.30078125 z M 83.181641 0.30078125 C 82.966521 0.30078125 82.815509 0.330615 82.730469 0.390625 C 82.645469 0.445645 82.603516 0.59103488 82.603516 0.82617188 L 82.603516 1.9433594 C 82.603516 2.0984204 82.618437 2.2019121 82.648438 2.2519531 C 82.678438 2.3019931 82.770691 2.3261719 82.925781 2.3261719 L 83.720703 2.3261719 C 83.945823 2.3261719 84.085595 2.3523037 84.140625 2.4023438 C 84.200625 2.4523637 84.274335 2.541784 84.359375 2.671875 L 87.5625 7.3476562 C 87.6375 7.4577162 87.693496 7.5564314 87.728516 7.6464844 C 87.763516 7.7315444 87.78125 7.8769292 87.78125 8.0820312 L 87.78125 9.1621094 C 87.78125 9.3171954 87.763516 9.4178636 87.728516 9.4628906 C 87.693416 9.5079206 87.601245 9.53125 87.451172 9.53125 L 86.429688 9.53125 C 86.289618 9.53125 86.205791 9.5526262 86.175781 9.5976562 C 86.145781 9.6376962 86.130859 9.729917 86.130859 9.875 L 86.130859 11.287109 C 86.130859 11.397168 86.145781 11.468883 86.175781 11.503906 C 86.205781 11.538926 86.269091 11.556641 86.369141 11.556641 L 92.853516 11.556641 C 92.968636 11.556641 93.039503 11.536114 93.064453 11.496094 C 93.094453 11.456054 93.109375 11.378721 93.109375 11.263672 L 93.109375 9.8984375 C 93.109375 9.7483645 93.094453 9.6504957 93.064453 9.6054688 C 93.034453 9.5554288 92.945861 9.53125 92.800781 9.53125 L 91.607422 9.53125 C 91.467352 9.53125 91.383526 9.5079206 91.353516 9.4628906 C 91.323516 9.4128506 91.308594 9.3178044 91.308594 9.1777344 L 91.308594 7.3320312 C 91.308594 7.0968922 91.332812 6.9366015 91.382812 6.8515625 C 91.437813 6.7664925 91.512372 6.6621604 91.607422 6.5371094 L 94.751953 2.6425781 C 94.847053 2.5275041 94.924355 2.4473707 94.984375 2.4023438 C 95.049375 2.3523037 95.191989 2.3261719 95.412109 2.3261719 L 95.908203 2.3261719 C 96.008253 2.3261719 96.077177 2.317075 96.117188 2.296875 C 96.162188 2.276865 96.185547 2.2180949 96.185547 2.1230469 L 96.185547 0.59375 C 96.185547 0.448616 96.155703 0.36283562 96.095703 0.33789062 C 96.040703 0.31294063 95.948459 0.30078125 95.818359 0.30078125 L 91.158203 0.30078125 C 90.993113 0.30078125 90.886827 0.319365 90.841797 0.359375 C 90.801797 0.399415 90.783203 0.50570325 90.783203 0.67578125 L 90.783203 1.9277344 C 90.783203 2.1178454 90.810234 2.2334245 90.865234 2.2734375 C 90.920234 2.3084575 91.042312 2.3261719 91.232422 2.3261719 L 91.810547 2.3261719 C 91.970647 2.3261719 92.077782 2.3495012 92.132812 2.3945312 C 92.187813 2.4395312 92.152414 2.5410709 92.027344 2.7011719 L 90.580078 4.578125 C 90.440008 4.758235 90.335675 4.8859005 90.265625 4.9609375 C 90.195625 5.0310875 90.124737 5.0374519 90.054688 4.9824219 C 89.989688 4.9273919 89.886164 4.8025209 89.746094 4.6074219 L 88.457031 2.7324219 C 88.346971 2.5723209 88.30873 2.4632331 88.34375 2.4082031 C 88.37875 2.3531731 88.488708 2.3261719 88.673828 2.3261719 L 89.3125 2.3261719 C 89.45761 2.3261719 89.549834 2.305645 89.589844 2.265625 C 89.634844 2.220595 89.65625 2.1246814 89.65625 1.9746094 L 89.65625 0.73632812 C 89.65625 0.53120113 89.617149 0.4071995 89.537109 0.3671875 C 89.462109 0.3221575 89.328782 0.30078125 89.138672 0.30078125 L 83.181641 0.30078125 z M 138.53125 0.30078125 C 138.36118 0.30078125 138.25964 0.32496 138.22461 0.375 C 138.19461 0.42504 138.17773 0.53500012 138.17773 0.70507812 L 138.17773 2.0410156 C 138.17773 2.1611036 138.19461 2.2384385 138.22461 2.2734375 C 138.25961 2.3084575 138.33135 2.3261719 138.44141 2.3261719 L 139.50781 2.3261719 C 139.65645 2.3264369 139.74749 2.3525737 139.77734 2.4023438 C 139.81234 2.4473738 139.83008 2.5460849 139.83008 2.7011719 L 139.83008 9.1328125 C 139.83008 9.3028905 139.80401 9.4128496 139.75391 9.4628906 C 139.70391 9.5079206 139.59673 9.53125 139.43164 9.53125 L 138.39648 9.53125 C 138.30138 9.53125 138.24175 9.5498138 138.2168 9.5898438 C 138.1919 9.6298538 138.17773 9.7007252 138.17773 9.8007812 L 138.17773 11.197266 C 138.17773 11.352352 138.19547 11.451067 138.23047 11.496094 C 138.27047 11.536104 138.36555 11.556641 138.51562 11.556641 L 148.79688 11.556641 C 148.95697 11.556641 149.05202 11.532462 149.08203 11.482422 C 149.11703 11.432402 149.13477 11.326117 149.13477 11.166016 L 149.13477 6.6484375 C 149.13477 6.5283745 149.11432 6.4538381 149.07422 6.4238281 C 149.03422 6.3938181 148.95124 6.3789062 148.82617 6.3789062 L 147.64062 6.3789062 C 147.48069 6.3789062 147.39125 6.3966206 147.37109 6.4316406 C 147.35119 6.4616706 147.33617 6.5538984 147.32617 6.7089844 C 147.30117 7.4544034 147.18193 8.0331314 146.9668 8.4433594 C 146.75168 8.8485724 146.4488 9.1309146 146.05859 9.2910156 C 145.66837 9.4511166 145.19312 9.53125 144.63281 9.53125 L 143.72461 9.53125 C 143.5495 9.53125 143.4432 9.5051181 143.4082 9.4550781 C 143.3732 9.4000481 143.35742 9.2864211 143.35742 9.1113281 L 143.35742 2.6269531 C 143.35742 2.4817941 143.38164 2.3960387 143.43164 2.3710938 C 143.48164 2.3410838 143.57953 2.3261719 143.72461 2.3261719 L 144.91016 2.3261719 C 145.06525 2.3261719 145.16958 2.3084575 145.22461 2.2734375 C 145.27961 2.2334275 145.30664 2.1318869 145.30664 1.9667969 L 145.30664 0.66015625 C 145.30665 0.50005625 145.28242 0.40134112 145.23242 0.36132812 C 145.18742 0.32128812 145.08952 0.30078125 144.93945 0.30078125 L 138.53125 0.30078125 z M 153.04102 0.30078125 C 152.87094 0.30078125 152.76939 0.32496 152.73438 0.375 C 152.70437 0.42504 152.68945 0.53500012 152.68945 0.70507812 L 152.68945 2.0410156 C 152.68945 2.1611036 152.70438 2.2384385 152.73438 2.2734375 C 152.76937 2.3084575 152.84111 2.3261719 152.95117 2.3261719 L 154.01758 2.3261719 C 154.16765 2.3261719 154.2571 2.3523038 154.28711 2.4023438 C 154.32211 2.4473738 154.33984 2.5460849 154.33984 2.7011719 L 154.33984 9.1328125 C 154.33984 9.3028905 154.31377 9.4128496 154.26367 9.4628906 C 154.21367 9.5079206 154.1065 9.53125 153.94141 9.53125 L 152.90625 9.53125 C 152.81115 9.53125 152.7515 9.5498138 152.72656 9.5898438 C 152.70156 9.6298538 152.68945 9.7007252 152.68945 9.8007812 L 152.68945 11.197266 C 152.68945 11.352352 152.70523 11.451067 152.74023 11.496094 C 152.78023 11.536104 152.87531 11.556641 153.02539 11.556641 L 163.30664 11.556641 C 163.46675 11.556641 163.56179 11.532462 163.5918 11.482422 C 163.6268 11.432402 163.64453 11.326117 163.64453 11.166016 L 163.64453 6.6484375 C 163.64453 6.5283745 163.62408 6.4538381 163.58398 6.4238281 C 163.54398 6.3938181 163.46296 6.3789062 163.33789 6.3789062 L 162.15234 6.3789062 C 161.99239 6.3789062 161.90102 6.3966206 161.88086 6.4316406 C 161.86096 6.4616706 161.84604 6.5538984 161.83594 6.7089844 C 161.81094 7.4544034 161.69169 8.0331314 161.47656 8.4433594 C 161.26144 8.8485724 160.95858 9.1309146 160.56836 9.2910156 C 160.17815 9.4511166 159.70289 9.53125 159.14258 9.53125 L 158.23438 9.53125 C 158.05928 9.53125 157.95494 9.5051181 157.91992 9.4550781 C 157.88492 9.4000481 157.86719 9.2864211 157.86719 9.1113281 L 157.86719 2.6269531 C 157.86719 2.4817941 157.89141 2.3960387 157.94141 2.3710938 C 157.99141 2.3410838 158.0893 2.3261719 158.23438 2.3261719 L 159.41992 2.3261719 C 159.575 2.3261719 159.67935 2.3084575 159.73438 2.2734375 C 159.78938 2.2334275 159.81836 2.1318869 159.81836 1.9667969 L 159.81836 0.66015625 C 159.81836 0.50005625 159.79229 0.40134112 159.74219 0.36132812 C 159.69719 0.32128812 159.5993 0.30078125 159.44922 0.30078125 L 153.04102 0.30078125 z M 167.61914 0.30078125 C 167.46406 0.30078125 167.35409 0.31569312 167.28906 0.34570312 C 167.22906 0.37573313 167.19922 0.47640637 167.19922 0.64648438 L 167.19922 1.9667969 C 167.19922 2.1168689 167.21695 2.2147386 167.25195 2.2597656 C 167.29195 2.3047956 167.38789 2.3261719 167.54297 2.3261719 L 168.51953 2.3261719 C 168.65461 2.3261719 168.74124 2.3410837 168.78125 2.3710938 C 168.82625 2.4011037 168.84961 2.4812371 168.84961 2.6113281 L 168.84961 9.2148438 C 168.84961 9.3750197 168.83469 9.4672425 168.80469 9.4921875 C 168.77469 9.5171375 168.67963 9.53125 168.51953 9.53125 L 167.46875 9.53125 C 167.34368 9.53125 167.26634 9.5376544 167.23633 9.5527344 C 167.21143 9.5677244 167.19922 9.6413944 167.19922 9.7714844 L 167.19922 11.287109 C 167.19922 11.447109 167.22344 11.530937 167.27344 11.541016 C 167.32344 11.551096 167.42415 11.556641 167.57422 11.556641 L 178.5 11.556641 C 178.66011 11.556641 178.75515 11.547544 178.78516 11.527344 C 178.81516 11.502344 178.83008 11.410945 178.83008 11.255859 L 178.83008 7.0546875 C 178.83008 6.8895975 178.82409 6.7861058 178.80859 6.7460938 C 178.79359 6.7010638 178.69938 6.6796875 178.5293 6.6796875 L 177.25391 6.6796875 C 177.04893 6.6796875 176.93618 6.7038662 176.91602 6.7539062 C 176.89612 6.8039262 176.88119 6.9251244 176.87109 7.1152344 C 176.85609 7.6905544 176.78159 8.1545656 176.64648 8.5097656 C 176.5114 8.8649656 176.27378 9.1259256 175.93359 9.2910156 C 175.5984 9.4511166 175.11388 9.53125 174.47852 9.53125 L 172.78125 9.53125 C 172.61118 9.53125 172.50121 9.525755 172.45117 9.515625 C 172.40117 9.500605 172.37695 9.4055618 172.37695 9.2304688 L 172.37695 7.1132812 C 172.37695 6.8231173 172.49254 6.6796875 172.72266 6.6796875 L 172.76758 6.6796875 C 172.96271 6.6796875 173.15 6.7457774 173.33008 6.8808594 C 173.51517 7.0109324 173.67264 7.1824621 173.80273 7.3925781 C 173.93781 7.5976961 174.02443 7.8147989 174.06445 8.0449219 C 174.08935 8.1699989 174.11261 8.2678686 174.13281 8.3378906 C 174.15781 8.4029206 174.24725 8.4355469 174.40234 8.4355469 L 175.21289 8.4355469 C 175.35295 8.4355469 175.44153 8.41502 175.47656 8.375 C 175.51156 8.33501 175.5293 8.2492316 175.5293 8.1191406 L 175.5293 3.7675781 C 175.5293 3.6074771 175.50885 3.5068099 175.46875 3.4667969 C 175.42875 3.4267569 175.32807 3.40625 175.16797 3.40625 L 174.33594 3.40625 C 174.2308 3.40625 174.16556 3.4388663 174.14062 3.5039062 C 174.11572 3.5639462 174.09247 3.6525291 174.07227 3.7675781 C 174.01227 4.1177721 173.86405 4.4271146 173.62891 4.6972656 C 173.39378 4.9674186 173.08444 5.1035156 172.69922 5.1035156 L 172.66211 5.1035156 C 172.54205 5.1035156 172.46472 5.0765144 172.42969 5.0214844 C 172.39469 4.9664344 172.37695 4.8480507 172.37695 4.6679688 L 172.37695 2.6796875 C 172.37695 2.5196115 172.41235 2.4217417 172.48242 2.3867188 C 172.55742 2.3467087 172.66742 2.3261719 172.8125 2.3261719 L 174.62891 2.3261719 C 175.17922 2.3261719 175.60131 2.3970414 175.89648 2.5371094 C 176.19666 2.6721844 176.40448 2.8949051 176.51953 3.2050781 C 176.63949 3.5102471 176.70558 3.9174484 176.7207 4.4277344 C 176.7257 4.5227744 176.74258 4.5973137 176.76758 4.6523438 C 176.79258 4.7023838 176.85868 4.7285156 176.96875 4.7285156 L 178.39453 4.7285156 C 178.53946 4.7285156 178.62243 4.7163563 178.64258 4.6914062 C 178.66748 4.6663863 178.67969 4.5834284 178.67969 4.4433594 L 178.67969 0.66015625 C 178.67969 0.52008725 178.66195 0.425041 178.62695 0.375 C 178.59695 0.32496 178.51031 0.30078125 178.36523 0.30078125 L 167.61914 0.30078125 z M 198.35742 0.30078125 C 198.19732 0.30078125 198.10228 0.3333975 198.07227 0.3984375 C 198.04227 0.4634675 198.02734 0.57622713 198.02734 0.73632812 L 198.02734 4.7207031 C 198.02734 4.8657871 198.05719 4.9524129 198.11719 4.9824219 C 198.17719 5.0124319 198.28069 5.0273437 198.42578 5.0273438 L 199.33398 5.0273438 C 199.52909 5.0273438 199.65958 5.003165 199.72461 4.953125 C 199.79461 4.898095 199.8309 4.7797164 199.83594 4.5996094 C 199.85094 3.9792624 199.91624 3.5031548 200.03125 3.1679688 C 200.14632 2.8277808 200.34203 2.5901591 200.61719 2.4550781 C 200.89735 2.3199981 201.28402 2.2519531 201.7793 2.2519531 L 201.90039 2.2519531 C 202.07046 2.2519531 202.15625 2.3470024 202.15625 2.5371094 L 202.15625 9.0429688 C 202.15625 9.2430847 202.12727 9.3763733 202.07227 9.4414062 C 202.01727 9.5014262 201.88956 9.53125 201.68945 9.53125 L 200.69922 9.53125 C 200.55414 9.53125 200.45908 9.5554287 200.41406 9.6054688 C 200.37406 9.6555087 200.35352 9.756178 200.35352 9.90625 L 200.35352 11.173828 C 200.35352 11.343932 200.3825 11.451067 200.4375 11.496094 C 200.4975 11.536134 200.60468 11.556641 200.75977 11.556641 L 206.76367 11.556641 C 206.93876 11.556641 207.05152 11.535264 207.10156 11.490234 C 207.15656 11.440194 207.18359 11.324613 207.18359 11.144531 L 207.18359 9.9433594 C 207.18359 9.7832584 207.15656 9.6761237 207.10156 9.6210938 C 207.04656 9.5610738 206.93096 9.53125 206.75586 9.53125 L 205.87695 9.53125 C 205.64183 9.53125 205.49926 9.4902102 205.44922 9.4101562 C 205.40422 9.3251163 205.38281 9.1648245 205.38281 8.9296875 L 205.38281 2.5742188 C 205.38281 2.4641588 205.40141 2.3840254 205.44141 2.3339844 C 205.48141 2.2789544 205.55791 2.2519531 205.66797 2.2519531 L 205.75781 2.2519531 C 206.25809 2.2519531 206.64476 2.3199931 206.91992 2.4550781 C 207.19508 2.5901561 207.39081 2.8277788 207.50586 3.1679688 C 207.62084 3.5081567 207.68605 3.9898844 207.70117 4.6152344 C 207.70617 4.8003314 207.7332 4.9159105 207.7832 4.9609375 C 207.8382 5.0059675 207.9631 5.0273438 208.1582 5.0273438 L 209.04492 5.0273438 C 209.24503 5.0273438 209.3727 5.0059675 209.42773 4.9609375 C 209.48273 4.9109175 209.50977 4.7897194 209.50977 4.5996094 L 209.50977 0.66015625 C 209.50977 0.53006525 209.48922 0.4378425 209.44922 0.3828125 C 209.40922 0.3277825 209.32904 0.30078125 209.20898 0.30078125 L 198.35742 0.30078125 z M 213.90039 0.30078125 C 213.72028 0.30078125 213.61315 0.3277825 213.57812 0.3828125 C 213.54313 0.4328325 213.52539 0.54840863 213.52539 0.72851562 L 213.52539 1.8164062 C 213.52538 1.9814962 213.55242 2.0830089 213.60742 2.1230469 C 213.66242 2.1580669 213.76875 2.1757813 213.92383 2.1757812 L 214.98828 2.1757812 C 215.14838 2.1757812 215.24343 2.2047356 215.27344 2.2597656 C 215.30844 2.3147956 215.32617 2.4219312 215.32617 2.5820312 L 215.32617 9.328125 C 215.32617 9.483212 215.30477 9.5810807 215.25977 9.6210938 C 215.21477 9.6611337 215.1197 9.6796875 214.97461 9.6796875 L 213.9375 9.6796875 C 213.78239 9.6796875 213.67525 9.7002144 213.61523 9.7402344 C 213.55523 9.7752544 213.52539 9.8787501 213.52539 10.048828 L 213.52539 11.136719 C 213.52538 11.311812 213.54594 11.427392 213.58594 11.482422 C 213.62594 11.532462 213.73031 11.556641 213.90039 11.556641 L 220.42969 11.556641 C 220.59478 11.556641 220.69632 11.536114 220.73633 11.496094 C 220.78133 11.456084 220.80469 11.351745 220.80469 11.181641 L 220.80469 9.9355469 C 220.80469 9.8106209 220.77484 9.738908 220.71484 9.71875 C 220.65984 9.6938 220.56842 9.6816406 220.44336 9.6816406 L 219.25781 9.6816406 C 219.09272 9.6816406 218.98276 9.6647656 218.92773 9.6347656 C 218.87773 9.6047556 218.85352 9.5097094 218.85352 9.3496094 L 218.85352 2.5664062 C 218.85352 2.4063063 218.87406 2.3019941 218.91406 2.2519531 C 218.95906 2.2019131 219.06343 2.1757813 219.22852 2.1757812 L 220.40625 2.1757812 C 220.58135 2.1757812 220.69131 2.154405 220.73633 2.109375 C 220.78133 2.064345 220.80469 1.9515924 220.80469 1.7714844 L 220.80469 0.72070312 C 220.80469 0.55059912 220.78143 0.4378425 220.73633 0.3828125 C 220.69133 0.3277825 220.57855 0.30078125 220.39844 0.30078125 L 213.90039 0.30078125 z M 224.54883 0.30078125 C 224.36374 0.30078125 224.24448 0.31852562 224.18945 0.35351562 C 224.13945 0.38352562 224.11523 0.48786175 224.11523 0.66796875 L 224.11523 1.8847656 C 224.11523 2.0498556 224.13383 2.1634826 224.17383 2.2285156 C 224.21383 2.2935456 224.32296 2.3261719 224.49805 2.3261719 L 225.4043 2.3261719 C 225.62443 2.3261719 225.76333 2.3438863 225.81836 2.3789062 C 225.87336 2.4089363 225.93302 2.4983645 225.99805 2.6484375 L 229.7207 11.369141 C 229.7957 11.549248 229.87308 11.662005 229.95312 11.707031 C 230.03823 11.757071 230.21337 11.78125 230.47852 11.78125 L 232.36914 11.78125 C 232.56925 11.78125 232.70901 11.763536 232.78906 11.728516 C 232.87406 11.698486 232.93373 11.647306 232.96875 11.572266 C 233.00875 11.497256 233.05635 11.393763 233.11133 11.263672 L 236.90234 2.7089844 C 236.96234 2.5739044 237.02201 2.4760346 237.08203 2.4160156 C 237.14703 2.3559956 237.28123 2.3261719 237.48633 2.3261719 L 238.16211 2.3261719 C 238.29221 2.3261719 238.38442 2.3075881 238.43945 2.2675781 C 238.49445 2.2225481 238.52344 2.1395942 238.52344 2.0195312 L 238.52344 0.72070312 C 238.52344 0.53059312 238.48243 0.4122135 238.40234 0.3671875 C 238.32734 0.3221575 238.20243 0.30078125 238.02734 0.30078125 L 233.95898 0.30078125 C 233.76887 0.30078125 233.65807 0.3333975 233.62305 0.3984375 C 233.58805 0.4584575 233.57031 0.5833265 233.57031 0.7734375 L 233.57031 1.9746094 C 233.57031 2.1296704 233.58891 2.225587 233.62891 2.265625 C 233.67391 2.305635 233.78022 2.3261719 233.94531 2.3261719 L 234.36523 2.3261719 C 234.57021 2.3261719 234.68297 2.3523037 234.70312 2.4023438 C 234.72813 2.4473738 234.70708 2.5432864 234.64258 2.6933594 L 232.39062 7.8867188 L 232.39258 7.8867188 C 232.27252 8.1619418 232.17185 8.3129456 232.0918 8.3378906 C 232.0167 8.3579206 231.94869 8.2991405 231.88867 8.1640625 C 231.83367 8.0289865 231.77964 7.8566014 231.72461 7.6464844 C 231.66961 7.4363704 231.60434 7.236985 231.5293 7.046875 L 229.81836 2.65625 C 229.77326 2.536212 229.76773 2.4523848 229.80273 2.4023438 C 229.84273 2.3523037 229.94342 2.3261719 230.10352 2.3261719 L 231.09375 2.3261719 C 231.25383 2.3261719 231.35536 2.305665 231.40039 2.265625 C 231.44539 2.225615 231.46875 2.1296954 231.46875 1.9746094 L 231.46875 0.67578125 C 231.46875 0.53571225 231.44549 0.4378425 231.40039 0.3828125 C 231.35539 0.3277825 231.26876 0.30078125 231.13867 0.30078125 L 224.54883 0.30078125 z M 242.04492 0.30078125 C 241.88983 0.30078125 241.77987 0.31569312 241.71484 0.34570312 C 241.65484 0.37573313 241.625 0.47640637 241.625 0.64648438 L 241.625 1.9667969 C 241.625 2.1168689 241.64273 2.2147386 241.67773 2.2597656 C 241.71773 2.3047956 241.81561 2.3261719 241.9707 2.3261719 L 242.94531 2.3261719 C 243.08039 2.3261719 243.16897 2.3410837 243.20898 2.3710938 C 243.25398 2.4011037 243.27539 2.4812371 243.27539 2.6113281 L 243.27539 9.2148438 C 243.27539 9.3750197 243.26047 9.4672425 243.23047 9.4921875 C 243.20047 9.5171375 243.10541 9.53125 242.94531 9.53125 L 241.89453 9.53125 C 241.76945 9.53125 241.69212 9.5376544 241.66211 9.5527344 C 241.63721 9.5677244 241.625 9.6413944 241.625 9.7714844 L 241.625 11.287109 C 241.625 11.447109 241.65107 11.530937 241.70117 11.541016 C 241.75117 11.551096 241.84993 11.556641 242 11.556641 L 252.92578 11.556641 C 253.08588 11.556641 253.18093 11.547544 253.21094 11.527344 C 253.24094 11.502344 253.25586 11.410945 253.25586 11.255859 L 253.25586 7.0546875 C 253.25586 6.8895975 253.24987 6.7861058 253.23438 6.7460938 C 253.21938 6.7010638 253.1271 6.6796875 252.95703 6.6796875 L 251.68164 6.6796875 C 251.47667 6.6796875 251.36391 6.7038662 251.34375 6.7539062 C 251.32385 6.8039262 251.30893 6.9251244 251.29883 7.1152344 C 251.28383 7.6905544 251.20733 8.1545656 251.07227 8.5097656 C 250.93719 8.8649656 250.69956 9.1259256 250.35938 9.2910156 C 250.02418 9.4511166 249.53966 9.53125 248.9043 9.53125 L 247.20898 9.53125 C 247.0389 9.53125 246.92895 9.525755 246.87891 9.515625 C 246.82891 9.500605 246.80273 9.4055618 246.80273 9.2304688 L 246.80273 7.1132812 C 246.80273 6.8231173 246.91832 6.6796875 247.14844 6.6796875 L 247.19336 6.6796875 C 247.38847 6.6796875 247.57576 6.7457774 247.75586 6.8808594 C 247.94095 7.0109324 248.09843 7.1824621 248.22852 7.3925781 C 248.3636 7.5976961 248.45218 7.8147989 248.49219 8.0449219 C 248.51709 8.1699989 248.53839 8.2678686 248.55859 8.3378906 C 248.58359 8.4029206 248.67303 8.4355469 248.82812 8.4355469 L 249.63867 8.4355469 C 249.77874 8.4355469 249.86731 8.41502 249.90234 8.375 C 249.93734 8.33501 249.95508 8.2492316 249.95508 8.1191406 L 249.95508 3.7675781 C 249.95508 3.6074771 249.93453 3.5068099 249.89453 3.4667969 C 249.85453 3.4267569 249.75386 3.40625 249.59375 3.40625 L 248.76172 3.40625 C 248.65658 3.40625 248.59136 3.4388663 248.56641 3.5039062 C 248.54151 3.5639462 248.51825 3.6525291 248.49805 3.7675781 C 248.43805 4.1177721 248.29178 4.4271146 248.05664 4.6972656 C 247.82151 4.9674186 247.51022 5.1035156 247.125 5.1035156 L 247.08789 5.1035156 C 246.96782 5.1035156 246.8905 5.0765144 246.85547 5.0214844 C 246.82047 4.9664344 246.80273 4.8480507 246.80273 4.6679688 L 246.80273 2.6796875 C 246.80273 2.5196115 246.83813 2.4217417 246.9082 2.3867188 C 246.9832 2.3467087 247.09319 2.3261719 247.23828 2.3261719 L 249.05469 2.3261719 C 249.605 2.3261719 250.02711 2.3970414 250.32227 2.5371094 C 250.62245 2.6721844 250.83026 2.8949051 250.94531 3.2050781 C 251.06527 3.5102471 251.13332 3.9174484 251.14844 4.4277344 C 251.15344 4.5227744 251.16846 4.5973137 251.19336 4.6523438 C 251.21836 4.7023838 251.28645 4.7285156 251.39648 4.7285156 L 252.82227 4.7285156 C 252.9672 4.7285156 253.04821 4.7163563 253.06836 4.6914062 C 253.09336 4.6663863 253.10547 4.5834284 253.10547 4.4433594 L 253.10547 0.66015625 C 253.10547 0.52008725 253.08969 0.425041 253.05469 0.375 C 253.02469 0.32496 252.9361 0.30078125 252.79102 0.30078125 L 242.04492 0.30078125 z M 21.751953 1.9511719 C 22.607431 1.9511719 23.219639 2.310849 23.589844 3.03125 C 23.965055 3.746652 24.152344 4.7120574 24.152344 5.9277344 C 24.152344 6.7381864 24.080634 7.4417754 23.935547 8.0371094 C 23.795468 8.6324424 23.549413 9.0927877 23.199219 9.4179688 C 22.854025 9.7431517 22.372296 9.90625 21.751953 9.90625 C 20.896474 9.90625 20.279506 9.5474332 19.904297 8.8320312 C 19.53409 8.1116313 19.349609 7.1434144 19.349609 5.9277344 C 19.349609 4.7120574 19.534093 3.746652 19.904297 3.03125 C 20.279506 2.310849 20.896474 1.9511719 21.751953 1.9511719 z M 74.896484 1.9511719 C 75.751964 1.9511719 76.364165 2.310849 76.734375 3.03125 C 77.109585 3.746652 77.296875 4.7120574 77.296875 5.9277344 C 77.296875 6.7381864 77.225178 7.4417754 77.080078 8.0371094 C 76.939998 8.6324424 76.69395 9.0927877 76.34375 9.4179688 C 75.99856 9.7431517 75.516834 9.90625 74.896484 9.90625 C 74.041004 9.90625 73.425981 9.5474332 73.050781 8.8320312 C 72.680571 8.1116313 72.494141 7.1434144 72.494141 5.9277344 C 72.494141 4.7120574 72.680571 3.746652 73.050781 3.03125 C 73.425991 2.310849 74.041004 1.9511719 74.896484 1.9511719 z M 128.45117 1.9511719 C 129.30664 1.9511719 129.91885 2.310849 130.28906 3.03125 C 130.66427 3.746652 130.85352 4.7120574 130.85352 5.9277344 C 130.85352 6.7381864 130.77982 7.4417754 130.63477 8.0371094 C 130.49469 8.6324424 130.25058 9.0927877 129.90039 9.4179688 C 129.55519 9.7431517 129.07151 9.90625 128.45117 9.90625 C 127.59569 9.90625 126.98068 9.5474332 126.60547 8.8320312 C 126.23527 8.1116313 126.05078 7.1434144 126.05078 5.9277344 C 126.05078 4.7120574 126.23527 3.746652 126.60547 3.03125 C 126.98068 2.310849 127.59569 1.9511719 128.45117 1.9511719 z M 58.4375 2.3261719 L 59.179688 2.3261719 C 59.714998 2.3261719 60.098005 2.4035117 60.328125 2.5585938 C 60.563265 2.7086757 60.681641 3.007877 60.681641 3.453125 C 60.681651 3.893359 60.545531 4.2147939 60.275391 4.4199219 C 60.005231 4.6250239 59.639947 4.7285156 59.179688 4.7285156 L 58.482422 4.7285156 C 58.297322 4.7285156 58.180899 4.6995613 58.130859 4.6445312 C 58.080859 4.5895313 58.054688 4.4702782 58.054688 4.2851562 L 58.054688 2.5664062 C 58.054688 2.4514843 58.090086 2.3834392 58.160156 2.3632812 C 58.230256 2.3383312 58.32246 2.3261719 58.4375 2.3261719 z M 58.363281 6.7539062 L 59.480469 6.7539062 C 59.975749 6.7539062 60.373658 6.857398 60.673828 7.0625 C 60.978998 7.262614 61.130859 7.5840479 61.130859 8.0292969 C 61.130859 8.4695409 61.017239 8.8311721 60.787109 9.1113281 C 60.561979 9.3914841 60.125829 9.53125 59.480469 9.53125 L 58.392578 9.53125 C 58.247468 9.53125 58.155244 9.5014163 58.115234 9.4414062 C 58.075234 9.3763762 58.054688 9.2664151 58.054688 9.1113281 L 58.054688 7.0839844 C 58.054688 6.8638654 58.158151 6.7539062 58.363281 6.7539062 z M 12.1875 23.550781 C 9.9953601 23.550781 8.129239 23.974102 6.5878906 24.822266 C 5.0807945 25.637808 3.9342846 26.731451 3.1464844 28.101562 C 2.3929363 29.439052 2.015625 30.874983 2.015625 32.408203 C 2.015625 34.300261 2.341396 35.882051 2.9921875 37.154297 C 3.6772312 38.426543 4.5329813 39.502027 5.5605469 40.382812 C 6.6223646 41.263599 7.7358164 42.03116 8.9003906 42.683594 C 10.064965 43.303406 11.159935 43.90695 12.1875 44.494141 C 13.249317 45.048709 14.107021 45.684666 14.757812 46.402344 C 15.442856 47.0874 15.785156 47.935994 15.785156 48.947266 C 15.785156 49.79543 15.475914 50.512419 14.859375 51.099609 C 14.277087 51.654179 13.540947 51.931641 12.650391 51.931641 C 11.109043 51.931641 10.047131 51.344303 9.4648438 50.169922 C 8.9168088 48.995541 8.60952 47.413752 8.5410156 45.423828 C 8.5410156 44.901881 8.2998431 44.640625 7.8203125 44.640625 L 1.7070312 44.640625 C 1.2960051 44.640625 1.0217744 44.70545 0.88476562 44.835938 C 0.74775689 44.933803 0.6796875 45.162646 0.6796875 45.521484 C 0.6796875 47.837624 1.0735279 50.006752 1.8613281 52.029297 C 2.6833806 54.051842 3.9845113 55.68225 5.765625 56.921875 C 7.5467386 58.1615 9.8582403 58.78125 12.701172 58.78125 C 16.571669 58.78125 19.363563 57.867831 21.076172 56.041016 C 22.823033 54.214201 23.697266 51.866803 23.697266 48.996094 C 23.697266 47.00617 23.354965 45.341396 22.669922 44.003906 C 22.01913 42.666418 21.16338 41.558521 20.101562 40.677734 C 19.039744 39.796949 17.90781 39.061799 16.708984 38.474609 C 15.510157 37.854797 14.380177 37.283666 13.318359 36.761719 C 12.256541 36.20715 11.384262 35.603605 10.699219 34.951172 C 10.048427 34.298738 9.7226562 33.500717 9.7226562 32.554688 C 9.7226562 31.804389 9.9618752 31.217051 10.441406 30.792969 C 10.955188 30.368887 11.536708 30.15625 12.1875 30.15625 C 13.180813 30.15625 13.918907 30.417506 14.398438 30.939453 C 14.91222 31.428778 15.254521 32.080942 15.425781 32.896484 C 15.597043 33.679405 15.681641 34.527999 15.681641 35.441406 C 15.681641 35.734998 15.74971 35.913269 15.886719 35.978516 C 16.023727 36.011136 16.246418 36.027344 16.554688 36.027344 L 21.693359 36.027344 C 22.138638 36.027344 22.361328 35.832867 22.361328 35.441406 C 22.361328 34.006052 22.206707 32.586326 21.898438 31.183594 C 21.590168 29.780861 21.060189 28.508948 20.306641 27.367188 C 19.553093 26.192807 18.50771 25.26318 17.171875 24.578125 C 15.870292 23.893069 14.208379 23.550781 12.1875 23.550781 z M 205.1582 23.550781 C 202.96606 23.550781 201.09995 23.974102 199.55859 24.822266 C 198.0515 25.637808 196.90303 26.731451 196.11523 28.101562 C 195.36169 29.439052 194.98437 30.874983 194.98438 32.408203 C 194.98438 34.300261 195.31015 35.882051 195.96094 37.154297 C 196.64598 38.426543 197.50174 39.502027 198.5293 40.382812 C 199.59112 41.263598 200.70456 42.03116 201.86914 42.683594 C 203.03371 43.303406 204.13063 43.90695 205.1582 44.494141 C 206.22002 45.048709 207.07577 45.684666 207.72656 46.402344 C 208.4116 47.0874 208.75391 47.935994 208.75391 48.947266 C 208.75391 49.79543 208.44661 50.512419 207.83008 51.099609 C 207.24779 51.654179 206.51165 51.931641 205.62109 51.931641 C 204.07975 51.931641 203.01784 51.344303 202.43555 50.169922 C 201.88751 48.995541 201.57827 47.413752 201.50977 45.423828 C 201.50977 44.901881 201.27054 44.640625 200.79102 44.640625 L 194.67773 44.640625 C 194.26671 44.640625 193.99248 44.705451 193.85547 44.835938 C 193.71846 44.933803 193.64844 45.162646 193.64844 45.521484 C 193.64844 47.837624 194.04228 50.006752 194.83008 52.029297 C 195.65213 54.051842 196.95521 55.682251 198.73633 56.921875 C 200.51744 58.1615 202.82895 58.78125 205.67188 58.78125 C 209.54238 58.78125 212.33426 57.867831 214.04688 56.041016 C 215.79373 54.214201 216.66602 51.866803 216.66602 48.996094 C 216.66602 47.00617 216.32372 45.341396 215.63867 44.003906 C 214.98789 42.666418 214.13213 41.558521 213.07031 40.677734 C 212.00849 39.796949 210.87851 39.061799 209.67969 38.474609 C 208.48087 37.854797 207.35088 37.283666 206.28906 36.761719 C 205.22724 36.20715 204.35302 35.603605 203.66797 34.951172 C 203.01718 34.298738 202.69141 33.500717 202.69141 32.554688 C 202.69141 31.804389 202.93063 31.217051 203.41016 30.792969 C 203.92394 30.368887 204.50741 30.15625 205.1582 30.15625 C 206.15151 30.15625 206.88765 30.417506 207.36719 30.939453 C 207.88097 31.428778 208.22327 32.080942 208.39453 32.896484 C 208.56579 33.679405 208.65234 34.527999 208.65234 35.441406 C 208.65234 35.734998 208.72041 35.913269 208.85742 35.978516 C 208.99443 36.011136 209.21712 36.027344 209.52539 36.027344 L 214.66211 36.027344 C 215.10739 36.027344 215.33008 35.832867 215.33008 35.441406 C 215.33008 34.006052 215.17741 32.586326 214.86914 31.183594 C 214.56087 29.780861 214.02894 28.508947 213.27539 27.367188 C 212.52184 26.192807 211.47841 25.26318 210.14258 24.578125 C 208.841 23.893069 207.17908 23.550781 205.1582 23.550781 z M 242.11328 23.550781 C 240.26366 23.550781 238.70483 23.828243 237.4375 24.382812 C 236.20442 24.904759 235.22906 25.556923 234.50977 26.339844 C 233.5507 27.41636 232.8661 28.720686 232.45508 30.253906 C 232.04404 31.787126 231.78635 33.4519 231.68359 35.246094 C 231.61509 37.040286 231.58008 38.899538 231.58008 40.824219 C 231.58008 42.781519 231.61509 44.770423 231.68359 46.792969 C 231.78635 48.782892 232.02556 50.593525 232.40234 52.224609 C 232.77911 53.855694 233.37912 55.111402 234.20117 55.992188 C 235.05748 56.872974 236.03284 57.559503 237.12891 58.048828 C 238.25923 58.538154 239.80153 58.78125 241.75391 58.78125 C 243.53502 58.78125 244.97424 58.619186 246.07031 58.292969 C 247.20063 57.999373 248.22754 57.444448 249.15234 56.628906 C 250.28267 55.617634 251.07035 54.116876 251.51562 52.126953 C 251.99516 50.104408 252.23437 47.706438 252.23438 44.933594 C 252.23438 44.509515 252.14978 44.264465 251.97852 44.199219 C 251.80725 44.133979 251.48148 44.101563 251.00195 44.101562 L 246.63477 44.101562 C 245.98397 44.101563 245.55512 44.168341 245.34961 44.298828 C 245.1441 44.396693 245.04102 44.771395 245.04102 45.423828 L 245.04102 48.408203 C 245.04102 49.810936 244.83681 50.920785 244.42578 51.736328 C 244.01475 52.519249 243.20859 52.910156 242.00977 52.910156 C 240.91369 52.910156 240.14449 52.436264 239.69922 51.490234 C 239.45945 50.903044 239.26982 49.989625 239.13281 48.75 C 238.99575 47.510376 238.91115 46.173636 238.87695 44.738281 C 238.84275 43.302927 238.82422 42.047218 238.82422 40.970703 L 238.82422 38.230469 C 238.85853 37.186575 238.89353 36.14155 238.92773 35.097656 C 238.99623 34.02114 239.09932 33.075308 239.23633 32.259766 C 239.37334 31.444224 239.56101 30.856886 239.80078 30.498047 C 240.10905 30.041343 240.48636 29.747674 240.93164 29.617188 C 241.37692 29.486701 241.83883 29.421875 242.31836 29.421875 C 242.66089 29.421875 243.02167 29.50486 243.39844 29.667969 C 243.80947 29.798455 244.13329 30.041552 244.37305 30.400391 C 244.71557 30.889716 244.92173 31.379815 244.99023 31.869141 C 245.05874 32.358467 245.09375 33.107869 245.09375 34.119141 L 245.09375 37.544922 C 245.09375 37.773274 245.19683 37.953498 245.40234 38.083984 C 245.64211 38.181849 245.89786 38.230469 246.17188 38.230469 L 251.05273 38.230469 C 251.60077 38.230469 251.92654 38.149436 252.0293 37.986328 C 252.1663 37.823219 252.23438 37.430359 252.23438 36.810547 C 252.23438 34.55965 252.13129 32.603159 251.92578 30.939453 C 251.75451 29.275746 251.17299 27.807402 250.17969 26.535156 C 249.35763 25.491262 248.34726 24.74186 247.14844 24.285156 C 245.94961 23.79583 244.27117 23.550781 242.11328 23.550781 z M 28.259766 24.039062 C 27.848739 24.039062 27.574509 24.122048 27.4375 24.285156 C 27.334743 24.415643 27.283203 24.626327 27.283203 24.919922 L 27.283203 56.921875 C 27.283203 57.443822 27.353226 57.802317 27.490234 57.998047 C 27.627243 58.193777 27.95106 58.292969 28.464844 58.292969 L 33.859375 58.292969 C 34.23615 58.292969 34.477322 58.228143 34.580078 58.097656 C 34.682835 57.96717 34.734375 57.738326 34.734375 57.412109 L 34.734375 46.402344 C 34.734375 45.847776 35.058194 45.570312 35.708984 45.570312 L 39.820312 45.570312 C 40.162834 45.570313 40.385525 45.618932 40.488281 45.716797 C 40.591037 45.814662 40.642578 46.027299 40.642578 46.353516 L 40.642578 57.412109 C 40.642578 57.738326 40.675636 57.96717 40.744141 58.097656 C 40.812645 58.228143 41.018806 58.292969 41.361328 58.292969 L 47.322266 58.292969 C 47.69904 58.292969 47.92173 58.228143 47.990234 58.097656 C 48.058738 57.934548 48.091797 57.689498 48.091797 57.363281 L 48.091797 24.96875 C 48.091797 24.57729 48.058738 24.334193 47.990234 24.236328 C 47.92173 24.105841 47.664028 24.039062 47.21875 24.039062 L 41.515625 24.039062 C 41.173104 24.039062 40.933884 24.122048 40.796875 24.285156 C 40.694118 24.415643 40.642578 24.65874 40.642578 25.017578 L 40.642578 35.880859 C 40.642578 36.304942 40.574509 36.598611 40.4375 36.761719 C 40.334744 36.924827 40.093572 37.007812 39.716797 37.007812 L 35.708984 37.007812 C 35.332211 37.007812 35.076462 36.924827 34.939453 36.761719 C 34.802444 36.598611 34.734375 36.304942 34.734375 35.880859 L 34.734375 24.919922 C 34.734375 24.561084 34.664352 24.334193 34.527344 24.236328 C 34.424586 24.105841 34.185367 24.039062 33.808594 24.039062 L 28.259766 24.039062 z M 53.814453 24.039062 C 53.060905 24.039062 52.598995 24.105841 52.427734 24.236328 C 52.256473 24.334193 52.169922 24.708894 52.169922 25.361328 L 52.169922 56.726562 C 52.169922 57.378997 52.273003 57.802317 52.478516 57.998047 C 52.718282 58.193777 53.163662 58.292969 53.814453 58.292969 L 68.611328 58.292969 C 69.296371 58.292969 69.776763 58.211937 70.050781 58.048828 C 70.324799 57.853098 70.460938 57.411618 70.460938 56.726562 L 70.460938 52.517578 C 70.460938 52.028253 70.374386 51.736537 70.203125 51.638672 C 70.066116 51.508185 69.690758 51.441406 69.074219 51.441406 L 61.007812 51.441406 C 60.49403 51.441406 60.081708 51.360375 59.773438 51.197266 C 59.49942 51.034158 59.363281 50.691869 59.363281 50.169922 L 59.363281 45.277344 C 59.363281 44.755397 59.482891 44.429315 59.722656 44.298828 C 59.962422 44.168341 60.356262 44.101562 60.904297 44.101562 L 66.144531 44.101562 C 66.795323 44.101562 67.121094 43.791687 67.121094 43.171875 L 67.121094 38.328125 C 67.121094 37.969286 67.036496 37.740443 66.865234 37.642578 C 66.728226 37.544713 66.487053 37.496094 66.144531 37.496094 L 60.339844 37.496094 C 59.894564 37.496094 59.620334 37.447475 59.517578 37.349609 C 59.414821 37.219123 59.363281 36.94166 59.363281 36.517578 L 59.363281 32.015625 C 59.363281 31.5263 59.466362 31.216425 59.671875 31.085938 C 59.877388 30.955451 60.236217 30.890625 60.75 30.890625 L 68.919922 30.890625 C 69.399453 30.890625 69.706741 30.825799 69.84375 30.695312 C 69.980759 30.564826 70.050781 30.25495 70.050781 29.765625 L 70.050781 25.263672 C 70.050781 24.709103 69.91269 24.366815 69.638672 24.236328 C 69.398907 24.105841 68.885457 24.039062 68.097656 24.039062 L 53.814453 24.039062 z M 75.189453 24.039062 C 74.435905 24.039062 73.972042 24.105841 73.800781 24.236328 C 73.62952 24.334193 73.544922 24.708894 73.544922 25.361328 L 73.544922 56.726562 C 73.544922 57.378997 73.648002 57.802317 73.853516 57.998047 C 74.093281 58.193777 74.538662 58.292969 75.189453 58.292969 L 89.986328 58.292969 C 90.671372 58.292969 91.149811 58.211937 91.423828 58.048828 C 91.697845 57.853098 91.835937 57.411618 91.835938 56.726562 L 91.835938 52.517578 C 91.835938 52.028253 91.749386 51.736537 91.578125 51.638672 C 91.441116 51.508185 91.063804 51.441406 90.447266 51.441406 L 82.380859 51.441406 C 81.867077 51.441406 81.456708 51.360375 81.148438 51.197266 C 80.87442 51.034158 80.738281 50.691869 80.738281 50.169922 L 80.738281 45.277344 C 80.738281 44.755397 80.857891 44.429315 81.097656 44.298828 C 81.337422 44.168341 81.731262 44.101562 82.279297 44.101562 L 87.519531 44.101562 C 88.170323 44.101562 88.496094 43.791687 88.496094 43.171875 L 88.496094 38.328125 C 88.496094 37.969286 88.409542 37.740443 88.238281 37.642578 C 88.101272 37.544713 87.862053 37.496094 87.519531 37.496094 L 81.712891 37.496094 C 81.267612 37.496094 80.993382 37.447475 80.890625 37.349609 C 80.787868 37.219123 80.738281 36.94166 80.738281 36.517578 L 80.738281 32.015625 C 80.738281 31.5263 80.839409 31.216425 81.044922 31.085938 C 81.250435 30.955451 81.611217 30.890625 82.125 30.890625 L 90.292969 30.890625 C 90.772499 30.890625 91.081741 30.825799 91.21875 30.695312 C 91.355759 30.564826 91.423828 30.25495 91.423828 29.765625 L 91.423828 25.263672 C 91.423828 24.709103 91.287689 24.366815 91.013672 24.236328 C 90.773907 24.105841 90.260457 24.039062 89.472656 24.039062 L 75.189453 24.039062 z M 94.867188 24.039062 C 94.421909 24.039062 94.147678 24.089635 94.044922 24.1875 C 93.942165 24.252743 93.890625 24.512047 93.890625 24.96875 L 93.890625 30.400391 C 93.890625 30.759226 93.942165 30.971863 94.044922 31.037109 C 94.147678 31.102349 94.386897 31.134766 94.763672 31.134766 L 100.3125 31.134766 C 100.82628 31.134766 101.11899 31.183385 101.1875 31.28125 C 101.29025 31.346493 101.3418 31.623956 101.3418 32.113281 L 101.3418 57.65625 C 101.3418 57.884602 101.37485 58.04862 101.44336 58.146484 C 101.51187 58.24435 101.68302 58.292969 101.95703 58.292969 L 108.6875 58.292969 C 108.96153 58.292969 109.13267 58.260559 109.20117 58.195312 C 109.26968 58.097447 109.30469 57.917223 109.30469 57.65625 L 109.30469 32.210938 C 109.30469 31.852099 109.3397 31.590842 109.4082 31.427734 C 109.51096 31.232004 109.78324 31.134766 110.22852 31.134766 L 116.08594 31.134766 C 116.53122 31.134766 116.78892 31.06994 116.85742 30.939453 C 116.96018 30.808966 117.01172 30.54771 117.01172 30.15625 L 117.01172 24.871094 C 117.01172 24.512255 116.96018 24.285365 116.85742 24.1875 C 116.78892 24.089635 116.56623 24.039062 116.18945 24.039062 L 94.867188 24.039062 z M 136.48438 24.039062 C 136.07335 24.039062 135.81565 24.089635 135.71289 24.1875 C 135.61014 24.285365 135.55859 24.544668 135.55859 24.96875 L 135.55859 57.265625 C 135.55859 57.689708 135.5936 57.96717 135.66211 58.097656 C 135.76486 58.228143 136.02257 58.292969 136.43359 58.292969 L 140.90234 58.292969 C 141.31337 58.292969 141.55454 58.228143 141.62305 58.097656 C 141.69155 57.96717 141.72461 57.72212 141.72461 57.363281 L 141.72461 35.832031 C 141.72461 35.505815 141.70803 35.260765 141.67383 35.097656 C 141.63957 34.934548 141.67459 34.853516 141.77734 34.853516 C 141.9486 34.853516 142.11976 35.179598 142.29102 35.832031 L 147.17188 57.363281 C 147.24037 57.689498 147.32497 57.934548 147.42773 58.097656 C 147.53049 58.228143 147.80473 58.292969 148.25 58.292969 L 151.64062 58.292969 C 152.12014 58.292969 152.39438 58.24435 152.46289 58.146484 C 152.56565 58.04862 152.6522 57.819776 152.7207 57.460938 L 158.2168 35 C 158.25105 34.771648 158.3376 34.658203 158.47461 34.658203 C 158.61162 34.658203 158.67969 34.771648 158.67969 35 L 158.67969 57.607422 C 158.67969 57.933642 158.73122 58.130073 158.83398 58.195312 C 158.97099 58.260559 159.21021 58.292969 159.55273 58.292969 L 164.125 58.292969 C 164.39902 58.292969 164.58865 58.260559 164.69141 58.195312 C 164.79416 58.130069 164.8457 57.982258 164.8457 57.753906 L 164.8457 24.675781 C 164.8457 24.382189 164.77763 24.201965 164.64062 24.136719 C 164.53787 24.071479 164.34823 24.039062 164.07422 24.039062 L 155.33984 24.039062 C 154.96308 24.039063 154.68884 24.071479 154.51758 24.136719 C 154.34632 24.201962 154.2267 24.382186 154.1582 24.675781 L 150.7168 40.382812 C 150.61404 40.806895 150.52749 41.100564 150.45898 41.263672 C 150.42473 41.394159 150.34013 41.458984 150.20312 41.458984 C 150.10036 41.458984 150.01381 41.394159 149.94531 41.263672 C 149.87681 41.100564 149.79221 40.806895 149.68945 40.382812 L 146.29688 25.117188 C 146.22837 24.693106 146.12724 24.415643 145.99023 24.285156 C 145.85323 24.122048 145.52746 24.039062 145.01367 24.039062 L 136.48438 24.039062 z M 169.64258 24.039062 C 169.36856 24.039062 169.18088 24.105841 169.07812 24.236328 C 169.00962 24.334193 168.97461 24.512464 168.97461 24.773438 L 168.97461 47.527344 C 168.97461 51.670298 169.79731 54.590781 171.44141 56.287109 C 173.08551 57.950816 175.77432 58.78125 179.50781 58.78125 C 183.24129 58.78125 185.93011 57.950816 187.57422 56.287109 C 189.21832 54.590781 190.04102 51.670298 190.04102 47.527344 L 190.04102 25.017578 C 190.04102 24.593497 189.98947 24.334193 189.88672 24.236328 C 189.81821 24.105841 189.56051 24.039062 189.11523 24.039062 L 183.56641 24.039062 C 183.25813 24.039062 183.05393 24.089635 182.95117 24.1875 C 182.88267 24.285365 182.84766 24.479842 182.84766 24.773438 L 182.84766 46.792969 C 182.84766 48.652405 182.60844 49.940526 182.12891 50.658203 C 181.68363 51.343258 180.80939 51.6875 179.50781 51.6875 C 178.48024 51.6875 177.65756 51.343258 177.04102 50.658203 C 176.45874 49.940526 176.16797 48.652405 176.16797 46.792969 L 176.16797 25.068359 C 176.16797 24.611656 176.0999 24.334193 175.96289 24.236328 C 175.86014 24.105841 175.5859 24.039062 175.14062 24.039062 L 169.64258 24.039062 z M 220.81836 24.039062 C 220.57859 24.039063 220.42397 24.071479 220.35547 24.136719 C 220.28696 24.201962 220.25391 24.349773 220.25391 24.578125 L 220.25391 57.314453 C 220.25391 57.673292 220.28696 57.934548 220.35547 58.097656 C 220.45822 58.228143 220.68092 58.292969 221.02344 58.292969 L 227.34375 58.292969 C 227.61777 58.292969 227.78892 58.24435 227.85742 58.146484 C 227.92593 58.04862 227.96094 57.884602 227.96094 57.65625 L 227.96094 24.675781 C 227.96094 24.251699 227.7713 24.039062 227.39453 24.039062 L 220.81836 24.039062 z "
       style="font-style:normal;font-variant:normal;font-weight:normal;font-stretch:normal;font-size:8.99107px;font-family:'Railroad Gothic CC';-inkscape-font-specification:'Railroad Gothic CC';letter-spacing:0px;word-spacing:0px;white-space:pre;fill:#28170b;stroke-width:5.47211"
       id="path927" />
  </g>
</svg>
